<?xml version="1.0" standalone="no"?>
<!DOCTYPE svg PUBLIC "-//W3C//DTD SVG 20010904//EN"
 "http://www.w3.org/TR/2001/REC-SVG-20010904/DTD/svg10.dtd">
<svg version="1.0" xmlns="http://www.w3.org/2000/svg"
 width="150.000000pt" height="150.000000pt" viewBox="0 0 1024.000000 1024.000000"
 preserveAspectRatio="xMidYMid meet">

<g transform="translate(0.000000,1024.000000) scale(0.100000,-0.100000)"
fill="#4f0000" stroke="none">
<path d="M5292 9632 c101 -96 169 -192 207 -291 50 -132 50 -132 -5 -80 -145
136 -298 211 -504 244 -246 40 -344 72 -450 150 -26 19 -50 35 -54 35 -12 0
35 -106 70 -157 20 -29 117 -129 215 -224 99 -94 178 -173 176 -175 -2 -2 -40
13 -85 32 -116 50 -233 72 -430 79 -92 3 -198 11 -237 16 -148 21 -261 103
-326 238 -19 39 -37 71 -40 71 -8 0 -19 -90 -19 -150 0 -77 28 -182 71 -270
35 -71 59 -102 143 -185 56 -55 137 -125 181 -154 97 -66 182 -136 196 -162
10 -20 9 -20 -30 1 -59 30 -156 50 -241 50 -81 0 -193 -20 -235 -42 -26 -14
-26 -14 27 -27 81 -20 179 -76 237 -135 l53 -54 -108 4 c-60 2 -179 6 -264 8
-123 3 -169 9 -225 26 -111 35 -225 99 -238 135 -8 20 160 99 471 220 39 15
72 30 72 32 0 2 -24 32 -52 66 -29 35 -62 76 -73 91 l-20 27 -148 -61 c-981
-401 -1752 -1118 -2198 -2044 -278 -577 -409 -1155 -410 -1801 -1 -483 67
-915 207 -1317 231 -664 556 -1200 1014 -1672 923 -952 2192 -1387 3510 -1205
229 32 441 85 715 179 562 194 1068 509 1514 944 454 443 796 953 1014 1511
291 746 369 1467 241 2235 -102 615 -373 1257 -735 1747 -266 360 -604 693
-967 952 -57 40 -105 71 -107 69 -3 -3 -1 -29 5 -58 5 -29 10 -91 10 -139 l0
-86 103 -77 c532 -398 942 -932 1221 -1590 125 -296 235 -704 270 -1009 50
-426 43 -757 -25 -1164 -95 -565 -291 -1054 -624 -1555 -184 -275 -379 -506
-602 -711 -133 -122 -138 -126 -171 -118 -61 14 -60 23 17 105 91 97 224 273
218 288 -3 6 -49 70 -104 143 -174 232 -333 523 -408 745 -43 128 -45 158 -11
158 37 0 117 -61 156 -118 19 -28 38 -51 41 -52 4 0 9 18 13 39 8 54 53 91
109 91 56 1 126 15 139 28 8 8 7 24 -1 54 -24 86 16 137 136 174 96 29 135 58
158 117 19 50 20 75 10 183 -10 105 2 139 76 218 32 35 59 66 59 70 0 3 -22 6
-49 6 -61 0 -198 -42 -236 -72 -34 -27 -64 -91 -65 -138 0 -55 -20 -113 -48
-143 -28 -29 -104 -57 -158 -57 -31 0 -32 0 -36 -58 -4 -63 -44 -134 -93 -166
-96 -63 -251 -13 -303 98 -12 24 -46 117 -77 206 -60 175 -96 253 -156 342
-44 64 -48 89 -19 118 24 24 72 26 150 5 117 -32 156 -18 212 77 50 85 72 103
162 129 39 12 85 32 103 45 34 26 133 207 120 220 -4 4 -28 -2 -53 -14 -25
-13 -80 -27 -122 -32 -106 -14 -137 -32 -207 -124 -94 -121 -147 -138 -285
-91 -40 14 -95 25 -122 25 -45 0 -53 -4 -108 -55 -48 -44 -67 -55 -94 -55 -46
0 -98 20 -186 72 -41 24 -155 83 -253 132 -161 80 -183 95 -225 144 -26 31
-80 90 -120 133 l-74 77 99 -1 c84 -1 104 2 140 21 60 31 91 78 107 158 13 65
54 171 106 274 12 25 60 95 105 155 117 157 150 211 189 316 21 56 44 100 57
109 12 8 44 35 71 60 60 55 69 89 56 206 -19 164 6 241 120 369 39 44 84 106
100 137 l28 57 29 -72 c25 -64 29 -85 29 -184 1 -108 2 -111 20 -95 24 22 69
114 87 177 9 33 14 99 14 190 -1 138 -18 251 -61 399 -8 27 -14 51 -14 53 0 2
21 -11 48 -29 146 -100 231 -226 250 -368 l8 -55 23 60 c19 47 24 79 24 150
-1 186 -82 335 -258 475 l-65 51 72 36 c84 43 150 105 168 158 13 38 9 152 -5
175 -5 8 -14 -2 -25 -27 -21 -48 -43 -66 -105 -94 -45 -20 -195 -38 -195 -24
0 3 27 38 61 77 33 40 79 111 102 157 42 84 42 85 42 195 0 125 -21 209 -81
328 -38 75 -160 213 -150 168 4 -14 9 -70 12 -125 10 -151 -28 -312 -90 -390
-14 -18 -15 -8 -16 136 0 187 -17 269 -85 404 -111 223 -323 420 -582 542 -51
23 -95 43 -98 43 -3 0 22 -36 55 -81 142 -192 179 -308 172 -538 -2 -72 -9
-71 -41 8 -33 84 -143 242 -213 306 -232 216 -569 400 -853 468 -135 33 -133
35 -43 -51z m575 -391 c121 -65 225 -165 297 -285 55 -92 106 -267 106 -365 0
-32 -5 -26 -49 64 -78 157 -284 461 -396 584 -45 49 -44 49 42 2z m-2534 -706
c11 -28 43 -100 73 -161 64 -134 160 -249 283 -339 l81 -60 -111 -3 c-86 -2
-130 2 -191 17 -84 21 -206 78 -247 115 -23 20 -24 20 -17 1 5 -11 15 -42 23
-70 23 -78 88 -195 147 -267 59 -71 195 -179 275 -218 28 -14 51 -28 51 -32 0
-10 -145 -14 -248 -6 -122 9 -205 31 -295 76 -4 2 6 -19 24 -47 74 -121 207
-233 342 -289 74 -31 203 -62 257 -62 16 0 30 -2 30 -5 0 -10 -84 -81 -133
-112 -62 -40 -165 -75 -224 -77 -23 0 -43 -4 -43 -8 0 -13 65 -57 120 -82 106
-48 315 -72 386 -46 26 10 26 10 20 -22 -17 -86 -119 -228 -189 -265 -28 -14
-29 -16 -12 -26 25 -14 165 -2 248 21 77 22 76 23 47 -63 -24 -69 -63 -139
-99 -178 l-26 -29 50 7 c107 16 217 58 303 117 l42 29 0 -29 c0 -47 -29 -190
-52 -251 -33 -90 -35 -91 -163 -80 -171 15 -349 -5 -413 -47 -13 -8 -32 -36
-43 -62 -57 -136 -115 -210 -246 -317 -68 -55 -91 -80 -101 -110 -7 -22 -20
-47 -28 -56 -9 -10 -97 -59 -197 -109 -265 -132 -333 -140 -367 -42 -8 23 -19
42 -25 42 -25 -1 -109 -65 -138 -106 l-31 -45 -52 7 c-181 22 -430 -191 -653
-557 -70 -117 -258 -482 -271 -531 -7 -23 0 -84 15 -126 3 -7 33 17 74 60 l70
73 1 -35 c0 -43 -36 -159 -84 -265 -20 -44 -36 -90 -36 -102 0 -15 -10 -28
-29 -37 l-29 -15 -37 107 c-93 269 -138 444 -174 682 -96 635 -59 1183 121
1780 255 850 807 1604 1538 2101 122 83 335 208 350 206 8 -1 23 -25 33 -52z
m2518 -186 c51 -28 127 -74 168 -102 81 -56 228 -197 257 -247 10 -16 22 -30
26 -30 15 0 8 27 -22 86 -16 32 -28 60 -26 61 8 8 121 -94 166 -150 78 -95
116 -183 140 -321 11 -65 20 -134 20 -153 0 -29 3 -33 14 -24 25 21 68 133 80
209 l12 76 27 -130 c16 -71 36 -180 46 -241 10 -62 21 -116 24 -119 4 -4 13
-2 20 5 19 15 73 135 91 201 8 30 15 51 15 45 1 -5 10 -95 21 -200 30 -293 26
-336 -40 -370 -44 -23 -51 -19 -34 21 19 45 11 54 -24 30 -27 -17 -87 -46
-170 -81 -23 -10 -54 -30 -68 -44 -25 -24 -26 -30 -21 -96 6 -78 38 -178 66
-210 29 -32 32 -52 17 -115 -8 -33 -11 -60 -8 -60 9 0 52 67 52 80 0 5 5 10
10 10 15 0 12 -86 -4 -125 -9 -20 -31 -44 -55 -59 -56 -36 -79 -73 -173 -287
-11 -26 -30 -59 -42 -73 l-21 -27 3 45 c3 34 0 47 -11 52 -18 6 -52 -9 -84
-39 l-23 -20 0 31 c0 20 -9 42 -26 60 l-27 29 -41 -39 c-45 -42 -49 -40 -61
33 -3 20 -14 44 -25 54 -20 18 -21 17 -64 -28 l-44 -45 -6 36 c-14 81 -18 93
-37 103 -16 8 -27 4 -57 -21 l-37 -30 -7 42 c-13 75 -17 84 -44 97 -25 11 -29
9 -54 -20 -33 -40 -38 -34 -54 76 -10 70 -10 85 1 85 27 0 87 -31 124 -65 22
-19 44 -35 49 -35 26 0 -6 89 -48 133 -40 42 -85 62 -252 111 -83 24 -162 51
-175 60 -29 19 -54 66 -84 158 -27 81 -59 128 -162 234 -81 83 -99 114 -99
165 l0 30 38 -29 c20 -16 67 -50 104 -75 36 -26 73 -54 81 -62 13 -13 16 -12
21 8 13 44 18 193 9 244 -6 29 -6 50 -1 47 14 -9 54 -94 78 -169 29 -90 65
-163 98 -197 14 -16 28 -28 31 -28 3 0 5 40 3 89 -3 82 0 98 39 212 34 101 42
138 42 198 l0 75 33 -40 c19 -21 41 -60 51 -86 9 -26 21 -44 26 -41 5 3 20 29
33 57 18 39 24 68 24 122 0 85 -15 132 -75 235 -25 41 -45 80 -45 86 0 24 197
-20 280 -62 52 -26 132 -108 157 -159 9 -20 23 -36 31 -36 12 0 13 17 10 98
-6 111 -44 231 -103 320 -40 62 -27 68 39 17 25 -19 46 -32 46 -29 0 9 -65 97
-133 182 -54 66 -155 161 -217 204 -47 32 -13 18 81 -33z m-641 -54 c28 -19
152 -84 276 -145 123 -60 224 -112 224 -114 0 -7 -196 43 -250 64 -110 43
-226 122 -279 189 -18 23 -31 41 -28 41 3 0 28 -16 57 -35z m-122 -586 c63
-16 145 -33 181 -37 l66 -8 -60 -13 c-127 -28 -269 14 -392 116 -27 22 -27 22
31 -3 33 -14 111 -39 174 -55z m-430 -283 c30 -16 64 -50 80 -82 16 -30 71
-184 67 -184 -2 0 -21 32 -41 71 -45 85 -90 124 -145 124 -98 0 -153 -145
-116 -305 7 -30 18 -64 25 -75 10 -18 14 -13 44 52 23 51 38 73 51 73 30 0 35
-39 19 -151 -8 -59 -12 -119 -8 -135 4 -16 38 -59 77 -97 38 -37 69 -74 69
-82 0 -28 -90 -19 -158 16 -146 73 -232 232 -232 430 0 144 45 270 121 333 35
30 102 35 147 12z m401 -934 c12 -100 25 -192 30 -204 8 -22 8 -22 14 -3 9 31
36 243 39 310 l3 60 27 -55 c38 -77 57 -159 65 -273 3 -54 9 -94 14 -90 4 4
21 48 38 96 38 109 48 127 67 127 18 0 16 -11 -29 -125 -30 -74 -32 -89 -32
-200 1 -110 3 -125 27 -175 39 -78 91 -136 68 -74 -16 42 -25 164 -11 164 6 0
11 -4 11 -10 0 -5 35 -44 77 -87 80 -81 98 -89 136 -56 16 15 17 14 17 -7 0
-34 39 -110 57 -110 8 0 28 9 44 21 l29 20 0 -34 c0 -72 78 -117 112 -65 15
22 15 22 22 -17 11 -57 33 -95 56 -95 24 0 70 21 70 32 0 4 5 8 10 8 6 0 10
-10 10 -22 0 -13 9 -34 20 -48 l19 -25 40 21 c36 19 41 20 55 6 22 -22 32 -7
17 25 -11 24 -9 31 16 67 20 28 38 42 61 47 17 4 32 5 32 4 0 -2 -24 -41 -54
-89 -30 -47 -66 -121 -81 -163 -43 -125 -57 -153 -88 -179 -58 -49 -203 -23
-332 60 -95 61 -827 763 -845 810 -6 16 1 54 26 134 18 61 43 166 54 234 11
68 26 148 32 178 l12 55 12 -45 c7 -25 21 -127 33 -228z m1676 148 c7 -42 -8
-21 -19 25 -5 21 -4 27 3 20 6 -6 13 -26 16 -45z m-1061 -402 c0 -24 -3 -60
-7 -80 l-8 -38 -39 20 c-21 11 -41 23 -43 27 -9 17 15 74 45 103 37 38 51 29
52 -32z m-1025 -303 c53 -155 88 -315 141 -639 27 -167 36 -202 79 -305 27
-64 53 -129 57 -145 6 -26 5 -28 -17 -21 -92 29 -109 43 -139 109 -62 137
-128 394 -164 646 -15 103 -30 314 -40 555 l-4 120 18 -85 c10 -47 41 -152 69
-235z m1165 173 c-23 -92 -25 -94 -62 -64 -26 23 -29 30 -22 55 8 30 33 73 59
104 14 17 16 17 28 -7 12 -22 11 -35 -3 -88z m146 13 c5 -11 10 -35 10 -54 0
-43 -28 -137 -41 -137 -5 0 -28 9 -49 20 -27 14 -40 27 -40 40 0 33 79 150
101 150 5 0 13 -9 19 -19z m-346 -131 c-6 -28 -37 -75 -50 -75 -14 0 -36 117
-29 154 l7 34 39 -44 c30 -34 37 -50 33 -69z m500 35 c7 -38 -16 -139 -34
-150 -11 -7 -79 12 -93 24 -18 17 93 178 113 166 4 -3 11 -21 14 -40z m142
-40 c8 -32 -2 -85 -22 -113 -12 -18 -25 -22 -65 -22 -27 0 -49 3 -49 6 0 9 61
97 88 127 32 33 40 34 48 2z m-493 -96 c-3 -10 -22 -33 -41 -51 l-36 -31 -7
24 c-11 39 -10 96 3 124 l12 26 37 -37 c25 -24 35 -42 32 -55z m620 21 c-3
-14 -17 -47 -30 -73 -23 -46 -25 -48 -63 -45 -22 1 -40 4 -40 5 0 17 41 77 78
115 48 50 67 49 55 -2z m-2385 5 c-79 -21 -122 -48 -128 -81 -9 -43 17 -184
57 -309 19 -60 86 -237 148 -392 63 -155 128 -326 145 -380 66 -212 110 -509
124 -833 3 -90 2 -104 -5 -65 -86 460 -203 859 -359 1220 -83 192 -154 380
-196 522 -21 69 -26 109 -26 188 0 55 4 111 10 125 l10 25 133 -4 c130 -3 132
-4 87 -16z m1871 -53 c19 -15 22 -25 17 -46 -7 -29 -61 -94 -70 -85 -16 16
-28 115 -17 142 12 30 19 29 70 -11z m124 -67 c20 -10 37 -26 37 -35 0 -22
-53 -96 -78 -109 -17 -9 -21 -5 -31 28 -6 21 -11 46 -11 55 0 24 28 88 37 84
5 -2 25 -12 46 -23z m-1512 -265 c22 -118 44 -237 50 -264 17 -85 2 -62 -36
56 -54 167 -75 270 -75 379 0 93 12 145 18 77 1 -18 21 -130 43 -248z m1666
190 c21 -14 21 -14 3 -49 -22 -43 -67 -87 -77 -77 -10 10 -10 125 0 150 6 16
9 17 30 4 12 -8 32 -21 44 -28z m-1863 -47 c-10 -83 -33 -140 -70 -173 -51
-45 -57 -37 -18 27 28 47 50 96 79 181 10 27 14 9 9 -35z m672 -117 c36 -42
84 -89 107 -105 37 -25 44 -37 60 -96 10 -37 16 -69 14 -72 -3 -2 -14 9 -26
26 -12 16 -62 62 -111 101 -49 38 -96 80 -104 93 -12 19 -46 166 -46 201 0 6
9 -8 20 -30 12 -23 50 -76 86 -118z m687 -303 c255 -259 310 -346 447 -703 84
-220 185 -591 275 -1015 20 -93 39 -179 42 -190 3 -11 2 -17 -1 -14 -4 4 -24
73 -46 155 -127 486 -297 974 -445 1279 -69 143 -120 212 -310 420 -63 69
-115 132 -115 139 0 24 12 46 25 46 6 0 64 -53 128 -117z m-1233 -58 c43 -155
47 -150 -67 -78 l-73 46 21 31 c11 17 33 57 47 88 14 31 28 55 30 53 3 -2 21
-65 42 -140z m591 98 c41 -25 84 -52 97 -60 26 -16 28 -46 10 -137 -7 -34 -13
-62 -13 -64 -1 -1 -17 3 -35 10 -53 18 -130 69 -131 87 -1 9 -4 60 -8 114 -3
53 -3 97 0 97 3 0 39 -21 80 -47z m-1465 -348 c143 -375 235 -644 345 -1012
54 -183 99 -336 99 -340 0 -4 -36 67 -81 157 -205 417 -330 740 -409 1058 -31
124 -80 394 -80 435 1 29 9 9 126 -298z m1804 74 c0 -39 -7 -98 -16 -132 -16
-64 -62 -163 -70 -154 -3 3 -1 14 4 24 18 33 62 239 62 286 0 26 5 47 10 47 6
0 10 -30 10 -71z m-2812 -78 c254 -173 414 -497 467 -946 14 -124 22 -541 10
-553 -3 -3 -5 9 -5 26 0 100 -102 543 -181 790 -99 304 -181 482 -295 635 -35
48 -61 87 -58 87 3 0 31 -17 62 -39z m2558 -21 c17 0 24 -10 33 -42 18 -67 40
-182 36 -187 -9 -8 -115 169 -130 218 -7 22 -5 23 16 18 13 -4 34 -7 45 -7z
m-305 -190 c80 -21 156 -43 169 -50 12 -7 50 -41 83 -77 74 -78 167 -146 224
-163 58 -18 77 -3 136 103 l48 84 72 -27 c96 -38 228 -64 287 -57 l46 6 16
-52 c12 -39 13 -54 5 -59 -27 -17 -125 -30 -201 -26 -96 4 -126 -10 -201 -95
-43 -47 -45 -52 -26 -58 34 -13 42 -41 31 -116 -12 -88 -13 -83 9 -83 21 0 60
42 94 101 12 21 27 39 32 39 6 0 37 -9 69 -20 91 -31 167 -27 233 11 62 36 62
36 89 -44 15 -47 15 -48 -8 -67 -64 -56 -139 -76 -303 -84 -60 -2 -118 -7
-127 -11 -9 -4 -23 -24 -32 -44 -13 -35 -13 -43 4 -97 10 -33 23 -78 30 -102
9 -36 14 -41 25 -32 8 7 17 27 21 46 3 19 9 36 13 39 4 2 48 -10 97 -28 78
-28 102 -32 195 -32 102 0 108 1 157 32 28 18 53 29 56 25 2 -4 12 -39 22 -79
l18 -72 -24 -26 c-61 -65 -228 -72 -379 -16 -103 38 -116 38 -137 5 -16 -23
-16 -34 -3 -132 l15 -107 23 45 c13 25 25 46 26 48 6 6 70 -31 174 -101 147
-99 200 -121 287 -121 56 -1 76 3 92 17 20 18 20 18 26 0 3 -10 11 -56 17
-102 13 -83 13 -84 -12 -103 -20 -17 -35 -20 -89 -16 -76 6 -146 35 -325 138
-67 38 -129 70 -136 70 -8 0 -24 -15 -36 -34 -20 -31 -21 -42 -16 -147 l6
-112 19 23 c11 13 22 36 25 52 3 15 7 28 10 28 2 0 66 -49 141 -110 229 -183
356 -240 440 -196 17 9 33 16 35 16 6 0 -32 -182 -38 -189 -13 -13 -157 19
-214 47 -43 21 -61 26 -61 17 0 -7 18 -49 40 -92 40 -77 139 -193 165 -193 25
0 24 -45 -2 -117 -14 -40 -27 -73 -29 -73 -13 0 -126 170 -199 300 -156 276
-235 380 -289 380 -33 0 -44 -18 -60 -91 -24 -113 -36 -147 -63 -179 -20 -24
-32 -30 -56 -28 -41 4 -61 40 -93 168 -28 114 -38 134 -72 149 -53 25 -112
-30 -277 -254 -100 -135 -182 -231 -236 -275 l-37 -29 -55 77 c-70 97 -76 112
-48 112 35 0 118 36 160 69 31 24 111 131 98 131 -1 0 -27 -10 -57 -21 -58
-22 -183 -48 -237 -49 -29 0 -34 5 -62 63 -16 34 -33 74 -36 90 l-7 27 80 0
c111 0 167 14 264 65 147 78 370 185 387 185 8 0 37 -21 64 -47 l49 -48 -7 85
c-10 111 -31 168 -74 197 -19 13 -43 23 -54 23 -11 0 -57 -18 -102 -40 -194
-94 -421 -145 -551 -123 -37 7 -70 15 -75 20 -7 7 -39 213 -34 221 1 1 22 -7
46 -18 113 -51 397 -1 612 107 76 38 70 39 139 -26 21 -19 39 -33 41 -30 2 2
-2 36 -9 74 -7 39 -13 83 -13 99 -1 21 -13 39 -47 70 -87 77 -103 80 -196 36
-108 -51 -216 -73 -333 -68 -94 3 -107 6 -183 43 l-81 40 -1 89 c0 80 2 87 18
81 161 -68 372 -82 542 -36 107 29 114 28 182 -31 l60 -52 -7 34 c-15 70 -45
156 -62 180 -85 116 -157 146 -396 160 -151 9 -188 15 -307 53 l-45 14 -9 77
c-5 42 -7 79 -3 82 3 3 18 -1 34 -9 66 -35 150 -49 328 -56 201 -8 231 -16
315 -89 32 -26 42 -31 36 -17 -43 106 -50 136 -36 145 10 6 6 15 -21 36 -19
16 -77 69 -129 119 -66 63 -109 96 -140 107 -25 8 -132 43 -237 77 -119 38
-193 67 -193 75 0 7 -11 40 -25 74 -14 34 -25 66 -25 71 0 5 57 -11 128 -36
70 -24 193 -62 273 -83z m1586 -230 c96 -149 171 -351 228 -615 19 -87 33
-161 31 -162 -5 -5 -137 334 -351 902 -9 24 35 -36 92 -125z m-4185 -368 c81
-120 120 -211 120 -281 0 -67 -9 -87 -64 -147 -21 -23 -43 -56 -48 -72 -15
-55 25 -169 86 -241 14 -18 24 -34 21 -37 -3 -3 -38 11 -77 32 -98 51 -174
136 -239 266 -28 56 -48 105 -45 109 3 5 22 9 42 9 46 0 117 32 131 58 18 35
12 98 -18 189 -32 97 -47 210 -36 274 l7 41 35 -63 c19 -34 57 -96 85 -137z
m4747 13 c122 -314 118 -628 -14 -1108 -21 -75 -39 -136 -41 -135 -1 2 4 91
12 198 30 410 29 1038 -3 1128 -4 11 -3 14 4 7 6 -5 25 -46 42 -90z m-3542
-171 c13 -82 18 -166 17 -344 0 -206 -3 -248 -23 -340 -39 -182 -96 -333 -198
-523 -24 -45 -42 -71 -39 -57 173 769 216 1015 216 1252 0 72 2 129 5 127 2
-3 12 -54 22 -115z m-825 -310 c162 -173 275 -469 313 -814 l7 -55 -88 160
c-101 184 -183 368 -213 476 -27 95 -69 279 -65 279 2 0 23 -21 46 -46z m1540
-634 c222 -434 748 -1115 1272 -1647 98 -101 110 -126 18 -40 -31 29 -147 130
-257 223 -327 277 -506 456 -655 655 -195 261 -331 527 -406 797 -12 45 -26
92 -30 105 -11 37 2 17 58 -93z m3142 -274 c-21 -104 -55 -194 -104 -276 -42
-72 -130 -188 -130 -173 0 37 80 288 138 433 38 96 78 202 88 235 l19 60 3
-99 c2 -63 -3 -128 -14 -180z m-4728 -122 c85 -60 183 -169 221 -247 34 -66
56 -149 68 -247 l7 -55 -53 85 c-75 120 -302 420 -390 515 l-74 79 80 -43 c44
-24 108 -63 141 -87z m2947 -240 c21 -14 37 -28 34 -30 -8 -8 -280 17 -299 27
-40 22 -14 29 105 29 115 0 125 -2 160 -26z m1328 -321 c15 -248 6 -356 -34
-420 -29 -46 -168 -196 -175 -189 -3 3 0 11 5 18 15 19 84 195 99 253 8 28 18
88 23 135 5 47 20 180 33 295 26 242 28 238 49 -92z m-2760 -177 c162 -119
319 -235 349 -259 31 -23 67 -50 80 -60 48 -34 -343 165 -431 219 -191 118
-427 337 -589 547 -7 10 56 -37 142 -106 85 -68 288 -221 449 -341z m1430 357
l47 -21 7 -106 c4 -59 5 -109 2 -112 -3 -3 -16 0 -29 7 -15 9 -65 14 -150 14
l-128 0 0 102 c0 99 1 102 28 123 24 19 36 22 102 18 46 -3 93 -13 121 -25z
m894 -278 c-29 -214 -100 -400 -203 -536 -54 -71 -189 -199 -210 -199 -7 0 9
33 36 73 74 109 169 278 232 412 58 123 133 306 146 360 15 61 15 3 -1 -110z
m-844 -35 c17 -10 19 -23 19 -160 0 -83 -3 -150 -6 -150 -15 0 -324 268 -324
280 0 4 15 15 33 24 38 18 246 23 278 6z"/>
<path d="M2575 7051 c-44 -21 -98 -53 -119 -72 -75 -66 -104 -172 -71 -264 18
-49 19 -99 3 -113 -7 -5 -37 -15 -66 -21 -86 -18 -197 -69 -247 -113 -60 -53
-96 -125 -103 -204 -5 -71 10 -110 83 -212 34 -48 45 -72 45 -101 0 -57 -53
-135 -140 -206 -98 -80 -136 -131 -150 -200 -19 -89 0 -146 69 -216 110 -109
201 -139 201 -66 0 19 -7 55 -16 81 -23 67 -14 148 23 199 42 60 116 97 228
113 120 18 189 44 262 98 105 77 162 181 163 294 0 84 -14 88 -86 23 -72 -66
-173 -138 -212 -152 -22 -7 -37 -7 -52 1 -20 11 -21 16 -14 96 l7 85 -31 32
c-17 18 -34 44 -37 59 -18 72 61 166 162 193 84 22 124 45 151 85 36 52 27
105 -30 178 -61 78 -71 99 -65 141 6 45 65 171 111 238 31 45 36 64 17 63 -3
0 -42 -18 -86 -39z"/>
<path d="M3244 6221 c-98 -47 -134 -99 -134 -192 0 -96 35 -115 93 -49 25 27
43 61 57 112 12 40 28 91 36 112 7 22 12 41 11 42 -2 2 -30 -9 -63 -25z"/>
<path d="M5783 7261 c-80 -39 -123 -73 -72 -57 54 17 119 29 125 24 3 -4 -12
-22 -33 -42 -22 -19 -52 -59 -69 -88 -26 -47 -29 -63 -29 -138 0 -63 5 -94 19
-120 47 -88 118 -133 213 -134 57 0 61 -1 48 -16 -23 -25 -99 -60 -131 -60
-22 0 -26 -3 -14 -10 41 -26 245 3 339 48 65 32 115 88 137 155 20 60 34 47
34 -33 0 -61 -25 -125 -61 -159 -30 -27 -6 -28 39 -1 56 34 73 74 70 161 l-3
76 60 19 c75 24 105 62 105 135 0 52 -15 64 -29 27 -17 -44 -59 -73 -104 -73
-61 0 -119 33 -231 130 -55 48 -119 100 -143 116 -55 38 -142 79 -169 79 -11
0 -56 -18 -101 -39z"/>
<path d="M5411 6808 c-1 -13 23 -63 51 -105 19 -29 41 -46 72 -58 59 -22 80
-9 27 17 -37 18 -111 90 -138 134 -6 10 -12 16 -12 12z"/>
<path d="M6397 6468 c-117 -124 -130 -163 -71 -228 38 -42 54 -50 54 -26 0 7
7 20 17 27 9 8 24 31 33 52 13 29 19 34 24 22 10 -27 7 -57 -13 -112 -10 -29
-15 -53 -11 -53 13 0 61 69 85 123 13 28 31 96 40 150 20 112 15 127 -43 127
-33 0 -45 -9 -115 -82z"/>
<path d="M8094 6386 c-10 -7 -57 -28 -104 -46 -116 -44 -159 -67 -198 -104
-43 -39 -57 -67 -71 -137 -16 -77 -45 -102 -146 -128 -234 -59 -282 -104 -309
-283 -28 -187 -70 -229 -258 -262 -127 -22 -177 -47 -238 -119 -28 -33 -60
-77 -70 -97 -29 -57 -51 -146 -48 -192 l3 -43 24 40 c58 96 120 132 250 146
47 5 87 9 87 9 1 0 4 19 7 42 4 28 15 51 36 72 29 29 35 30 139 36 139 8 179
28 231 114 51 84 100 108 235 116 111 7 154 21 210 70 30 27 66 77 66 93 0 2
-31 3 -69 3 -55 -1 -75 3 -97 20 -43 32 -64 66 -66 107 -2 55 26 84 129 136
109 55 145 87 185 165 27 54 100 248 94 253 -1 1 -11 -3 -22 -11z"/>
<path d="M8220 3320 c-24 -21 -67 -51 -95 -66 -148 -79 -174 -107 -200 -215
-8 -35 -23 -90 -32 -122 -9 -31 -14 -60 -10 -63 8 -9 45 14 117 71 36 29 86
64 112 79 98 57 141 137 172 319 9 48 -6 48 -64 -3z"/>
</g>
</svg>