<?xml version="1.0" standalone="no"?>
<!DOCTYPE svg PUBLIC "-//W3C//DTD SVG 20010904//EN"
 "http://www.w3.org/TR/2001/REC-SVG-20010904/DTD/svg10.dtd">
<svg version="1.0" xmlns="http://www.w3.org/2000/svg"
 width="250.000000pt" height="300.000000pt" viewBox="0 0 300.000000 300.000000"
 preserveAspectRatio="xMidYMid meet">

<style>
    @keyframes colorShift {
      0%, 100% { fill:#4f0000; }
      50% { fill:rgb(211, 0, 0); }
    }
    .color {
      animation: colorShift 5s infinite ease-in-out;
    }
</style>

<g transform="translate(0.000000,300.000000) scale(0.100000,-0.100000)"
fill="#4f0000" stroke="none">
<path d="M1295 2856 c-253 -66 -407 -194 -467 -389 -23 -78 -22 -186 4 -247
l15 -35 1 72 c2 150 60 346 118 394 10 8 5 -8 -14 -41 -46 -81 -65 -168 -60
-270 5 -99 28 -160 93 -247 42 -55 50 -77 23 -56 -7 5 -34 17 -60 27 -124 46
-208 245 -181 430 12 82 51 177 90 218 15 15 24 30 21 33 -11 12 -81 -82 -118
-160 -109 -223 -89 -459 52 -611 37 -40 144 -104 175 -104 7 0 31 -18 53 -40
22 -22 40 -38 40 -35 0 22 -55 106 -83 128 -33 25 -74 93 -64 104 7 6 110 -45
119 -60 4 -7 8 -29 8 -50 0 -45 23 -103 53 -135 27 -29 77 -56 85 -46 4 4 1 9
-6 11 -44 16 -102 91 -102 132 0 38 22 34 59 -10 l36 -43 5 34 c5 32 1 38 -39
67 -24 17 -57 52 -72 76 -15 25 -33 48 -38 52 -18 11 -12 122 10 187 42 125
121 215 242 273 291 142 632 -37 679 -355 l10 -70 -48 -72 c-63 -91 -124 -128
-223 -136 -54 -3 -77 0 -114 16 -45 20 -49 26 -60 87 -2 14 -5 11 -8 -11 -8
-48 8 -91 44 -116 26 -19 45 -23 104 -23 45 0 68 -4 63 -9 -6 -6 -38 -10 -72
-10 -106 1 -158 42 -158 125 0 40 7 56 46 110 65 87 88 142 81 193 l-6 41 34
-37 c19 -20 37 -49 41 -63 9 -38 -14 -85 -51 -101 -45 -18 -57 -37 -53 -81 3
-34 6 -38 34 -41 18 -2 36 3 43 12 10 12 7 14 -21 13 -30 -2 -33 1 -36 30 -3
30 0 34 53 58 86 41 111 113 59 174 l-26 31 37 0 c25 0 43 7 60 25 29 28 32
53 10 81 -15 18 -15 18 -9 -9 15 -66 -60 -87 -137 -39 -97 62 -152 67 -206 18
-21 -18 -51 -38 -68 -43 l-30 -10 33 -7 c28 -7 38 -3 67 23 68 59 106 55 199
-24 43 -36 68 -67 76 -91 7 -19 10 -38 7 -40 -3 -3 -10 10 -17 30 -7 22 -34
55 -75 90 -50 45 -70 56 -97 56 -44 0 -51 -7 -33 -34 22 -31 18 -86 -9 -127
-23 -34 -39 -46 -158 -123 -97 -63 -138 -138 -138 -250 1 -71 28 -147 80 -219
90 -125 102 -149 97 -204 -7 -91 -78 -166 -204 -213 -303 -113 -589 64 -684
425 -17 61 -22 111 -23 215 0 74 3 149 7 165 7 25 6 28 -5 17 -18 -18 -24
-273 -9 -355 49 -257 189 -454 367 -518 149 -54 381 -4 504 107 47 43 90 125
90 173 -1 48 -26 100 -93 194 -84 116 -106 217 -72 318 21 60 56 96 156 161
95 62 112 79 134 130 11 27 12 44 5 63 -5 14 -6 25 -1 25 24 0 28 -77 6 -124
-8 -17 -53 -69 -100 -115 -92 -91 -115 -136 -115 -223 0 -71 27 -115 131 -209
111 -102 133 -140 133 -229 0 -84 -27 -136 -128 -249 -74 -83 -136 -182 -136
-217 0 -11 12 6 26 36 19 42 58 87 168 195 86 85 150 156 161 180 42 91 25
206 -41 284 -21 24 -74 67 -119 96 -94 60 -126 99 -132 160 -8 65 12 109 78
173 102 98 126 157 90 226 -24 47 -20 60 6 20 23 -36 22 -107 -2 -154 -10 -19
-41 -59 -70 -90 -63 -67 -75 -87 -77 -139 -4 -122 158 -170 312 -92 36 18 79
46 97 63 54 52 74 4 28 -65 -34 -49 -95 -80 -163 -81 -41 0 -47 -2 -30 -9 46
-17 143 9 192 52 28 25 56 86 60 136 3 25 8 49 11 55 8 14 106 63 112 56 10
-9 -29 -75 -63 -105 -18 -17 -45 -53 -58 -79 -31 -61 -70 -97 -125 -117 -55
-19 -101 -19 -176 1 -57 14 -86 28 -148 69 -15 9 -27 15 -27 12 0 -3 31 -26
69 -51 135 -90 262 -94 361 -12 14 12 67 43 118 70 50 27 109 64 129 83 l38
34 -46 -30 c-25 -16 -70 -39 -99 -50 -29 -11 -67 -33 -83 -48 -17 -15 -26 -21
-22 -13 20 37 56 64 131 100 122 59 193 147 229 287 42 160 -8 375 -122 524
-51 68 -63 62 -14 -7 59 -82 76 -140 76 -259 0 -122 -19 -189 -78 -277 -35
-53 -52 -68 -107 -95 -36 -18 -69 -33 -73 -33 -4 0 10 24 32 53 116 153 133
339 46 511 -41 81 -30 88 13 8 45 -84 72 -192 79 -312 l7 -105 17 55 c48 149
0 309 -132 442 -52 53 -87 78 -161 113 -95 46 -241 85 -322 85 -50 0 -40 -11
16 -17 207 -22 359 -116 428 -266 43 -91 55 -185 39 -313 -6 -57 -15 -104 -19
-104 -4 0 -10 23 -13 50 -7 57 -53 150 -103 209 -77 90 -225 163 -356 177
-252 26 -521 -169 -557 -403 -7 -45 -8 -46 -14 -18 -49 226 -14 398 108 519
80 81 182 125 355 154 l55 9 -55 1 c-30 1 -95 -10 -145 -22z m-550 -573 c15
-84 118 -241 150 -230 7 3 16 -12 23 -38 6 -24 26 -61 44 -81 51 -58 2 -26
-59 39 -61 64 -115 146 -143 217 -25 64 -40 130 -30 130 4 0 11 -17 15 -37z
m1516 -30 c-22 -87 -89 -199 -170 -286 -56 -60 -102 -88 -53 -33 18 20 38 57
44 81 7 25 16 41 23 39 31 -12 135 150 152 236 3 19 8 29 11 22 2 -7 -1 -34
-7 -59z m-767 -378 c8 -19 30 -44 48 -55 20 -12 27 -20 16 -20 -17 0 -78 55
-78 70 0 5 -3 15 -6 24 -12 32 6 15 20 -19z m-61 -152 c11 -12 50 -34 88 -49
37 -15 83 -40 102 -55 51 -42 87 -120 87 -188 0 -63 -8 -101 -21 -101 -5 0 -4
12 1 26 26 68 -2 173 -58 212 -42 30 -47 27 -19 -10 31 -42 47 -91 46 -137 -1
-32 -2 -30 -13 19 -16 79 -57 142 -118 186 -97 69 -149 127 -148 166 1 7 8 0
17 -17 8 -16 25 -40 36 -52z"/>
<path d="M1514 2514 c7 -18 -19 -54 -40 -54 -7 0 -15 6 -17 13 -4 9 -6 9 -6 0
-1 -7 -19 -22 -41 -33 -22 -11 -46 -33 -55 -50 -23 -44 1 -49 36 -7 19 23 47
41 79 52 28 9 55 25 61 36 11 22 3 59 -13 59 -5 0 -7 -7 -4 -16z"/>
<path d="M1638 2503 c-9 -38 -30 -51 -116 -69 -36 -8 -69 -17 -73 -21 -5 -5
29 -9 74 -11 45 -1 104 -4 130 -5 38 -1 52 2 63 18 16 22 19 65 4 65 -5 0 -10
-11 -10 -25 0 -28 -39 -50 -71 -40 -17 6 -17 8 -3 30 8 13 14 38 12 57 l-3 33
-7 -32z"/>
<path class="color" d="M1440 2355 c-7 -8 -16 -12 -21 -9 -5 3 -9 0 -9 -5 0 -17 15 -13 35 9
10 11 16 20 13 20 -3 0 -11 -7 -18 -15z"/>
<path d="M650 2374 c-30 -89 -25 -189 14 -267 26 -55 104 -152 114 -143 2 3
-10 22 -28 43 -84 95 -118 238 -86 362 22 86 14 89 -14 5z"/>
<path d="M2325 2401 c46 -135 19 -285 -72 -390 -50 -59 -35 -62 17 -4 59 66
92 141 98 223 5 71 -14 158 -42 195 -14 18 -14 16 -1 -24z"/>
<path d="M564 2368 c-11 -32 -19 -83 -19 -128 0 -132 51 -237 175 -360 84 -82
159 -123 221 -118 l44 3 -49 24 c-31 15 -92 67 -161 135 -86 86 -118 125 -142
176 -42 89 -56 158 -51 246 3 41 4 74 2 74 -1 0 -10 -24 -20 -52z"/>
<path d="M2410 2401 c27 -51 5 -212 -42 -306 -50 -100 -209 -259 -307 -307
l-46 -23 44 -3 c106 -8 279 135 358 295 36 73 38 82 38 172 0 96 -23 191 -46
191 -6 0 -6 -8 1 -19z"/>
<path d="M1395 2370 c-32 -33 -33 -51 -2 -22 13 12 43 28 68 36 l44 13 -43 -1
c-32 -1 -49 -7 -67 -26z"/>
<path d="M1292 2307 c-17 -18 -32 -41 -33 -52 -4 -34 1 -55 11 -55 5 0 7 6 4
14 -3 8 0 17 5 21 6 3 9 11 6 16 -5 8 41 43 70 52 10 4 -12 37 -24 37 -4 0
-21 -15 -39 -33z"/>
<path d="M1333 2277 c-17 -7 -35 -16 -40 -21 -5 -5 0 -6 12 -2 11 5 37 10 57
13 21 3 35 9 32 14 -7 11 -21 10 -61 -4z"/>
<path d="M501 2139 c-1 -69 31 -198 63 -253 32 -55 110 -127 168 -154 81 -40
154 -48 242 -27 42 10 76 21 76 24 0 3 -37 6 -83 6 -74 0 -89 4 -157 36 -89
43 -155 99 -215 184 -53 74 -72 116 -84 187 l-9 53 -1 -56z"/>
<path d="M2478 2127 c-2 -38 -12 -79 -26 -105 -25 -48 -27 -56 -11 -46 6 3 3
-8 -5 -25 -9 -17 -19 -31 -22 -31 -2 0 0 9 6 21 23 42 2 28 -42 -29 -88 -113
-247 -190 -369 -179 -32 3 -59 2 -59 -2 0 -4 24 -14 53 -21 201 -54 406 55
467 250 24 75 38 214 23 223 -7 4 -12 -17 -15 -56z"/>
<path d="M1440 2057 c-100 -74 -130 -118 -129 -192 l1 -50 12 50 c23 91 34
106 181 229 52 44 23 27 -65 -37z"/>
<path d="M2521 1948 c12 -61 11 -241 -2 -318 -46 -289 -241 -522 -476 -570
-31 -7 -100 -10 -154 -8 -83 3 -105 8 -155 33 -71 37 -84 68 -54 129 11 22 18
41 16 43 -1 1 -25 -24 -51 -57 -100 -120 -99 -186 5 -310 76 -92 98 -160 64
-194 -8 -9 -11 -16 -5 -16 17 0 41 43 41 73 0 41 -22 85 -72 147 -84 103 -97
156 -56 233 l23 42 3 -30 c9 -74 89 -124 282 -175 176 -47 228 -69 281 -120
53 -51 69 -99 51 -153 l-11 -32 3 35 c7 70 -36 149 -99 182 -15 8 -13 4 7 -18
32 -34 58 -93 58 -129 0 -91 -92 -184 -199 -201 -23 -4 -41 -11 -41 -16 0 -21
151 22 212 61 158 100 136 307 -39 365 -26 8 -110 27 -187 41 -143 26 -228 58
-262 97 l-19 22 31 -22 c40 -28 127 -50 225 -58 202 -17 409 122 518 348 65
136 86 228 86 393 0 133 -10 225 -24 225 -5 0 -5 -19 0 -42z"/>
<path d="M850 1899 c19 -17 64 -46 100 -64 36 -18 89 -51 116 -73 63 -49 110
-74 132 -69 11 2 1 11 -31 26 -26 13 -56 35 -67 49 -11 13 -20 22 -20 18 0 -4
-15 4 -32 17 -18 14 -67 40 -108 59 -41 19 -81 42 -89 51 -7 9 -19 17 -25 17
-6 -1 5 -14 24 -31z"/>
<path d="M570 1807 c0 -29 29 -79 73 -125 53 -54 126 -82 210 -81 l62 1 -55 9
c-109 19 -227 96 -270 178 -12 23 -19 30 -20 18z"/>
<path d="M2415 1787 c-40 -85 -157 -158 -285 -176 l-55 -9 66 -1 c87 -1 159
23 214 71 44 39 90 117 83 140 -3 7 -13 -4 -23 -25z"/>
<path d="M1275 1789 c20 -66 49 -111 119 -188 100 -108 120 -147 120 -231 0
-78 -24 -129 -120 -262 -80 -112 -106 -179 -107 -278 -1 -91 12 -135 69 -221
53 -81 67 -115 59 -150 -13 -57 -70 -77 -90 -31 -11 25 -25 29 -25 7 0 -27 48
-67 70 -60 11 4 20 2 20 -4 0 -6 -6 -11 -14 -11 -43 0 -30 -104 22 -162 22
-26 30 -14 25 39 -4 37 1 63 21 110 14 35 26 79 26 100 l-1 38 -17 -49 c-9
-27 -22 -51 -29 -54 -8 -2 -7 7 4 28 25 50 13 117 -36 201 -23 40 -48 92 -56
116 -21 61 -19 153 5 224 24 71 35 89 109 184 74 96 101 156 101 228 0 32 -7
73 -15 92 -8 20 -57 80 -109 134 -89 93 -136 161 -136 195 0 8 -5 18 -11 22
-8 4 -9 -1 -4 -17z m134 -1579 l12 -25 -20 25 c-21 26 -32 65 -22 76 3 3 9 -7
12 -23 3 -15 11 -39 18 -53z"/>
<path d="M985 1688 c-46 -13 -88 -17 -123 -14 -65 6 -59 -9 9 -23 63 -14 110
-6 167 26 67 39 57 41 -53 11z"/>
<path d="M1949 1684 c61 -37 113 -47 177 -34 69 14 80 31 16 23 -33 -4 -75 1
-132 16 -108 27 -114 26 -61 -5z"/>
<path d="M590 1692 c0 -17 59 -90 94 -117 44 -34 143 -65 205 -65 64 0 143 25
181 57 36 29 76 101 63 114 -4 4 -33 -8 -63 -27 -145 -92 -346 -88 -442 8 -21
21 -38 34 -38 30z"/>
<path d="M1862 1681 c-11 -7 -9 -16 11 -48 65 -103 176 -142 319 -112 29 6 70
20 92 31 43 22 126 103 126 123 0 8 -12 2 -28 -14 -40 -41 -132 -72 -216 -74
-87 -2 -163 20 -234 68 -30 19 -54 35 -55 35 -1 0 -8 -4 -15 -9z"/>
<path d="M1813 1633 c11 -68 86 -141 153 -148 l39 -5 -33 12 c-45 15 -110 81
-133 134 -24 54 -34 56 -26 7z"/>
<path d="M1152 1616 c-26 -54 -78 -106 -124 -122 -27 -10 -29 -13 -10 -13 58
-2 139 62 161 128 22 67 5 71 -27 7z"/>
<path d="M1760 1638 c0 -34 41 -125 68 -150 35 -33 58 -44 107 -52 l40 -7 -31
28 c-17 15 -52 45 -78 67 -26 21 -60 59 -76 85 -17 26 -30 39 -30 29z"/>
<path d="M1196 1591 c-17 -29 -55 -69 -98 -101 -38 -29 -67 -54 -65 -57 8 -7
98 17 122 33 35 23 103 174 78 174 -5 0 -21 -22 -37 -49z"/>
<path d="M1721 1609 c-2 -16 69 -156 86 -172 21 -19 83 -40 82 -29 0 4 -19 21
-42 37 -23 17 -56 55 -74 85 -43 74 -52 86 -52 79z"/>
<path d="M1234 1532 c-21 -40 -47 -69 -85 -96 l-54 -38 37 5 c20 3 47 13 61
21 32 21 79 110 75 141 -3 21 -7 16 -34 -33z"/>
<path d="M1255 1435 c-22 -47 -38 -85 -35 -85 3 0 23 14 44 32 49 40 71 90 54
118 -7 11 -15 20 -18 20 -3 0 -23 -38 -45 -85z"/>
<path d="M2172 1424 c-17 -89 -53 -162 -110 -222 -72 -76 -119 -97 -224 -97
-97 0 -103 -14 -10 -22 184 -17 333 131 366 365 10 68 -8 48 -22 -24z"/>
<path d="M830 1460 c0 -7 30 -42 68 -79 78 -79 140 -106 238 -104 103 1 205
64 229 141 9 32 -8 27 -23 -7 -17 -39 -89 -86 -153 -101 -109 -26 -209 8 -301
103 -32 33 -58 54 -58 47z"/>
<path d="M1755 1405 c-4 -27 -14 -65 -22 -83 -8 -19 -9 -31 -4 -27 15 9 43
110 39 137 -3 15 -7 5 -13 -27z"/>
<path d="M1446 1330 c-28 -123 -130 -205 -381 -310 -126 -52 -174 -80 -213
-124 -58 -66 -50 -158 17 -203 35 -24 94 -30 121 -13 11 7 4 10 -27 10 -50 0
-98 36 -108 80 -7 31 35 140 53 140 5 0 0 -18 -11 -41 -17 -35 -18 -46 -8 -79
6 -22 21 -46 34 -55 33 -23 39 -18 12 10 -20 19 -25 34 -25 72 0 92 47 137
220 213 135 59 195 97 250 156 47 51 83 124 78 157 -3 17 -6 15 -12 -13z"/>
<path d="M589 1253 c48 -68 182 -173 220 -173 9 0 -13 17 -48 38 -35 20 -90
65 -122 100 -61 65 -84 81 -50 35z"/>
<path d="M2356 1175 c-73 -69 -199 -140 -267 -151 -22 -4 -39 -10 -39 -14 0
-10 67 5 131 30 60 24 126 68 187 124 36 33 71 77 60 76 -2 -1 -34 -30 -72
-65z"/>
<path d="M1524 1075 c-52 -90 -43 -161 32 -244 44 -50 53 -92 25 -120 -20 -20
-21 -21 -1 -21 11 0 27 11 36 25 21 33 9 66 -50 140 -41 49 -46 61 -46 105 0
28 9 73 20 102 11 28 18 54 16 56 -2 2 -17 -18 -32 -43z"/>
<path d="M1157 1099 c-10 -6 -68 -21 -130 -34 -62 -13 -132 -31 -156 -39 -24
-9 -56 -16 -71 -16 -34 0 -80 35 -80 61 0 10 -5 19 -11 19 -20 0 0 -64 28 -88
19 -18 35 -23 60 -20 38 5 43 -3 11 -17 -38 -17 -68 -72 -68 -127 0 -45 25
-116 37 -105 2 3 0 14 -6 25 -30 56 0 138 68 188 44 32 71 44 258 114 46 17
85 36 88 41 8 12 -5 11 -28 -2z"/>
<path d="M1249 1056 c-140 -116 -197 -200 -220 -321 -28 -150 52 -285 169
-285 47 0 92 31 92 63 -1 20 -2 20 -16 -5 -28 -53 -119 -30 -169 42 -53 77
-52 206 3 318 25 52 126 166 186 211 16 12 27 23 24 26 -2 3 -33 -19 -69 -49z"/>
<path d="M1632 1070 c9 -28 101 -78 202 -110 183 -59 244 -103 253 -184 5 -43
3 -48 -35 -86 -44 -44 -39 -51 17 -19 44 25 81 76 81 113 0 81 -71 129 -268
180 -125 33 -176 54 -221 92 -19 16 -32 22 -29 14z"/>
<path d="M1466 1037 c-61 -80 -90 -198 -66 -273 21 -66 52 -104 121 -144 36
-22 82 -58 103 -80 46 -51 48 -101 4 -133 -47 -35 -68 -16 -143 137 -37 75
-71 136 -76 136 -5 0 0 -18 11 -40 25 -49 96 -296 105 -366 7 -53 -11 -174
-26 -174 -4 0 -13 25 -20 56 -10 45 -10 73 0 146 7 49 11 92 8 94 -2 3 -15
-20 -27 -51 -17 -42 -21 -68 -18 -108 5 -52 44 -167 56 -167 16 0 52 113 52
163 1 41 3 48 11 34 6 -10 8 -32 5 -50 -3 -18 -3 -26 0 -19 3 6 10 10 15 7 5
-3 18 9 29 27 16 24 20 44 17 76 -3 31 -1 42 9 42 23 0 54 38 55 68 l0 27 12
-24 c9 -18 8 -33 -5 -67 -18 -52 -7 -59 16 -10 33 70 11 161 -58 229 -19 20
-67 54 -105 76 -41 24 -78 54 -90 74 -48 78 -45 181 8 288 16 32 28 59 26 59
-2 0 -15 -15 -29 -33z m114 -702 c0 -14 -4 -25 -10 -25 -5 0 -10 4 -10 9 0 5
-3 16 -6 25 -4 11 -1 16 10 16 10 0 16 -9 16 -25z"/>
<path d="M1209 978 c-75 -90 -109 -167 -109 -246 0 -77 21 -127 64 -153 38
-23 64 -24 94 -3 27 19 30 39 3 22 -16 -10 -27 -9 -55 5 -49 23 -70 68 -70
147 -1 79 28 148 97 233 26 31 43 57 37 57 -5 0 -33 -28 -61 -62z"/>
<path d="M1638 1004 c11 -21 50 -58 136 -128 53 -43 86 -90 86 -122 0 -29 -35
-72 -63 -77 -17 -3 -14 -5 9 -6 67 -3 97 82 52 149 -13 19 -48 53 -78 77 -30
24 -77 62 -104 85 -30 26 -45 34 -38 22z"/>
<path d="M1690 985 c0 -2 40 -31 89 -65 124 -85 161 -142 161 -250 0 -82 -38
-154 -108 -199 -65 -44 -60 -52 9 -14 92 49 136 136 126 246 -6 67 -42 134
-90 171 -37 28 -187 117 -187 111z"/>
<path d="M1243 923 c-24 -57 -29 -144 -9 -179 l17 -29 -8 35 c-11 50 -7 118
11 168 19 52 11 56 -11 5z"/>
<path d="M1901 727 c-2 -59 -54 -126 -98 -127 -13 0 -23 -4 -23 -10 0 -17 53
-11 87 10 38 23 60 86 44 128 l-9 27 -1 -28z"/>
</g>
</svg>
