<svg xmlns="http://www.w3.org/2000/svg" data-asc=".9" viewBox="0 131 2831 523"><path d="M135 465h-1l-1-1-4-2-5-2h-1q1-1 0-1H120l-7-3v-1l-8-5v-1q-4-2-10-9-4-3-5-9-2 0-3-3v-3l-3-5-2-2h-1v-2l1-1H80l-2-17h-3l-1-2H70l-5-2 2 1 1 2-3 1h-1l-2-1v1l-1-1-16-9-5-3h-1l-4-5-4-5q0-4 3-8h4l2-1 1 1h1l3 3 3 3 13 9 13 6 1 2h1v-1l2 1 2-5 2-9q2 6 1 10l1 3v4q0 2 2 2v-1l3 1 3 1 3 2 6 2 6 3q-1 0 0 0h2l18 7 2 1h1l4 1 2 1h5l3 3v-1h3l3 2 1-1 1 1 2 1 7 2 3 1 3-1q0 2 5 2h2l2 1 3-1q-1 1 2 1h2q2 0 3-3l6-7 8-12 4-5 5-6v-1l4-6 4-8v3q3-1 2-3h1l-1 5q-4 6-5 5v5l-3 3q-2 1-1 3l-3 3-6 11-6 6v1l10-9v-5q4-1 7-5l4-8q3-3 5-9h3v-3l2-5 3-6 2-2v-7l1 1 4-5-2-1h-1L230 350l4-4 1-3V340l2-1 2-3 5-13 9-17h1l2-6v-2h1l4-7 4-10 3 1v2l-1 3v1l1-1v-3q4 0 4-5h1v-4q2 0 3-2l-5-1v-4l1-3q0-1 0 0l4-5 2-4 1-3 4-10q3-3 4-8l2-1 1-4 6-8q1-2 0-2 5-3 6-10l3-3v-3h1l3-4 3-3-2-2h-3q-1 0 0 0h-8l-1-1-1-1h-1l-3-1h-1l-8-2h-2l-4-1-5-2v1h-1l-2-2h-3l-14-4q-3 1-4 0h-3q-3-2-7-2h-3l-2-1H230l-6-2h-2q-1-2-3 0l-1-2-1 1h-2q-2-2-6-2l-1 1-1-1-1 1h-1v-1h-1l-5-2-1 1-2-1h-3q-2-2-6-2l-4-1-2 1-3-1-2-1-10-2H160l-6-1q1-1 0-1H150l-2 1v-1h-2v1l-8-2h-17L120 160h-4q2 0-3-2v2h-6l-2-1-2 1-1-1-2-1q-1 2-2 1l-6-1v1l-1-1-4 2H72l-1-1v1H70l-2 1-2 1h-1l-1-1-18 3v1h-1l-2-1h-1l-3 2h-6q-4 3-7 3h-2l-2 1-6 6-3 3-7 8v5l-1 4v8q0 5 2 9l2 4 3 4v4l2 1v3h1v2l4 5 3 3 3 6 1-1v2l3 3 10 9 1 3q5 7 9 6v3l7 5 10 8h3l2 2q4 6 8 6l7 3 5 4 5 2h1q0 4 3 3 2-2 3 1v-1l3 3 4 2-3 1-3-1h-6l-4-4-3-1-3-2-1 1-9-5-1-3-6-1-8-5-8-5-2 1v-1L50 280l-3-3-1 1-2-2q-1-4-4-3V270l-2 1-1-2h-2l-4-2-4-6-4-3-1-4-5-3-1-3-1-3-2-2v-1l-1-3q-2 0-5-7-1-1-1 0v-4l-1-1-3-6-1-7-1-3V210l1-2V200l6-16q2-7 7-11 4-2 10-9h3l5-3 4-2 1-2 12-5H50l2-1 3-2v1h1q2 0 2-2h-1 1l5-1 8-2 6-1 1 1h3v-2h14l1 2 1-2h6l1 2h1l2-1 2-1 2 1 2 1h1v-1h2l1-1 3 1 3 1 1-2 3 1v-1q3 3 9 3h10l15 3h1q10 4 14 4h8l1 4v-2l6 3q1 0 0 0h-4l-1-1H180q-1 0 0 0h-3l-7-1h-1l-1 2-4-1v1l1 2 1-2 2 1q1 0 0 0l6 1h3q-1 0 0 1h3l6 2 7 2q12 0 13 3h5l4 2h9l5 2 4 1h3l1 1h2l7 1h2v1q1 1 2 0h2l2 1 6 2 6 1 2 2 1-1h2l3 1 3 1q-1-1 0-1h1l1 1 4 1 3 1h4l1 2h5l8 2v2h10l3-3 6-9v-1q2-1 6-8h1l2-3q4-1 5-5l3-7 1 1 3-2q-1 0 0 0 1-5 7-9l6-5 2-2h1l4-4 5-3 3 2 3 3v3l1 3-11 8-9 10-1-1v-2l2-3v-1q-6 3-4 3l-1-2-7 8-5 8-2 4-3 4-1 4-8 12 4 1 4 1 2 1h5l4 1q0 2 2 2h2l6 1 2 1 4 1h4l3 2h5l2 1h2l4 1h1l4 1h12l1 1 2-1 1 1h1v-1h2l4 2v-1H420l3-2h4l3-1q6-1 6-3v1l4-2 6-6h1l3-2 1-4h1q0-3 2-5l2 4v6q-3 4-3 9v-1q-2 3-5 4l-3 3h-1l-1 1q-8 0-8 3l-2-1H430l-1 1h-4l-4 1h-2l-5-1-3 1H410l-3-1-4 1-1-1-1 1H400l-7-1-8-2-1 1-2 1v-1q-6-3-10-3H370v1l-8-3h-6v-2l-1 1-8-2h-2l-2-2h-1l-2 1-3-2v1h-1l-1-1h-1l-3-2-1 1-6-1-8 15-5 10-6 11v3q-2 0-3 4l-1 2-4 9-4 7-1 6-9 16v3l-1 4-5 6-6 16-8 16v3l-2 1-10 24-1 5-3 4-3 6-7 13-9 16-2 3-3 4-2 4-3 5-6 6q0 2-4 5l1 1h5l2 1 3 1h1l3-1 13-1h4l4-1 2 2v2l-4 1H240V430l-9 1h-27l-2 1-9 9-5 3-14 10-5 2-5 4h-6l-3 1h-1q-5 0-13 4 0-2-2-2l-2 1-2 1M199 160l-6-2h-1l2-2 5 2 2 2h-2m3 0-1-2h1l1 3h-1m-83 153-1-1-2-2 4 1-1 2m10 138h6q4 0 12-4l19-8q0-2 2-3l5-4 6-6-1-1v1h-3l-1-2-1 1h-4l-11-4h-4l-2-1h-1l-3-1-4-1q-9 0-13-4h-3l-3-1h-1l-3-1-2-1h-4l-2-2q-1 0 0 1h-1l-3-2h-2l-3-1-6-2h-2l-7-3h-2q2-1-3-3 0 5 3 11v1q0 3 3 6l-1 3 2 1-1 1 6 9 1 3 8 7h2v3l2-1 3 3v-1l2 1 2 1h2l1 2h2l1 1h3l4 1Zm193-10-1-2h-2l-3-5-3-1q-2-5-4-6v-13l5-5-1-4 1-1 2-3-1-3 3-4q0-4 2-6l5-6 5-8q2 0 6-5v-2l4-3q3 0 5-3v-3l2-1h3q0-3 2-4 6-1 10-8h2l2-2 1 1 1-1 5-2 3-3 1 1 4-1 4-1h2l1-1h2l1 1h1l1-1 2 1q0-2 3-2l2 1h1l4 4 1-1 4 4v5-1l-6 1h-1l-1-1H400l-1 1h-2l-1-1-1 1h-1l-6 2-6 3-2-2-10 4h-3l-3 1q-1 3-3 3v-1q-3 0-4 2-2 3-6 4v1q-2 6-6 8v1H340v4h-2v5h-5l-3 4-3 7-2 4-2 5-5 9v6l-1 3 5 2h4l4-5h1l10-5 2-1q2 0 2-3l1 1 2-4q6 0 6-6l1 1 4-3v-2h1l2-1 3-6 5-1 3-3 2-3-1-1-1-3q-1-1 0-2v-4l3-2 5-3 3-1q-2 0 0 1l3-5 3-8 4-1 1 3q-4 5-4 8l5 3v1l3 3 1 3q-3 5-3 9l1 1v10l3 8 3 5v1q0 7 5 12l1-1v1q4 1 7 5h5l3 2q9 0 9-4v1q6-3 17-16 8-10 9-9h1v3h1l-4 6-4 5q1 0 0 1l-3 2 1 1-8 5-3 3-3 3q-2 0-2 2l-1-1-1 1h-1l-2 2h-4v2h-4q-4 0-7 2v-2H410v-2l-2 1-3-2q-1-2-4-1l-5-8q-4-4-5-3l1-1q-2-2-2-5-4-4-14-24l-5 5-6 8-1 2-1 3-4 2v2l-1 3-3 3-4 2-1-1-3 2-4 4 4 1v2l-4 4h2l-7 6h-2l-3 1q-6 3-3 3l-4-1h-3l-1 1Zm129 1v-1l1-4 1-2 1-9 4-4 1-4v-5l1-2v-9l1-3v-5l1-4q1-2 0-4v-11q-1-7 0-8-2-2 0-4-2-9-11-15v-3h5l3 1h6l3 6 6 10v4l3 2 1 10v4l-1 5 1 1 2 8h1l11-16 3-2 3-4q3 0 3-2l4-5q2-8 9-8 0-4 2-4 3 0 3-4l5-3v-1l2-3 4-1 10-7 1-2h2l3-1v-2q1-2 3-2l6-3 3-2h4q3-6 8-6l1 1h4q5 0 8 5 4 9 4 19v17l3 16 3 16 2 4 3 5 1 1q3 2 3 6l5 2 3 2 5-3h2v1l5-4q3-3 3-5l2 1v2h1l-10 11-1 1-1 1q-1 0 0 0h-1l-2 3-6 4v2l-9 3-1 1-3-1-1-1h-1q-3 0-4-3v1q-3 0-5-4l-4-4v-1l-1-2q-2-6-3-5-1 1-1-6V400q-2-4-5-3l-1-4v-9l1-4-1-3v-4l-3-2-3-2V360l2-3-3-3v-5l-3-5q-3-4-6-4v1h-4l-1 1q-4 0-5 2l-2 1-8 5-1 1q-3 1-3 3-6 2-14 14h-3l-9 10-13 14-2 3-5 7-2 1-2 3-2 4q-2 4-2 9l-2 5q-3 3-3 5l1 1-4 3-4 1-1-1-3 2v1l-1 4q-4 0-4 4H450Zm192 7h-1l-6-5v-2l-1-3v-5q2-2 3-8l2-3 3-10 2-4v-3q4-10 3-19 3-1 3-5L650 380l-2-3v-4l1-1V370l-1-6-1-3-1-4-1-2-1-3h-5v-3l-1-2 3-1 5-1h1l2 1h2l5 4 3 4-1 1 4 11v5l1 9v14l3 2q2 0 3-4l2-1 4-2 4-5v-3l3-3 1-4 5-4 3-4v1l1-3 1 1 3-3v-3l5-5 6-3 3-3 8-8 3-1 14-11q3 0 5-2l3-2 2 1v-1h2l2 4q3 2 5 8 2 2 0 4v4l1 4-1 6v5l-4 8-2 4v3h1l8-8 5-1 1-3 1-2 5 3h2l2-1q3 0 5 5l5 6-1 3q0 2 3 4v6l-1 3 3 6v1q0 4 5 11v1q0 5 6 8l4 4 4-2 4-2 2 1 8-6h2l1-1v1l-1 3-6 2-7 4-9 8q-6 5-13 4l-3-2-3-1-1-2q-5-2-7-7l-5-11-3-11v-4q-2-2-3-10-2-5-5-5 0-1-1 0l-1 1-2-1q0-4-16 15l-4 3-6 3v2q0 5-7 9l-2-2v-5l1-4h1l2-9q4-2 3-8 2-1 3-4l2-6v-9l3-8v-7l-2-1v-4l-1-1-5 3-8 4-2 1q-2 0-7 8l-5 5-8 8-2 1L680 390l-1 3-3 1-3 6-1 1-1 3q-4 3-8 10v5l-3 8-2 11-7 8q-3 1-5 5h-2m-10-11Zm246-1-3-2h-5l-9-4-3-1-3-3-5-7h-1l-1 1-3-5q0-2-3-4v-9q0-3-4-6l2-2 2-5 2-6 1-5 1-5-4-5q-5-3-8-1l1-2v-1l-1-1-1-2 2-2 1-1h4l3 1h3l9 1h3l12-13h2l5-6h2l4-3 1-3q15-10 26-10h3q-1 1 1 1h2l1-1 3 2h3l2 2h1l2 3-3 8-4 3-3 4-3-1-3-1h-3l-3 3h-2l-12 5q0 4-2 4-3 0-4 3 3 3 12 3v-1h6l2-1 5 1 6 1q2 0 3-2l2 2h3l1-2v-1q-3-3-5-3v-4h4l5-1 3 5v-1l5 2 3 3 2-1 2-2h3l10-1h1l4-1h7l3-2h8l1-1 4-1 5-1 3-2 6-2h5l1-2h1l8-4v5l-2 2q-5 0-7 4l-7 3h-6l-4 3-1-1h-1l-3 1-5 1H980l-2 1-5 1h-8v2q1 0 0 0h-8l-6 1-1 1 6 8v1l4 5q1 3 0 4l1 3v3l-2 5-2 4-2 5-5 5-8 9-2 1-5 5-7 3-10 5h-5q-3 2-7 2l-4 1-7 1h-10l-5 1m5-5v-1l5 1h3l3-1h5l1-2 1 1 1-1h10l7-4 3-2 8-4 4-2q8-5 10-12v-4l1-3-1-4v-8l-4-8h-1l-1-5-3-2V370h-10l-5 3-4-2-3 1-5 1q0-2-2-2l-1 2-3 1-2-1h-1l-1 1-4-2q0 4-3 4-2 0-2-4l-3 2h-5l-1-1-3 1h-2v-1h-1l-2 1v1q0 3-3 5l-8 5v2q0 5-5 6l-4 14h1l5 17h3q2 0 3 3 0 3 3 3l4 1 4 1 8 2Zm73 220h-3l-12-3h-5l-3-1-3-2v1h-3l-5-3-5-2q-3 0-7-3l-9-6-5-5-6-6H890l1-2-4-3-5-10-1-7-1-10-3-6 1-2 1-3v-5q1-4 0-4 1-8 5-18v-2l1-1 4-12 2-1 2 1 1-4q6-10 18-24 3 0 12-9 3 0 6-5 3-4 11-7v2l1-3 3-3 4-5 2-1 2-1q5-1 7-3 4 0 9-8l1 1 2-1 1-2 1 1 3-2 2-3 1 1 2 1q2 0 4-3l6-3v1q3-3 11-6l2-1 3-1 3-1h2l2-1 4-2v1l1-1h1l2-1 8-4v1l4-2h1q3 0 5-2l1 1 1-1h1l1 1 2-1 1-1q6-3 11-3l1-1 3-1v1h2l2-1 5-2v1h1l12-4 1 1h8l2-1 1 1 1-1h1l6-2-2-3v-5l1-3v-1l-2-1v-5l-1-4v-9l-2-5-2-8v-4l-1-7-3-2h-1l-2 4-10 11-7 7q-3 2-6 8-5 2-9 8-5 2-9 6l-2 3-4 1-1 3-15 7-5 3-7 3q-2 0-5 3h-4q-1 1 0 1l-4-1h-3q-3 0-8-4l-6-6V420l-2-10q0 1 0 0l3-6 1 1v3l-1 4 1 1q3-1 3-8v1l5-3 1 2v-1l-1-3h-2l2-3h-2l-3-2v1l-3-2v-1h-1q2-3 4-3V390l-1-2 3-5q2-3 1-4v-4l1-1q3-1 5-6l1-1h2l2-2q0-3 3-3l3-4 7-7-5-1-15 1-5-1-7-1q2-1-1-3h9v-1l3 1h12v1h9l1-1h6l3-1 1 1h6l5-1 5-3 5-3 1 1 2-1h3v2l-10 7-15 15h-2l-13 19-2-1 1 3-2 3-4 5-1 8 1 11h3v3h4l2 1 2 1h4l2-1 2 1h1l2-2h1l6-3q5-3 5-5l1 1 5-3q5-2 8-7l4 1q1-4 8-10l3-4 2-2q0-2 5-5l2-3h2l2-1 3-5 5-4 1-1V360l-1-3-5-14 1-3h-1v-3l-2-4-2-5q0-3 3-3 2 10 5 15l3 6v6l1 1 4-3v-2l1-1 3-3v-3l5-2 2-6 5-8 2-1 1 2-4 8-3 9-1-1-5 11-6 7v1l1 4 1 8 3 11 1 5 1 7 3 9v2l1 3v3l2 4 3 10h18v1q1 1 4 0h5q1 2 3 2h5l-5 2-2-1h-3l-10-1-1-1-6 1-4-1-3 1-1 5 2 5v5l1 6v14l-1 19q2 1 2 4l-2 5v6l1 3v5l-2 1v14l-1 1-2 6-1 5-4 14q-3 2-5 10l-3 8-4 5q0 4-4 11l-5 3q-4 10-17 20v1q0 2-4 5l-18 15q-5 5-10 6l-6 4h-1l-10 4-5 3q0 2-2 2h-1v-1l-6 2q-5 0-11 3h-9l-5 2-4 2h-1l-3-1h-1l-1 1h-1l-1-1-2 1h-10m-22-15h4l3-2 4 2v-1h5l5-3 4 3v-1h2l6 1h3q1-2 3-2h3v1h3l1 1 2-2h2l1-1v-1l9-5h3v3l-4 4 5-1V630l10-4 3-1 9-8q1 2 0 2l3-3v-2l1 1h1l1 1 1-2h1l1 1 2-1 2-1 3 1 2-3 2-4 2-1h2l3 1 3-3-1-4 2-5 6-5 3-4q3-3 8-4 1-7 4-8V570l3-3V560l4-3q3-3 5-3t2-4v-2l-1-4 1-2 4-2v-7q3-3 6-13l2-4 2 1V500l1-8V490l1-3 1 1q0-11 1-10 2 0 2-16v-19l-3-13-7 1-4-1v1h-2q-2 3-7 3h-7v1h-4v1h-5l-2 1-2 1h-4q1 1-2 2l-1-1-1 1v-1l-2 1-2 1h-1l-5 1-4 2h-4q-7 0-12 5-17 10-15 10l-4-3-1 1-2 1q2 2 0 3h-1l-2 4-2-3h-6q-2 0-5 8l-8 5v2l-1 1-2 2-1-2-4 2-3 3-4-1-5 4-5 5h-1l-3 1-3 3v1q0 2-3 4h-1l-2 1-1 1h-1v-1l-1-4q-3 3-3 5v1l-5 2q1 1 0 2H930l-1 1v2l-7 4h1l-2 4h-4v2q0 5-4 6v1q0 3-4 5l-5 5v1l2 1h-2q0 2-3 5t-5 9l-1 2-3 3q-1 8-5 8l-3-1v4l-1 1h4v4l-2 1v4q0 3 3 5-2 0-3 3l-2-1 2 4q-2 1 0 8l2 2-1 5 4 7 5 6 2-1 3 3 5 5 2-1 3 4 2 3 5-1 3 1 4 3 2-1h3l3 4 4 1m-58-52q0-1 0 0m104 51Zm493-123-1-2-1-2 1-2 2-3 4-4 3-3 2 2 2-3v-4q3 0 6-3l4-6L1510 470q3 0 7-10v-4l2 4q3-1 3-3 7-6 14-20l8-6v-6l2-3q2 0 8-9l3-3q3-1 8-8l3-2 3-2-1-3q3 0 2 1 3 0 4-7h1l3-4 3-3 3-4v-4l2-2 4-5-2-2v-1q-7 6-7 8v3h-2l-3-1q-6 0-3 4l-2 1-10 11-8 9-11 9v1l-5 3-4 5-5 6-11 13-6 4-8 7-4 5-1-2q0-3 3-6l10-10 23-26 12-10 18-21 7-5 1-2q9-7 15-15l4-3 4-3 9-6q13-13 13-16 5-3 5-10l1 3q3 0 4-4l1-6 12-20 2-8 1-3 5-10v-4l2-3 3-3v-11l3-3v-2l4-8v-19l2-4v-6l-8-15q-2-3-6-3h-2v-1q-1-3-3-3h-1v1h-1l-4-2-6-1v2l-2-1h-2l-2 1h-7l-10 1-11 1-4 2-7 2-6 2-10 3-2 2q-28 10-50 23l-5 1-6 3-34 16q-12 7-10 7h-2l-2 1-8 6q-5 0-5 3-1 0 0-1l-1-1-4 4-4 4-2-1-7 3-1 2-10 6-7 4-13 7-17 9v1h-1q-3 0-8 3h-1l-10 7-7 5-3-1h-1l-2 1q-1 0 0 0h-1q-3 0-6 6l-8 2-5 3-5 3-5 2-7 2-3 3-5 3v-1l-2 1-1 1-10 3-1-2-6 4-2-1-3 2-3 1h-1q-1 0 0 0l-2 1-2-1q-1 0 0 0l-1 1q-1 0 0 0h-5l-1 1h-10l-1 1-6-1-5-2-3 1-8-4-3-2q-2 0-10-10V320q0-6 3-16l7-14 5-5 5-6 9-10 5-3 2-2 6-6 10-7 3-3 5-3q4-4 6-4h1V240l4-1 2-1h1l5-4v4l-9 6-10 5-12 10q-3 4-10 8 0 3-9 9v4l-1-1-3 6-2-1v3l-4 4-3 2v1q0 5-5 8l-2 6-2 4v2l2 3v1l-1 2q0 2 2 3l3 3 4 1 1 1v2l2-2 1-1h2l1-1 1 1 1 1h5q2-1 4 0l8 2 3-2 6-1h4l1-1 4-2 3-1h1l2 1q-2 0 3-2l12-3q-2-1 0-1h7q-1 0 0 0l2-1 1-1h2l2-2 2 1 6-3 10-6h3l5-3 13-4 8-6 6-4v1q6 0 10-6l3-2 3-2h1l1 1 3-2 3-2h1q3 0 11-7l3-4q1 0 0 1h2l4-1 15-10 1 1q-2 0 13-8 3 0 8-4h1l6-4 5-4h2q-1 0 0 2l9-6 12-8 4-2 6-3q2-1 3-4l2 1 3-2 10-5 3-3 4-1 5-2 9-7q3 0 7-3l13-6 5-2 8-5v1h1l10-3 12-6 2 1h1l2-1h1l2-2 2 1 4-2 4-1h5q8 0 12-4h5l7 1h12l-1 1q0 2 3 4 3-5 5-5l16 5v2l2 1h1q3 0 5 9l3 1 2 3 3 4v2l2 3 1 6 1 5v7l2 2-1 2-1 1v7l-1 2-2 7v8q-4 1-4 3-1 5-3 5-1 0 0 8l-6 7q0 4-4 12v2l-4 3 1 4 1 1q3 0 4-4l6-3 4-1 3-3 7-4 5-4 4-2 8-4v-1l7-4 3-1 6-3 7-5 3-3v1h1l9-6q6-2 19-10v2q3 0 10-4 4-3 6-1l1-1h3l5-4h3l5-1 4-2h19l2-1 1 2 5-2q3 0 14 8l1-1 5 7 3 1v4l1 3q0-2-4 3v5l-2 2v10l-5 14-13 20-3 3q-2 2-1 5-4 2-8 8v6l2-1q0-2 3-3l5-3 3-4 14-9 7-4h4l2-2v1h2l1-1 8-3 7-2h2l2 1h6q5 0 12 6l3 3 4 5 2 3 2 4 5 18v3l2 4-2 3-1-1h-2q-3 0-3 3l1 2 1 3v10l2 4 2 5 1 5 1 6 4 5q3 2 5 6l5 6h2l2-1h9q3 0 3 4 0 3-3 5l-5 2-7-4-6-5q-2 0 0 1l-1-2-10-13-6-7-3-9-4-4q1 0 0-2l-3-5-1-5-7-9-5-10-1-4-4-8q-3-3-6-3h-1q2 0-5-3l-4-2-3-2-1 3-4-1h-1l-2 1-2 1-2 1h-1l-7 3h-2l-13 8-1-1-10 10-8 5-7 6-11 9-7 6-4 6-2 3-3 5-1-1-2 1-5 8h-3l-6 3-4-1-1-4q0-5 3-5 1 0 0 0h2l7-6 5-6 2-1 3-3h2q1-3 4-5l5-8V340q6-6 7-10l4-6 3-8 7-10 3-8 7-16 6-20 1-2v-6l-2-2v-3l-1-4-2-4-3-1-1-1-2-2-1 1-4-2-3 1-3 2h-4l-3 1v-1l-8 1-5 2h-2l-3 1-9 4q-3-3-6-3l-3 3-2 2-3 3h-2l-2-1v3h-1q-3 0-8 3-4 3-14 6l-10 7-7 5v-1h-2l-8 7-3 1-4 1q-2 6-16 10-1 3-8 6l-1 3q-7 1-10 6 0 3-3 6-4 4-5 10l-5 8-2-1-2 3v4l-1 3-2-1h-1l-3 5-2 1q-4 2-4 7l-6 5v3l-2 5-2 1-3 2-3 6q-2 0-5 5l-2 2q-2 1-3 4-10 5-12 15-3 1-5 5l-2 5-4 3-6 5-4 6-2 2-3 1v3l-3 1-3 2-2 5q0 2-3 3-3 5-5 5h-1l-8 11v2q-3 0-4 2l-3 1-2 1-3 6-2 4q-3 0-3 3-4 0-5 4l-3 3-2-1q-2 0-3 4-3 1-4 4l-10 8q-5 2-7 5l-1 5-8 6m-179-270-2-3 3 1-1 2M1465 520l2-6h2q3 0 3 5h-7Zm533-83-4-2h-5l-8-4-3-1-4-3q0-2-5-7l-2 1q0-3-3-5l-2-4v-9l-4-6 1-2 3-5 2-6V380l2-5-5-5q-4-3-7-1v-4l-2-2 2-2 2-1h3l3 1h4l8 1h3l13-13h1l6-6h1l4-3 2-3q14-10 25-10h3l2 1h1l2-1 3 2h3l1 2h1l3 3-3 8q-2 0-4 3l-4 4-2-1-3-1h-3q-3 1-3 3h-3l-12 5q1 4-1 4-3 0-4 3 2 3 11 3l1-1h6l1-1 6 1 6 1q2 0 3-2l2 2h2l2-2v-1l-6-3v-4h4l5-1 3 5 1-1 4 2 4 3 2-1 1-2h3l10-1h2l3-1h7l3-2h9v-1l5-1 5-1 2-2 6-2h6l1-2h1l7-4v2l1 3q-2 0-2 2-5 0-7 4l-8 3h-5l-5 3v-1h-2l-2 1-6 1h-1l-1 1-6 1h-7v2h-9l-6 1-1 1 7 8v1l3 5q2 3 0 4 2 5 2 3l-1 3-2 5-2 4-2 5-4 5-8 9-2 1q-3 1-5 5l-7 3-10 5h-5q-3 2-8 2l-4 1-6 1h-10l-6 1m5-5 1-1 4 1h4l2-1h6l2-2v1l2-1h10l6-4 4-2 7-4 4-2q8-5 10-12l1-4 1-3-2-4v-3l1-4-1-1-3-8h-2v-5l-3-2v-3h-10l-5 3-4-2-3 1-6 1-2-2-2 2-2 1h-1l-1-1h-2l-1 1-3-2q0 4-3 4t-3-4l-3 2h-4l-2-1-2 1h-2v-1h-2l-2 1v1q0 3-3 5l-8 5v2q0 5-4 6l-4 14 6 17h3l2 3q1 3 3 3h1l4 1 3 1h1l7 2Zm97 10v-1l1-4 2-2v-9l4-4 1-4v-5l1-2v-9l1-3v-5l2-4v-4l-2-11v-8l1-4q-2-9-11-15v-3h5l3 1h6l3 6 6 10v4l3 2 1 10v4l-1 5 2 1 1 8h1l11-16 3-2 3-4q3 0 3-2l4-5q2-8 8-8 0-4 3-4t3-4l5-3v-1l2-3 4-1 10-7 1-2h2l3-1v-2l3-2 6-3 3-2h4q3-6 8-6l1 1h4q5 0 8 5 3 9 3 19v13l2 1-1 3 3 16 3 16 2 4 3 5 1 1q3 2 3 6l6 2 2 2 5-3h2v1q2 0 5-4 3-3 3-5l2 1v2h1l-10 11-1 1-1 1q-1 0 0 0h-1l-2 3-7 4v2l-8 3-2 1-2-1-1-1h-1q-3 0-4-3v1q-3 0-5-4l-4-4v-1l-1-2q-2-6-3-5-1 1-2-6l1-2v-4q-2-4-5-3l-1-4v-8l1-4-1-3v-4l-3-2-3-2V360l2-3-3-3v-5l-3-5q-3-4-6-4v1h-4v1q-4 0-5 2l-2 1-8 5-1 1q-3 1-3 3-6 2-14 14h-3q-3 5-9 10l-13 14-2 3-5 7-2 1-2 3-2 4q-2 4-2 9l-2 5q-3 3-3 5l1 1-4 3-3 1h-1l-1-1-3 2v1l-1 4q-4 0-4 4h-3Zm207-5-10-4h-1q-13 0-13-18l-1-2v-3l3-6h-2l4-6-1-2q4-1 3-5h3v-5h2q4 0 5-6 3 0 3-3h3l6-9h3l6-5 2-1 4-4 2-1v-1q-2-1-4-7l-5-8-7-13-2-5-1-3v-3l-3-7v-3l-3-5-1-10-3-10 1-2-2-10v-3 1-18l2-2-1-1 3-9-1-1 2-3-1-3 2-2v-1l3-9 7-10h1q0-3 10-14l5-2 5-3q3 0 13-5v1l18-2v1q16 1 21 7h3l10 7q3 4 6 4 0 4 4 5v1l3 4 2 4h2q0 3 3 8l4 10 2 10V260l2 4-1 19h-1l-2 9q0 6-3 16l-3 8-1 8-1 3-2 5-1 4q0 4-3 5l-1 5v1l-5 9-4 3q0 5-4 10l-8 10q-3 2-8 10v1l-2 2 2 3h-3l-1 1v1l5 3 8 4h-2l6 5 1-1 1 1 1 1h1l3 3h4l1-1 3 3 2-1h2l4 1h3l3-2 2 1 3-1 2-1h3q3 0 8-6l1 1h4v2l-6 5h-2q-10 9-23 9l-4-1-6 1-6-2q-4-3-7-2l-3-3-3-3-3-3-4-1-8-6q2 0-18 16-3 0-8 5l-14 9-5 1-7 1h-1l-10 3m65-45 6-5v-6q1-6 10-16l2-2 1-3-1-6 8-7-2-3 3-3 3-4 3-10-1-1v-5l3-13v-6l2-5v-10l-1-3V270l-3-6v-5l-1-2 1-2v-1q0-4-4-11l-3-4v-1l-3-6-2-8q-4-15-10-15l2 6h-2l-7-6-8-8-6-3-3 1q0-2-2-3v1l-3-1-3-1h-2l-5-1-4 1-5 3-4 2-11 10q-3 8-7 10v2l-3 4 1 1q-3 3-3 6l-3 11q0 2-2 3V260l2 2-1 5V280l3 6q3 5 3 8l-1 3v4l1 4 1 4h2q3 0 3 4l2 1q0 6 3 10l7 8v4q0 3 3 6h1q1 0 0 0v1l1 3 2 4 3 5h2l1-1h1l6-2q4-2 10-2h5v1h5l3 2v-1q7 9 7 11l-3 8h-3l-8-3h-7l-5 1v3l1-2q1 1 0 4l6 5 7 6v2q3 3 7 3v3m-67 39 3-1 2-1h2l2 1 4-3 2 1h4l1-2h2l2-1 10-5q5-5 10-6l7-8 2 1q0-3 7-6v-4l-7-3v-1l-1-2-3-2-3-1q-4-8-15-17l-2 2h-4l-2 1-1 1q-4 1-9 5l-5 4-13 10-1 5h-2l-2 3-3 5-2-2v2q-3 2-2 7v1l4 12h8q2 3 5 4Zm160 10V440h-5l-2-5-3-1q-2-5-4-6v-13l4-5v-5l2-3V400q0-3 3-4 0-4 2-6l5-6 5-8 6-5v-2l3-3q4 0 5-3v-4l3-1h2l3-4q6-1 9-8h2l3-2 1 1 1-1 5-2 2-3 1 1 4-1 4-1h2l2-1h2l1 1 2-1 2 1q0-2 2-2h1l2 1h1l4 4 1-1 4 4v5l-1-1-6 1-2-1h-1l-2 1h-1l-2-1-1 1h-1l-6 2-6 3-1-2-10 4h-4l-2 1-3 3v-1h-1l-4 2q-2 3-5 4v1q-3 6-7 8v1h-3l-1 4h-3v5h-5l-3 4-3 7-1 4-3 5q-3 4-4 9v4l-1 2v3l4 2h4q3-1 4-5h2q4-1 9-5l3-1q2 0 2-3v1l3-4q5 0 6-6l1 1 3-3 1-2h1l1-1 3-6 6-1 2-3 3-3-2-1-1-3q-1-1 1-2l-1-1v-3l4-2 4-3 3-1q-2 0 1 1l3-5 3-8 3-1 2 3q-5 5-5 8l5 3v1l3 3q2 1 2 3-4 5-4 9l2 1-1 4 1 6 2 8 3 5v1q0 7 6 12l1-1v1q3 1 6 5h6q1 2 3 2 8 0 8-4l1 1q6-3 17-16 7-10 8-9h2v3l-3 6-5 5q1 0 0 1l-3 2 1 1-8 5q-3 2-2 3l-3 3q-3 0-3 2V430l-2 1-3 2h-2l-1 2h-3q-5 0-8 2v-2h-6v-2l-1 1q-2 0-3-2-2-2-4-1l-6-8q-3-4-4-3v-1l-2-5L2520 390l-5 5-7 8-1 2-1 3-3 2v2l-1 3-3 3-5 2-1-1-3 2-3 4 3 1v2l-3 4h1l-6 6h-2l-3 1q-7 3-4 3l-3-1h-3l-2 1Zm195 0-5-2-4 1-2-1-2-1-2 1-4-3h-2q-2 0-3-2l-2-3-3-3q-3-3-1-9v-1h-3l-2-3-1-3-4 5-3 1-4 5-4 3h-4q-2 0-2-2l2-3 4-3 1 1v-2q6-2 6-5l3-3q2 0 4-4l1-1 3-10 1-1 3-6v-3l-2-1q2-2 0-5 1-3 5-4l3-4 2-9 3-2 1-8 4-8 3-8q6-6 6-10 3 0 7-7 0-4 6-13l17-20 7-7 3-1h1v1q0 3-3 4l-5 8h1l4 3 3-2v-3h2l4-3 2-6q1-3 5-5v-3q1 1 3-1l3-2 3-4 3-1q0-8 4-8h2v-2h2l2-2v-1q0-5 6-6v-4h3l2-3 3-2q-1-5 6-17-1 2-3 2v-6l3-2 4-3 2-2 3-4 5-5 3-3 2-4q4 0 5-4 2-4 10-8l8-5v-3q4-1 9-8l5-4 6-4h2l3 2 9 4 1 7-1 3 3 1v1l-1 9v11l-10 14-4 4-3 2q-5 5-12 18l-1-1q-3 1-4 6l-5 3-3 4-1-1-1 4-3 4-2 4-6 5-6 4-5 5-8 9-11 13-5 5-9 8-3 3-6 7-6 4-8 6-1 1-4 6h-2l-4 4-4 7h-2l-8 8v1l-4 3v3q-1 2-4 3l-1 3h-1q-2 1-3 4-5 1-4 4l-5 4q-5 4-9 10l-3 13v6l-1 6v2l2 6 3 6h4l2 1q2 4 6 4l1-2h2q0 2 3 2l2-1 3-1 1 1v-3h4q10 0 13-4l5-1 6-2 2-3h5v-3h6l1-4 6-3h2q2 0 5-4h2l10-10 9-5h6l-3 4-7 5-6 5-1-1q-4 2-5 5l-2 2h-3v2l-6 5q0 2-5 3l-3-2-3 2q0 3-3 4-2 2-3 1v2l-3 4-12 6h-1q-3 0-6 3l-6 1-5 2-2-1h-6q-2 0-3 2l-1 1h-1l-4 1m3-74h2l5-6 6-8 1-1 1-3 6-6 7-6 2-3 2-1 2-2 10-11 1-2 4-4 3-4 7-6 4-4 4-4 7-11h1l8-8 1-6q9-3 10-10l3-2 4-5h1l3-4 3-6h3l1-4 3-4q3-2 5-6V230l4-1v-2l2-4 5-8 8-10q0-3 3-8v-2q1 0 0 0h-2l-20 17-10 9q-2 0-3 3l-2 1-3 5q-2 2-5 1 0 4-6 8-5 3-6 6l-12 13-18 20q-3 2-8 10l-3 3q0 2-5 4l-2 4-1 3-6 5v3l-3 3-3 3v4l-5 7-6 10q-3 0-4 4l-3 5-2 2v2l2 1q-2 5-5 5l-1 5h1l-2 3-1 2 1 4m124-9 4-5h1l4-4 3-5 4 2v5q-2 0-3 2l-2 1-3-1-2 3-5 3h-1m-20 19-2-1 10-10q3 0 4-4l4-4h2l1 1-1 4-3 4-4 2-2 3-1 1-6 4h-2m-6 5V380l2 1h4q-3 4-6 4Z" fill="#4f0000"/></svg>
