<svg xmlns="http://www.w3.org/2000/svg" width="420.000000pt" viewBox="0 13.050000190734863 283.1499938964844 52.29999923706055" data-asc="0.875"><defs/><g><g><g transform="translate(0, 0)" fill="#4f0000"><path d="M13.50 46.50Q13.45 46.50 13.40 46.45Q13.35 46.40 13.30 46.40Q13.25 46.40 12.88 46.20Q12.50 46 12.45 46Q12.35 46.05 12.30 46.05Q12.40 45.90 12.25 45.90Q12.15 45.90 12.10 45.95L12 45.95Q12.10 45.95 11.35 45.60L11.25 45.45L10.50 45Q10.45 44.95 10.45 44.85Q10.10 44.70 9.55 44Q9.10 43.75 9 43.15Q8.85 43.10 8.65 42.80L8.65 42.70Q8.70 42.70 8.70 42.65Q8.65 42.65 8.63 42.55Q8.60 42.45 8.40 42.05L8.20 41.80L8.10 41.75Q8.15 41.70 8.15 41.63Q8.15 41.55 8.20 41.50Q8.20 41.45 8 41.45L7.85 39.80Q7.85 39.75 7.50 39.75Q7.50 39.60 7.40 39.60Q7.35 39.60 7.35 39.65L7.30 39.65Q7.25 39.65 6.95 39.52Q6.65 39.40 6.50 39.40L6.45 39.45Q6.55 39.55 6.70 39.55Q6.70 39.60 6.80 39.70Q6.75 39.85 6.55 39.85Q6.50 39.85 6.40 39.77Q6.30 39.70 6.25 39.70Q6.20 39.70 6.20 39.80L6.10 39.65Q5.50 39.40 4.50 38.80Q4 38.45 3.95 38.45Q3.90 38.45 3.85 38.50Q3.85 38.40 3.50 38Q3.15 37.60 3.15 37.45Q3.15 37.10 3.35 36.75Q3.60 36.70 3.58 36.67Q3.55 36.65 3.65 36.65L3.75 36.65Q3.80 36.70 3.85 36.70Q3.90 36.70 4 36.60L4.10 36.75L4.20 36.65Q4.25 36.70 4.50 37Q4.75 37.30 4.85 37.30Q4.70 37.30 6.10 38.20L7.40 38.85L7.55 39Q7.60 39 7.60 38.95Q7.60 38.90 7.65 38.90L7.80 39.05Q7.85 38.80 7.95 38.45Q8.05 38.10 8.15 37.60Q8.35 38.20 8.30 38.55L8.40 38.90L8.40 39.25Q8.45 39.45 8.55 39.45Q8.60 39.45 8.60 39.40L8.65 39.40Q8.65 39.40 8.90 39.50Q9.15 39.60 9.20 39.65Q9.30 39.70 9.48 39.77Q9.65 39.85 10.05 39.95L10.65 40.25Q10.60 40.30 10.65 40.35Q10.70 40.30 10.90 40.30Q11.05 40.30 12.65 40.95Q12.90 41.05 12.88 41.10Q12.85 41.15 12.95 41.15L13 41.15Q13 41.10 13.05 41.10L13.45 41.20L13.55 41.30Q13.65 41.30 13.78 41.30Q13.90 41.30 14.10 41.35Q14.30 41.55 14.40 41.55Q14.45 41.55 14.45 41.50Q14.40 41.45 14.45 41.45Q14.50 41.45 14.70 41.58Q14.90 41.70 14.95 41.70Q15 41.70 15 41.65Q15 41.60 15.10 41.60Q15.15 41.60 15.23 41.70Q15.30 41.80 15.35 41.80Q15.65 41.80 16.05 41.95Q16.45 42.10 16.45 42.10Q16.55 42.10 16.65 42Q16.65 42.20 17.20 42.20L17.30 42.20Q17.30 42.15 17.35 42.15Q17.40 42.15 17.45 42.25Q17.50 42.35 17.55 42.35Q17.70 42.35 17.85 42.15Q17.80 42.35 18.10 42.35L18.30 42.35Q18.50 42.35 18.65 41.95Q18.90 41.75 19.23 41.27Q19.55 40.80 20 40.10L20.45 39.60Q20.55 39.30 20.85 39Q20.95 38.90 20.85 38.85Q21.20 38.60 21.30 38.33Q21.40 38.05 21.70 37.50L21.70 37.75Q21.95 37.65 21.85 37.45L22 37.55Q22 37.70 21.90 38Q21.50 38.65 21.40 38.55Q21.35 38.65 21.35 39Q21.25 39.10 21.10 39.25Q20.95 39.40 21 39.55Q20.80 39.75 20.73 39.92Q20.65 40.10 20.05 41Q19.80 41.20 19.50 41.60Q19.50 41.65 19.55 41.70L20.45 40.85L20.45 40.75Q20.45 40.65 20.48 40.58Q20.50 40.50 20.55 40.35Q20.95 40.15 21.20 39.75Q21.45 39.35 21.65 38.95Q21.85 38.75 22.15 38.15L22.35 38.05L22.35 37.85Q22.50 37.85 22.55 37.25Q22.55 37.15 22.85 36.65Q22.85 36.65 23.05 36.55Q23.05 36.45 23.10 36.35Q23 36.10 23.15 35.75L23.25 35.90L23.60 35.40Q23.50 35.30 23.40 35.30Q23.25 35.30 23.25 35.35L23 34.85Q23.05 34.85 23.40 34.50Q23.40 34.40 23.50 34.20Q23.45 33.95 23.50 33.90Q23.60 33.85 23.68 33.75Q23.75 33.65 23.85 33.55Q24.10 33 24.43 32.25Q24.75 31.50 25.25 30.55Q25.30 30.55 25.40 30.45Q25.50 30.05 25.58 29.88Q25.65 29.70 25.65 29.70Q25.70 29.75 25.75 29.75Q25.85 29.45 26.08 29.02Q26.30 28.60 26.55 28.05Q26.55 28.05 26.75 28.15Q26.75 28.20 26.75 28.32Q26.75 28.45 26.70 28.60L26.75 28.70Q26.80 28.65 26.80 28.55Q26.80 28.45 26.85 28.35Q27.20 28.30 27.25 27.80Q27.25 27.85 27.30 27.85L27.30 27.40Q27.50 27.40 27.55 27.20L27.10 27.10L27.10 26.75Q27.10 26.70 27.13 26.68Q27.15 26.65 27.20 26.45Q27.20 26.40 27.15 26.35Q27.20 26.30 27.25 26.35Q27.40 26.25 27.55 25.90Q27.55 25.90 27.80 25.50Q27.80 25.40 27.93 25.18Q28.05 24.95 28.30 24.25Q28.60 23.85 28.75 23.45L28.90 23.30L29 22.90L29.60 22.05Q29.70 21.95 29.60 21.90Q30.15 21.60 30.25 20.85Q30.35 20.75 30.45 20.65Q30.55 20.55 30.55 20.30Q30.60 20.30 30.65 20.35Q30.80 20.15 30.95 19.95Q31.10 19.75 31.20 19.55Q31.05 19.40 31 19.40Q30.90 19.40 30.85 19.45L30.70 19.45Q30.60 19.45 30.65 19.40Q30.70 19.35 30.65 19.35Q30.55 19.35 30.45 19.40L30.25 19.40Q30.20 19.40 30.20 19.35L29.95 19.35Q29.85 19.35 29.80 19.27Q29.75 19.20 29.70 19.20L29.65 19.20Q29.65 19.25 29.60 19.25Q29.65 19.25 29.30 19.05L29.20 19.15L28.35 18.90L28.30 18.90Q28.25 18.95 28.20 18.95Q28.15 18.95 27.75 18.80Q27.35 18.65 27.30 18.65Q27.25 18.65 27.25 18.70L27.20 18.70Q27 18.55 27.03 18.52Q27.05 18.50 26.75 18.42Q26.45 18.35 25.25 18.15Q25.05 18.20 24.95 18.15Q24.80 18.10 24.58 18.02Q24.35 17.95 23.95 17.90L23.90 17.85Q23.80 17.75 23.55 17.85L23.45 17.80Q23.40 17.80 23.40 17.75L23.30 17.75Q23.25 17.75 23.30 17.80L23.25 17.80Q23.30 17.80 23 17.72Q22.70 17.65 22.43 17.60Q22.15 17.55 22.20 17.55Q22.05 17.45 21.95 17.55Q21.75 17.45 21.75 17.45Q21.70 17.45 21.68 17.50Q21.65 17.55 21.60 17.55Q21.65 17.55 21.48 17.42Q21.30 17.30 20.95 17.30Q20.90 17.30 20.90 17.35Q20.90 17.40 20.80 17.40Q20.75 17.40 20.75 17.35Q20.75 17.30 20.70 17.30Q20.65 17.30 20.63 17.35Q20.60 17.40 20.55 17.40Q20.50 17.40 20.50 17.35Q20.55 17.30 20.50 17.30Q20.40 17.30 20.40 17.35L19.85 17.10L19.75 17.20Q19.75 17.20 19.60 17.05L19.50 17.15Q19.40 17.05 19.35 17.10L19.25 17.05Q19.10 16.95 18.73 16.88Q18.35 16.80 18.30 16.80Q18.30 16.80 18.10 16.95Q18.05 16.75 17.85 16.75Q17.80 16.75 17.80 16.80L17.75 16.80Q17.85 16.80 17.65 16.70L17.60 16.75L16.55 16.50Q16.35 16.50 16.10 16.47Q15.85 16.45 15.50 16.40Q15.60 16.30 15.50 16.30Q15.40 16.30 15.35 16.35L15.20 16.35Q15.15 16.35 15.15 16.30L15.10 16.30L14.95 16.40L14.85 16.30Q14.80 16.30 14.75 16.35Q14.70 16.40 14.65 16.40L13.95 16.20Q13.85 16.20 13.80 16.25L13.40 16.25Q13.30 16.25 12.93 16.20Q12.55 16.15 12.50 16.15Q12.45 16.15 12.45 16.20Q12.50 16.25 12.45 16.25Q12.40 16.25 12.25 16.17Q12.10 16.10 11.95 16.10L11.80 16.10Q11.70 16.15 11.60 16.15Q11.75 16.15 11.35 15.90Q11.25 16 11.25 16.15L11.05 16.05L10.75 16.05Q10.60 16 10.50 16Q10.45 16 10.45 16.05Q10.45 16.10 10.35 16.10Q10.30 16.10 10.18 16Q10.05 15.90 10 15.90Q9.95 15.90 9.93 15.97Q9.90 16.05 9.80 16L9.25 15.90Q9.20 15.90 9.25 15.95Q9.25 16 9.20 16Q9.15 16 9.15 15.95Q9.15 15.90 9.05 15.90Q9.10 15.95 8.70 16.05L8.40 16.05Q8.30 16.05 8.25 16.10L7.90 16.10Q7.75 16.05 7.50 16.05Q7.50 16.05 7.40 16.10Q7.30 16.15 7.25 16.15L7.10 16L7.05 16.10Q7.05 16 6.95 16Q6.90 16 6.78 16.10Q6.65 16.20 6.60 16.20Q6.55 16.20 6.50 16.15Q6.45 16.10 6.40 16.10L4.65 16.40Q4.60 16.40 4.60 16.45Q4.60 16.50 4.55 16.50Q4.50 16.50 4.45 16.42Q4.40 16.35 4.35 16.35Q4.30 16.35 4.15 16.45Q4 16.55 3.95 16.55Q3.40 16.55 3.25 16.60Q2.90 16.95 2.60 16.95Q2.55 16.95 2.50 16.90L2.40 16.90Q2.35 16.90 2.20 17Q2.05 17.10 1.65 17.60L1.35 17.95Q1 18.20 0.65 18.70Q0.65 18.80 0.60 18.85Q0.65 18.95 0.65 19.15Q0.65 19.45 0.45 19.60Q0.45 19.65 0.50 19.65Q0.40 20.05 0.55 20.25Q0.50 20.20 0.50 20.35Q0.50 20.85 0.65 21.30Q0.65 21.35 0.88 21.72Q1.10 22.10 1.20 22.10L1.20 22.35Q1.20 22.40 1.27 22.50Q1.35 22.60 1.35 22.60L1.35 22.90Q1.45 22.90 1.50 22.95L1.50 23.10L1.95 23.65Q1.95 23.75 2.15 23.95Q2.50 24.45 2.55 24.45L2.65 24.40L2.65 24.55Q2.70 24.70 2.90 24.90Q3.35 25.35 3.95 25.75Q3.95 25.80 3.90 25.85L4.05 26.05Q4.45 26.80 4.90 26.75Q4.95 26.80 4.90 26.95Q5.15 27.15 5.58 27.50Q6 27.85 6.55 28.25Q6.75 28.25 6.85 28.30Q7 28.50 7.10 28.50Q7.50 29.10 7.85 29.10Q7.90 29.20 8.60 29.45Q8.70 29.50 9.05 29.75Q9.40 30 9.60 30Q9.65 29.95 9.70 29.95L9.70 30.05Q9.70 30.35 9.95 30.25Q10.20 30.15 10.25 30.45Q10.35 30.35 10.35 30.30Q10.45 30.50 10.60 30.65Q11.05 30.80 11 30.80L10.65 30.90Q10.60 30.75 10.35 30.75Q10.30 30.75 10.20 30.75Q10.10 30.75 10 30.80Q10 30.80 9.85 30.73Q9.70 30.65 9.45 30.45Q9.35 30.35 9.15 30.30L9.05 30.35L9.10 30.30Q8.90 30.10 8.80 30.10Q8.85 30.10 8.70 30.20Q8.65 30.05 7.80 29.70Q7.80 29.60 7.65 29.45Q7.30 29.25 7.10 29.25Q7.05 29.25 7.10 29.30L7.05 29.30Q6.95 29.30 6.25 28.80Q5.55 28.30 5.45 28.30Q5.35 28.30 5.35 28.40Q5.35 28.40 5.23 28.25Q5.10 28.10 5.10 28Q5 28 4.75 27.70L4.65 27.80L4.50 27.60Q4.40 27.20 4.10 27.35L4 27Q3.90 27.10 3.80 27.10L3.65 26.95L3.55 26.95Q3.35 26.95 3.10 26.68Q2.85 26.40 2.70 26.10L2.35 25.85L2.35 25.75Q2.35 25.60 2.15 25.40Q1.75 25.15 1.73 25.10Q1.70 25.05 1.55 24.85Q1.55 24.80 1.60 24.75Q1.60 24.70 1.50 24.50Q1.50 24.45 1.30 24.30Q1.30 24.30 1.25 24.17Q1.20 24.05 1.20 23.95Q1 23.90 0.70 23.20Q0.60 23.10 0.55 23.15Q0.60 23 0.55 22.80Q0.50 22.75 0.45 22.67Q0.40 22.60 0.20 22.05Q0.15 21.85 0.07 21.45Q0 21.05 0 21.15Q0 21.10 0.05 20.95Q0.10 20.80 0.15 20.70Q0.20 20.35 0.15 20.20Q0.10 20.05 0.10 19.90Q0.15 19.85 0.70 18.30Q0.90 17.65 1.35 17.20Q1.80 17 2.45 16.30Q2.45 16.30 2.45 16.30Q2.50 16.30 2.70 16.25Q2.85 16.20 3.17 16Q3.50 15.80 3.65 15.85Q3.65 15.65 3.70 15.60Q4.80 15.05 4.90 15.05L4.95 15.05Q4.95 15.10 5.05 15.10Q5.05 15.10 5.23 14.97Q5.40 14.85 5.45 14.85Q5.50 14.85 5.55 14.90L5.60 14.90Q5.75 14.90 5.75 14.75Q5.70 14.75 5.70 14.70Q5.70 14.70 5.85 14.67Q6 14.65 6.30 14.60L7.10 14.45Q7.50 14.45 7.65 14.30Q7.75 14.40 7.80 14.40Q8.10 14.40 8.05 14.35L8.15 14.25Q8.85 14.15 9.50 14.25L9.60 14.35L9.70 14.20L10.30 14.20Q10.25 14.20 10.40 14.35L10.50 14.35Q10.60 14.35 10.70 14.27Q10.80 14.20 10.85 14.20Q10.90 14.20 11.08 14.30Q11.25 14.40 11.30 14.40Q11.40 14.40 11.40 14.35Q11.40 14.30 11.45 14.30L11.50 14.30Q11.45 14.35 11.50 14.35Q11.55 14.35 11.60 14.27Q11.65 14.20 11.70 14.20Q11.80 14.20 12 14.30Q12.20 14.40 12.30 14.40Q12.45 14.40 12.45 14.25L12.65 14.30Q12.75 14.30 12.75 14.20Q13 14.50 13.55 14.50Q13.95 14.50 14.20 14.50Q14.45 14.50 14.60 14.55Q16.05 14.85 16.15 14.85Q16.25 14.85 16.20 14.80Q17.25 15.20 17.55 15.20Q17.60 15.20 17.60 15.15L17.70 15.15L18.25 15.25L18.45 15.25Q18.45 15.50 18.50 15.55L18.55 15.45Q18.85 15.55 19.05 15.65Q19.20 15.65 19.15 15.70Q19.15 15.70 19.15 15.70Q19.15 15.70 19.05 15.65L19 15.65Q18.95 15.65 18.93 15.70Q18.90 15.75 18.85 15.75Q18.80 15.75 18.70 15.65Q18.60 15.55 18.55 15.55L18 15.65Q17.90 15.65 17.95 15.65L18 15.65Q18.05 15.60 17.70 15.55Q17.55 15.50 17 15.50Q16.95 15.50 16.88 15.57Q16.80 15.65 16.75 15.65Q16.45 15.65 16.40 15.60L16.35 15.70L16.50 15.85L16.65 15.70Q16.75 15.80 16.80 15.80Q16.90 15.80 16.85 15.75Q17 15.90 17.45 15.90L17.65 15.90Q17.60 15.95 17.65 16Q17.70 15.95 17.90 15.95Q17.85 15.95 18.03 16.02Q18.20 16.10 18.60 16.20Q19 16.35 19.30 16.35Q20.50 16.35 20.65 16.70L20.75 16.65Q20.95 16.75 21.15 16.70Q21.40 16.80 21.50 16.85Q21.60 16.90 21.60 16.90L22.45 16.90L22.85 17.10Q23.10 17.20 23.28 17.22Q23.45 17.25 23.60 17.25Q23.65 17.25 23.70 17.30Q23.75 17.35 23.80 17.35Q23.85 17.35 23.85 17.30Q23.85 17.25 23.90 17.25L24.55 17.45L24.80 17.45Q24.85 17.45 24.88 17.52Q24.90 17.60 25 17.55L25.20 17.50Q25.20 17.55 25.35 17.65L25.45 17.55Q25.95 17.80 26 17.80Q26.45 17.80 26.65 17.92Q26.85 18.05 26.80 18.05Q26.90 18.05 26.95 18L27.10 18Q27.20 18 27.38 18.10Q27.55 18.20 27.65 18.20Q27.70 18.20 27.65 18.15Q27.60 18.10 27.65 18.10Q27.70 18.10 27.80 18.15Q27.90 18.20 27.95 18.20Q28.20 18.20 28.33 18.30Q28.45 18.40 28.65 18.40L28.75 18.40Q28.75 18.35 28.80 18.35Q28.85 18.35 28.98 18.45Q29.10 18.55 29.15 18.55L29.60 18.55Q30.35 18.80 30.35 18.80L30.35 18.95Q30.40 19 30.45 19Q30.45 19 30.50 19Q30.55 19 30.60 18.95L30.90 18.95L31.40 19.05Q31.45 19.10 31.73 18.70Q32 18.30 32.25 17.80L32.25 17.70L32.35 17.70Q32.50 17.60 32.90 16.95Q32.95 16.90 33.02 16.82Q33.10 16.75 33.20 16.55Q33.60 16.50 33.75 16.10Q33.90 15.70 34.05 15.40Q34.05 15.40 34.05 15.42Q34.05 15.45 34.10 15.50Q34.30 15.35 34.35 15.30Q34.30 15.25 34.35 15.25Q34.40 15.25 34.35 15.30Q34.40 15.35 34.45 15.35Q34.55 14.85 35.10 14.45Q35.65 14.05 35.75 13.90Q35.85 13.80 35.90 13.75Q35.95 13.70 36 13.65Q36.10 13.55 36.40 13.32Q36.70 13.10 36.85 13.05Q36.95 13.10 37.18 13.22Q37.40 13.35 37.50 13.50Q37.45 13.55 37.45 13.75Q37.55 13.85 37.60 14.10Q37.35 14.35 36.45 14.95L35.65 15.85Q35.60 15.80 35.50 15.80L35.50 15.60Q35.45 15.55 35.70 15.30Q35.70 15.25 35.65 15.20Q35.15 15.45 35.30 15.45Q35.25 15.45 35.15 15.35Q34.80 15.75 34.52 16.15Q34.25 16.55 34.05 16.90Q33.95 16.90 33.90 16.95Q33.85 17.05 33.73 17.27Q33.60 17.50 33.40 17.75L33.30 18.10Q33 18.45 32.55 19.30Q32.80 19.45 32.85 19.45Q33.15 19.45 33.27 19.52Q33.40 19.60 33.50 19.60Q33.85 19.60 34.02 19.67Q34.20 19.75 34.35 19.70Q34.40 19.90 34.60 19.90Q34.75 19.90 34.80 19.85L35.35 20Q35.45 20.05 35.60 20.10Q35.75 20.15 35.95 20.20Q36.20 20.20 36.35 20.25Q36.75 20.40 36.70 20.40Q36.70 20.40 36.75 20.35L36.85 20.45Q37.20 20.45 37.15 20.40Q37.20 20.40 37.40 20.50L37.55 20.50Q37.55 20.45 37.60 20.45L37.95 20.60L38.10 20.60L38.45 20.70L38.85 20.70Q39.05 20.65 39.20 20.65Q39.25 20.65 39.25 20.70Q39.20 20.75 39.25 20.75Q39.65 20.75 39.75 20.70L39.85 20.80Q39.95 20.70 40 20.70Q40.05 20.70 40.08 20.75Q40.10 20.80 40.15 20.80Q40.20 20.80 40.20 20.75Q40.15 20.70 40.20 20.70L40.30 20.70Q40.35 20.75 40.40 20.75L40.55 20.75L40.90 20.85Q40.95 20.80 40.90 20.75Q41 20.80 41.08 20.82Q41.15 20.85 41.65 20.85Q41.70 20.85 41.95 20.72Q42.20 20.60 42.25 20.60Q42.30 20.60 42.30 20.65L42.35 20.65L42.70 20.55Q42.85 20.55 43 20.50Q43.60 20.35 43.60 20.25L43.60 20.30Q43.65 20.30 44 20.07Q44.35 19.85 44.65 19.55Q44.65 19.55 44.73 19.47Q44.80 19.40 45 19.30L45.10 18.85Q45.25 18.85 45.25 18.95L45.25 18.85Q45.25 18.65 45.40 18.35L45.60 18.75Q45.65 18.80 45.65 19.05Q45.65 19.40 45.60 19.35Q45.35 19.75 45.35 20.25Q45.30 20.25 45.25 20.20Q45.10 20.45 44.83 20.65Q44.55 20.85 44.50 20.85L44.40 20.85Q44.25 20.85 44.25 21Q43.55 21 43.45 21.30L43.30 21.20L43.30 21.25Q43.20 21.20 43.05 21.20Q42.95 21.20 42.85 21.30Q42.90 21.25 42.80 21.25L42.50 21.25Q42.30 21.40 42.10 21.40Q42.05 21.40 41.93 21.35Q41.80 21.30 41.35 21.30Q41.40 21.30 41.15 21.45L41 21.45Q40.75 21.25 40.75 21.25Q40.55 21.25 40.30 21.40L40.20 21.30L40.10 21.45L40 21.35Q39.65 21.30 39.28 21.25Q38.90 21.20 38.50 21.15Q38.40 21.25 38.40 21.25L38.35 21.20L38.20 21.30Q38.20 21.25 38.25 21.20Q37.65 20.90 37.15 20.90Q37.05 20.90 37.05 20.95Q37.05 21 37.05 21L37 21Q37 21 37.05 20.95Q36.90 20.85 36.20 20.75Q36.15 20.70 36 20.70Q35.85 20.70 35.65 20.65Q35.65 20.55 35.60 20.50L35.50 20.60L34.75 20.45Q34.65 20.35 34.60 20.35L34.55 20.35Q34.55 20.40 34.50 20.40Q34.35 20.40 34.30 20.20Q34.25 20.20 34.18 20.25Q34.10 20.30 34.05 20.30Q34 20.30 33.85 20.22Q33.70 20.15 33.65 20.15Q33.60 20.15 33.55 20.20L33.50 20.20Q33.45 20.20 33.35 20.05L33.25 20.10L33.05 19.95L32.95 19.95Q32.95 20 32.90 20Q32.75 19.85 32.25 19.85Q32.20 19.85 31.50 21.35Q31 22.40 31 22.40L30.40 23.50Q30.30 23.60 30.40 23.75Q30.20 23.85 30.15 24.25L30 24.40L29.65 25.30Q29.65 25.30 29.25 26L29.05 26.60L28.25 28.20Q28.20 28.30 28.15 28.50Q28.10 28.70 28.05 28.95Q27.75 29.25 27.65 29.50Q27.40 30.30 27.05 31.13Q26.70 31.95 26.20 32.75Q26.15 32.85 26.13 32.95Q26.10 33.05 26 33.15L25.05 35.55Q24.85 35.60 24.85 35.95Q24.75 36.15 24.60 36.40Q24.45 36.65 24.30 37Q24.05 37.55 23.65 38.27Q23.25 39 22.75 39.85Q22.65 39.95 22.53 40.15Q22.40 40.35 22.20 40.60Q22.15 40.80 22.03 41Q21.90 41.20 21.75 41.45Q21.70 41.55 21.15 42.10Q21.10 42.30 20.70 42.60Q20.70 42.65 20.80 42.75L20.90 42.65L21 42.75Q21.05 42.70 21.30 42.70Q21.35 42.70 21.53 42.80Q21.70 42.90 21.75 42.90Q21.80 42.90 21.93 42.85Q22.05 42.80 22.15 42.80Q22.20 42.80 22.25 42.85Q22.95 42.70 23.50 42.70Q23.60 42.70 23.70 42.75L23.90 42.75Q24.05 42.75 24.25 42.60Q24.25 42.65 24.50 42.80L24.50 42.95Q24.15 43.10 24.05 43.10Q23.95 43.10 23.98 43.05Q24 43 23.95 43L23.10 43.15L21.70 43.15Q21.65 43.15 21.58 43.10Q21.50 43.05 21.45 43.05Q21.40 43.05 21.38 43.10Q21.35 43.15 21.30 43.15Q21.25 43.15 21.18 43.10Q21.10 43.05 21.05 43.05L20.70 43.15Q20.65 43.15 20.65 43.10Q20.70 43.05 20.65 43.05L20.45 43.05Q20.25 43.15 20.20 43.25L19.30 44.10Q19.15 44.25 18.80 44.40Q18.40 44.75 17.40 45.35L17.35 45.35Q17.20 45.35 16.88 45.60Q16.55 45.85 16.35 45.95L16.05 45.95Q16.05 45.95 15.82 46.02Q15.60 46.10 15.50 46.10L15.40 46.10Q15.40 46.05 15.35 46.05Q14.90 46.05 14.05 46.50Q14.05 46.30 13.90 46.30Q13.95 46.30 13.70 46.40Q13.45 46.50 13.50 46.50M19.90 16Q19.55 16 19.25 15.85Q19.25 15.80 19.20 15.75Q19.30 15.65 19.35 15.65L19.85 15.80L20.05 16L19.90 16M20.20 16.05L20.10 15.85L20.20 15.85L20.30 16.05L20.20 16.05M9.05 15.90L9.05 15.90Q9.05 15.90 9.05 15.90M2.45 16.35Q2.45 16.35 2.45 16.35L2.45 16.35M2.50 16.35L2.50 16.35Q2.50 16.35 2.50 16.35M0.10 19.90Q0.10 19.85 0.10 19.90Q0.10 19.90 0.10 19.90M36.65 20.40Q36.65 20.40 36.65 20.40Q36.65 20.40 36.65 20.40L36.65 20.40M11.90 31.35Q11.90 31.35 11.78 31.27Q11.65 31.20 11.65 31.10Q11.85 31.20 12 31.20Q12 31.35 11.90 31.35M12.90 45.20Q13 45.20 13.10 45.15L13.35 45.15Q13.40 45.15 13.45 45.20L13.50 45.20Q13.90 45.20 14.68 44.85Q15.45 44.50 16.60 43.95Q16.65 43.80 16.80 43.75Q17 43.55 17.28 43.30Q17.55 43.05 17.95 42.70L17.80 42.60Q17.80 42.70 17.75 42.70Q17.65 42.70 17.55 42.63Q17.45 42.55 17.40 42.55L17.25 42.60Q17.15 42.60 17.10 42.55L16.95 42.55L15.80 42.20Q15.75 42.20 15.70 42.25L15.65 42.25Q15.60 42.25 15.45 42.17Q15.30 42.10 15.25 42.10L15.20 42.10Q15.20 42.15 15.10 42.15Q15.05 42.15 14.78 42Q14.50 41.85 14.45 41.85Q14.40 41.85 14.40 41.90L14.35 41.90Q13.50 41.90 13.10 41.45Q13.10 41.55 13.05 41.55Q13 41.55 12.80 41.45Q12.60 41.35 12.55 41.35L12.45 41.35Q12.45 41.40 12.40 41.40Q12.35 41.40 12.15 41.30Q11.95 41.20 11.90 41.20L11.85 41.20Q11.80 41.25 11.75 41.25Q11.70 41.25 11.53 41.15Q11.35 41.05 11.30 41.05Q11.20 41.05 11.25 41.10L11.20 41.10L10.90 40.90Q10.85 40.85 10.73 40.85Q10.60 40.85 10.45 40.80Q9.95 40.60 9.83 40.58Q9.70 40.55 9.65 40.55L8.95 40.35Q8.95 40.25 8.90 40.25Q8.85 40.25 8.85 40.30L8.75 40.30Q8.85 40.20 8.45 40.05Q8.45 40.45 8.75 41.15Q8.75 41.15 8.73 41.15Q8.70 41.15 8.65 41.20Q8.75 41.50 8.95 41.80Q8.95 41.80 8.95 41.88Q8.95 41.95 8.90 42.10Q9 42.10 9.10 42.20Q9 42.30 9 42.35L9.60 43.20Q9.60 43.30 9.70 43.50Q10.40 44.20 10.48 44.20Q10.55 44.20 10.60 44.25L10.70 44.25L10.70 44.45L10.75 44.45Q10.80 44.40 10.85 44.40Q11.10 44.70 11.20 44.70Q11.25 44.70 11.20 44.65Q11.20 44.60 11.25 44.60Q11.30 44.60 11.40 44.73Q11.50 44.85 11.55 44.85Q11.70 44.85 11.75 44.80Q11.95 45 11.95 45L12 45Q12 44.95 12.05 44.95Q12.10 44.95 12.13 45.02Q12.15 45.10 12.20 45.10L12.45 45.10L12.90 45.20ZM32.20 44.20Q32.15 44.15 32.08 44.05Q32 43.95 31.95 43.95L31.90 43.95Q31.90 44 31.85 44Q31.75 44 31.65 43.55Q31.60 43.50 31.30 43.40Q31.15 42.85 30.95 42.80L30.95 41.45L31.35 41Q31.40 40.95 31.30 40.65Q31.35 40.55 31.40 40.45Q31.45 40.35 31.55 40.25Q31.55 40.10 31.50 39.90Q31.60 39.60 31.80 39.45Q31.80 39.15 32 38.90Q32.10 38.90 32.55 38.30L33.05 37.55Q33.20 37.45 33.65 37L33.65 36.80Q33.80 36.70 33.95 36.50Q34.30 36.45 34.45 36.20Q34.45 36.15 34.45 36.05Q34.45 35.95 34.50 35.85Q34.60 35.80 34.70 35.80Q34.80 35.80 34.95 35.75Q35.05 35.45 35.20 35.35Q35.85 35.30 36.15 34.65Q36.20 34.65 36.38 34.52Q36.55 34.40 36.60 34.40Q36.60 34.40 36.60 34.40L36.60 34.40Q36.55 34.45 36.75 34.50Q36.85 34.40 36.85 34.35Q37.10 34.20 37.30 34.20Q37.55 33.90 37.55 33.90Q37.60 33.90 37.63 33.95Q37.65 34 37.70 34Q37.80 34 38.08 33.88Q38.35 33.75 38.45 33.75L38.50 33.75Q38.45 33.80 38.55 33.80Q38.60 33.80 38.68 33.73Q38.75 33.65 38.80 33.65Q38.90 33.65 39 33.73Q39.10 33.80 39.15 33.80Q39.20 33.80 39.23 33.75Q39.25 33.70 39.35 33.70Q39.35 33.70 39.35 33.70L39.35 33.70Q39.25 33.70 39.50 33.80Q39.55 33.60 39.75 33.60Q39.85 33.60 39.88 33.67Q39.90 33.75 40 33.75Q40.05 33.75 40.05 33.70L40.15 33.70Q40.25 33.70 40.55 34.10Q40.65 34 40.65 34Q41 34.25 41.05 34.40L41.05 34.90L40.95 34.80Q40.65 34.90 40.35 34.90Q40.30 34.90 40.28 34.85Q40.25 34.80 40.15 34.80Q40.10 34.80 40.03 34.85Q39.95 34.90 39.90 34.90Q39.80 34.90 39.73 34.85Q39.65 34.80 39.60 34.80Q39.55 34.80 39.55 34.85Q39.55 34.90 39.45 34.90L39.40 34.90Q39.45 34.85 39.35 34.85Q39.30 34.85 38.78 35.10Q38.25 35.35 38.20 35.35Q38.15 35.35 38.05 35.20L37.05 35.65L36.70 35.55Q36.65 35.55 36.45 35.75Q36.25 35.95 36.15 35.95Q36.10 35.95 36.10 35.90L36.05 35.90Q35.85 35.90 35.68 36.13Q35.50 36.35 35.15 36.45Q35.10 36.50 35.15 36.65Q34.90 37.20 34.50 37.35Q34.45 37.40 34.45 37.55L34.10 37.55Q34.05 37.60 34.05 37.90Q34.05 37.90 33.98 37.90Q33.90 37.90 33.80 37.85Q33.65 38.10 33.75 38.35L33.25 38.35Q33.15 38.55 33 38.83Q32.85 39.10 32.70 39.50Q32.65 39.65 32.53 39.88Q32.40 40.10 32.30 40.40Q32 40.75 31.80 41.25L31.80 41.70Q31.80 41.75 31.75 41.90Q31.70 42.05 31.70 42.15Q31.95 42.40 32.20 42.40Q32.35 42.40 32.58 42.33Q32.80 42.25 33 41.85L33.15 41.95Q33.55 41.80 34.05 41.40Q34.10 41.35 34.30 41.30Q34.50 41.25 34.50 41.05Q34.55 41.05 34.60 41.10L34.80 40.75Q35.35 40.65 35.40 40.15Q35.50 40.15 35.55 40.20L35.90 39.90Q35.90 39.80 35.95 39.70Q36 39.70 36.05 39.67Q36.10 39.65 36.20 39.60L36.50 39.05Q36.65 38.90 37 38.85Q37.15 38.75 37.28 38.60Q37.40 38.45 37.50 38.35Q37.45 38.25 37.40 38.15Q37.35 38.05 37.25 37.95Q37.15 37.80 37.35 37.70Q37.25 37.75 37.25 37.60L37.25 37.30Q37.40 37.20 37.63 37.10Q37.85 37 38.10 36.80Q38.30 36.70 38.35 36.70Q38.35 36.70 38.35 36.70L38.35 36.70Q38.20 36.70 38.45 36.80Q38.55 36.55 38.70 36.25Q38.85 35.95 39 35.55L39.40 35.35Q39.40 35.35 39.50 35.65Q39.10 36.20 39.10 36.50Q39.10 36.65 39.60 36.80Q39.60 36.80 39.60 36.83Q39.60 36.85 39.55 36.90Q39.75 37.05 39.88 37.20Q40 37.35 40.05 37.45Q39.70 37.95 39.70 38.40L39.80 38.50Q39.75 38.55 39.75 38.90Q39.80 39.20 39.88 39.52Q39.95 39.85 40.05 40.25L40.40 40.75L40.40 40.90Q40.40 41.60 40.90 42.10L41.05 42L41.05 42.15Q41.35 42.25 41.70 42.60L42.25 42.60Q42.40 42.80 42.55 42.80Q43.35 42.80 43.35 42.40Q43.35 42.40 43.45 42.50Q44 42.25 45.10 40.85Q45.85 39.95 45.95 40L46.15 40.05L46.15 40.25L46.20 40.30Q46.20 40.30 45.80 40.85Q45.80 41.05 45.40 41.35Q45.50 41.40 45.40 41.50L45.10 41.70L45.20 41.85Q44.70 42 44.40 42.25Q44.10 42.50 44.15 42.60Q44.05 42.60 43.80 42.90Q43.60 42.90 43.60 43.10Q43.50 43 43.50 43L43.35 43.10Q43.35 43.10 43.28 43.15Q43.20 43.20 43.10 43.30Q43.05 43.30 42.95 43.30Q42.85 43.30 42.75 43.35L42.65 43.50L42.40 43.50Q42.35 43.45 42.30 43.45Q41.85 43.45 41.60 43.70L41.60 43.50L40.95 43.50L40.95 43.30Q40.85 43.40 40.80 43.40Q40.70 43.40 40.53 43.23Q40.35 43.05 40.15 43.10Q39.90 42.70 39.58 42.27Q39.25 41.85 39.15 41.95Q39.15 41.90 39.20 41.85Q39.05 41.70 39 41.40Q38.65 41 37.65 38.95Q37.45 39.15 37.15 39.50Q36.85 39.85 36.45 40.25Q36.40 40.35 36.35 40.48Q36.30 40.60 36.25 40.80L35.90 41Q35.90 41.10 35.88 41.23Q35.85 41.35 35.80 41.55Q35.75 41.55 35.53 41.75Q35.30 41.95 35.10 41.95Q35.05 41.95 34.95 41.85Q34.85 41.95 34.70 42.13Q34.55 42.30 34.35 42.55Q34.40 42.60 34.65 42.60L34.65 42.80Q34.65 42.85 34.35 43.15L34.45 43.25Q34.30 43.35 33.80 43.85Q33.75 43.85 33.63 43.85Q33.50 43.85 33.35 43.90Q32.70 44.15 32.95 44.15Q32.80 44.15 32.60 44.10L32.30 44.10Q32.20 44.10 32.20 44.20ZM45.10 44.35Q45.05 44.30 45.05 44.20Q45.05 44 45.20 43.80Q45.35 43.60 45.35 43.60L45.40 42.70Q45.50 42.55 45.80 42.30Q45.80 42.15 45.90 41.85Q45.85 41.90 45.85 41.40Q45.95 41.30 46 41.20Q45.95 41.15 45.95 40.30Q45.95 40.35 46.10 40.05Q46.05 39.85 46.10 39.55Q46.20 39.35 46.25 39.13Q46.30 38.90 46.25 38.70L46.15 37.60Q46.10 36.90 46.15 36.85Q46.05 36.60 46.20 36.40Q46.05 35.55 45.10 34.90L45.10 34.65Q45.15 34.65 45.25 34.60Q45.35 34.55 45.40 34.55Q45.45 34.55 45.63 34.65Q45.80 34.75 45.85 34.75L46.50 34.75Q46.45 34.80 46.82 35.27Q47.20 35.75 47.35 36.30Q47.35 36.45 47.42 36.65Q47.50 36.85 47.65 36.90Q47.80 37.35 47.80 37.85Q47.80 38.05 47.77 38.27Q47.75 38.50 47.70 38.75L47.85 38.90Q48 39.25 48 39.65L48.15 39.70L49.20 38.15Q49.20 38.10 49.50 37.90Q49.60 37.70 49.80 37.50Q50.05 37.50 50.05 37.33Q50.05 37.15 50.55 36.75Q50.70 36.05 51.35 36L51.35 35.95Q51.35 35.65 51.60 35.63Q51.85 35.60 51.90 35.25L52.35 34.95Q52.40 34.85 52.45 34.75Q52.50 34.65 52.60 34.50Q52.65 34.45 53 34.35Q53.90 33.75 53.92 33.70Q53.95 33.65 54.10 33.55Q54.20 33.50 54.30 33.45Q54.40 33.40 54.55 33.35Q54.55 33.35 54.65 33.17Q54.75 33 54.85 33Q54.90 33 54.90 33.05L54.95 33.05Q54.85 33.05 55.50 32.70Q55.65 32.60 55.82 32.55Q56 32.50 56.20 32.45Q56.50 31.95 57.05 31.95Q57.10 31.95 57.13 32Q57.15 32.05 57.25 32.05Q57.30 32.05 57.38 32Q57.45 31.95 57.50 31.95Q58 31.95 58.25 32.50Q58.65 33.40 58.65 34.40L58.65 35.70Q58.65 35.75 58.75 35.85Q58.75 35.95 58.70 36.05L58.95 37.75L59.25 39.30Q59.35 39.50 59.50 39.73Q59.65 39.95 59.75 40.25L59.90 40.35Q60.15 40.45 60.15 40.85L60.75 41.10Q61 41.35 60.95 41.30L61.55 41Q61.65 41.05 61.70 41.08Q61.75 41.10 61.75 41.10Q61.85 41.10 62.17 40.75Q62.50 40.40 62.55 40.25Q62.65 40.25 62.70 40.30Q62.75 40.40 62.77 40.45Q62.80 40.50 62.80 40.50Q62.80 40.65 61.80 41.65Q61.75 41.65 61.70 41.73Q61.65 41.80 61.60 41.80Q61.50 41.80 61.55 41.75L61.50 41.75Q61.40 41.75 61.30 42.05L60.65 42.50L60.65 42.70Q60.10 42.90 59.85 43Q59.60 43.10 59.65 43.10Q59.45 43.10 59.40 43Q59.35 42.90 59.30 42.90L59.25 42.90Q59.25 42.95 59.20 42.95Q58.90 42.95 58.80 42.65L58.75 42.70Q58.55 42.70 58.25 42.33Q57.95 41.95 57.85 41.85L57.95 41.75Q57.95 41.65 57.75 41.60Q57.60 41 57.50 41.10Q57.40 41.20 57.35 40.55Q57.40 40.45 57.40 40.27Q57.40 40.10 57.45 39.90Q57.20 39.45 56.90 39.60Q56.90 39.50 56.80 39.20Q56.85 39.10 56.85 39.08Q56.85 39.05 56.85 39.05Q56.70 38.80 56.80 38.40L56.90 37.95L56.75 37.75L56.75 37.30Q56.55 37.20 56.45 37.08Q56.35 36.95 56.25 36.90L56.25 36.05Q56.35 35.80 56.40 35.75L56.15 35.40L56.15 35.30Q56.15 35.15 56.05 34.92Q55.95 34.70 55.80 34.35Q55.50 34.05 55.20 34.05Q55.15 34.05 55.13 34.10Q55.10 34.15 55 34.15Q55 34.15 55 34.15L55 34.15Q55.10 34.15 54.85 34.05Q54.75 34.15 54.75 34.25Q54.40 34.25 54.25 34.40Q54.10 34.55 54.10 34.55Q54.05 34.55 54.05 34.50Q54.10 34.45 54.05 34.45Q54.05 34.45 53.35 35.05Q53.25 35.05 53.20 35.10Q52.95 35.25 52.95 35.40Q52.30 35.60 51.45 36.75Q51.40 36.75 51.20 36.85Q50.85 37.25 50.30 37.83Q49.75 38.40 49.05 39.15Q48.90 39.30 48.80 39.45Q48.70 39.60 48.25 40.20Q48.20 40.25 48.10 40.35Q48 40.45 47.90 40.55Q47.90 40.70 47.72 41.02Q47.55 41.35 47.55 41.90Q47.55 42 47.30 42.35Q47.05 42.70 47.05 42.90Q47.05 43 47.10 43.05Q46.95 43.10 46.67 43.25Q46.40 43.40 46.35 43.40Q46.30 43.40 46.27 43.35Q46.25 43.30 46.20 43.30Q46.10 43.30 45.90 43.50L45.90 43.60Q45.90 43.75 45.75 44.05Q45.40 44.05 45.40 44.35Q45.20 44.40 45.10 44.35ZM64.35 45Q64.30 45 64.15 44.92Q64 44.85 63.65 44.45L63.65 44.30Q63.55 44.15 63.50 44.02Q63.45 43.90 63.45 43.90Q63.50 43.80 63.55 43.45Q63.70 43.30 63.75 42.70L64 42.45L64.25 41.40Q64.40 41.25 64.45 40.95L64.45 40.70Q64.90 39.65 64.85 38.85Q65.05 38.65 65.05 38.30Q65.05 38.05 64.97 37.95Q64.90 37.85 64.85 37.75Q64.80 37.50 64.85 37.30Q64.85 37.30 64.85 37.27Q64.85 37.25 64.90 37.20Q64.90 37.20 64.88 37Q64.85 36.80 64.80 36.40Q64.75 36.30 64.70 36.15Q64.65 36 64.60 35.70Q64.55 35.60 64.50 35.50Q64.45 35.40 64.40 35.25Q64.05 35.20 64.05 35.15L63.90 35.20Q63.85 35.05 63.82 34.92Q63.80 34.80 63.80 34.70Q63.80 34.70 64.10 34.58Q64.40 34.45 64.55 34.45Q64.60 34.45 64.72 34.52Q64.85 34.60 64.90 34.60L65 34.60Q65 34.55 65.10 34.55Q64.95 34.55 65.60 35Q65.70 35.30 65.90 35.35Q65.90 35.40 65.80 35.50Q65.80 35.50 66.20 36.60Q66.25 36.80 66.28 37.13Q66.30 37.45 66.30 38L66.30 39.35Q66.55 39.60 66.60 39.60Q66.80 39.60 66.85 39.25Q66.95 39.20 67.13 39.10Q67.30 39 67.50 38.90Q67.55 38.75 67.90 38.40Q67.95 38.25 67.85 38.15L68.20 37.80Q68.20 37.55 68.35 37.35Q68.50 37.25 68.75 36.95Q69 36.65 69.05 36.65Q69.05 36.65 69.05 36.65L69.05 36.65Q69.10 36.70 69.15 36.70Q69.20 36.65 69.20 36.45Q69.30 36.45 69.35 36.50L69.60 36.20L69.60 35.90Q70.10 35.55 70.10 35.40L70.70 35.10Q70.75 35.05 71.03 34.80Q71.30 34.55 71.80 34L72.10 33.85L73.50 32.80Q73.75 32.80 73.97 32.60Q74.20 32.40 74.30 32.40L74.50 32.50L74.50 32.40L74.70 32.40Q74.65 32.55 74.90 32.75Q75.15 32.95 75.45 33.55Q75.60 33.80 75.40 34Q75.35 34.05 75.40 34.35Q75.55 34.70 75.55 34.80L75.40 35.35L75.45 35.60Q75.45 35.60 75.35 35.85Q75.25 36.10 75.05 36.65L74.80 37.15L74.80 37.35L74.90 37.45L75.70 36.65Q75.90 36.65 76.25 36.45Q76.30 36.35 76.35 36.23Q76.40 36.10 76.40 36.05Q76.80 36.25 76.95 36.25L77.10 36.25Q77.15 36.20 77.25 36.20Q77.55 36.20 77.85 36.70Q77.95 36.90 78.30 37.30L78.15 37.60Q78.15 37.80 78.45 37.95L78.45 38.25Q78.45 38.40 78.45 38.55Q78.45 38.70 78.40 38.85L78.75 39.45Q78.75 39.55 78.70 39.65Q78.70 40 79.15 40.70L79.15 40.80Q79.15 41.30 79.85 41.60L80.20 42.05Q80.25 42.05 80.60 41.83Q80.95 41.60 81 41.60Q81 41.60 81.15 41.70Q81.20 41.60 82 41.10Q82.05 41.05 82.15 41.05Q82.25 41.05 82.35 41Q82.35 41 82.35 41L82.35 41Q82.30 41.05 82.28 41.13Q82.25 41.20 82.15 41.35Q81.95 41.45 81.63 41.63Q81.30 41.80 80.90 42Q80.60 42.30 80 42.80Q79.40 43.30 78.65 43.20Q78.55 43.10 78.42 43.02Q78.30 42.95 78.10 42.90L77.95 42.70Q77.55 42.55 77.28 41.98Q77 41.40 76.75 40.85L76.50 39.80L76.50 39.55Q76.50 39.50 76.42 39.35Q76.35 39.20 76.20 38.35Q76 37.85 75.75 37.85Q75.70 37.80 75.60 37.90Q75.50 38 75.45 38Q75.35 37.90 75.35 37.90Q75.35 37.45 73.65 39.40Q73.55 39.50 73.30 39.65Q73.05 39.80 72.70 40.05L72.70 40.20Q72.70 40.75 72.05 41.10L71.80 40.90Q71.80 40.75 71.85 40.42Q71.90 40.10 71.90 39.95L72 39.95Q72 40 72.05 40L72.20 39.15Q72.60 38.90 72.50 38.35Q72.70 38.15 72.78 37.92Q72.85 37.70 73 37.25Q73 37.20 72.97 37.15Q72.95 37.10 72.95 37.05Q72.95 36.75 73.05 36.38Q73.15 36 73.30 35.60L73.30 34.90L73.10 34.75L73.10 34.40L72.95 34.30Q72.75 34.45 72.45 34.63Q72.15 34.80 71.70 35Q71.50 35.15 71.55 35.15L71.50 35.15Q71.50 35.10 71.45 35.10Q71.35 35.10 70.80 35.85Q70.60 36.05 70.28 36.38Q69.95 36.70 69.55 37.20L69.30 37.35L68 38.85Q67.90 39.05 67.90 39.15Q67.75 39.30 67.65 39.30L67.30 39.85Q67.20 39.95 67.15 40Q67.10 40.05 67.10 40.30Q66.70 40.55 66.35 41.25Q66.35 41.55 66.30 41.75Q66.10 42.10 66 42.60Q65.90 43.10 65.80 43.75Q65.50 44 65.10 44.55Q64.85 44.65 64.60 44.95Q64.50 45 64.42 45Q64.35 45 64.35 45M63.45 43.90Q63.45 43.90 63.45 43.90Q63.45 43.90 63.45 43.90Q63.45 43.90 63.45 43.90ZM88 43.80Q88 43.80 87.65 43.60Q87.50 43.60 87.20 43.55Q86.90 43.50 86.30 43.20Q86.20 43.15 86.02 43.08Q85.85 43 85.65 42.85Q85.60 42.60 85.20 42.10L85.10 42.10L84.95 42.20Q84.90 41.95 84.65 41.75Q84.65 41.55 84.45 41.30Q84.55 40.90 84.45 40.40Q84.35 40.10 84.05 39.80L84.20 39.60Q84.30 39.40 84.40 39.13Q84.50 38.85 84.60 38.50Q84.65 38.30 84.70 38.05Q84.75 37.80 84.85 37.45Q84.80 37.40 84.38 37.05Q83.95 36.70 83.65 36.85Q83.70 36.75 83.70 36.67Q83.70 36.60 83.70 36.60Q83.70 36.55 83.60 36.48Q83.50 36.40 83.50 36.30Q83.50 36.30 83.65 36.13Q83.80 35.95 83.85 35.95Q83.95 35.95 84.17 36.05Q84.40 36.15 84.50 36.15Q84.55 36.15 84.65 36.10Q84.75 36.05 84.80 36.05L85.65 36.25Q85.75 36.25 85.95 36.15L87.20 34.90Q87.35 34.90 87.38 34.83Q87.40 34.75 87.90 34.30Q87.95 34.30 88.07 34.25Q88.20 34.20 88.45 33.95L88.60 33.70Q90.05 32.70 91.15 32.70L91.50 32.70Q91.40 32.80 91.60 32.80Q91.65 32.80 91.75 32.75Q91.85 32.70 91.90 32.70L92.20 32.90L92.50 32.90Q92.70 33.10 92.70 33.10Q92.75 33.10 92.75 33.05L92.80 33.05Q92.70 33.05 93 33.35Q93 33.35 92.75 34.15Q92.60 34.25 92.32 34.55Q92.05 34.85 91.95 34.85Q91.90 34.85 91.72 34.75Q91.55 34.65 91.45 34.65Q91.40 34.65 91.15 34.75Q90.90 34.85 90.80 34.95Q90.75 35 90.57 35.08Q90.40 35.15 89.40 35.50Q89.45 35.85 89.25 35.90Q88.90 35.95 88.80 36.15L88.80 36.20Q89.05 36.45 89.95 36.45Q90 36.45 90.07 36.40Q90.15 36.35 90.25 36.35Q90.30 36.35 90.35 36.40L90.45 36.40Q90.50 36.40 90.60 36.33Q90.70 36.25 90.75 36.25Q90.85 36.25 91.35 36.40Q91.85 36.55 91.90 36.55Q92.10 36.55 92.20 36.30L92.40 36.45L92.65 36.45Q92.70 36.45 92.85 36.30L92.85 36.20Q92.45 35.95 92.25 35.95L92.25 35.55L92.50 35.45Q92.55 35.45 92.60 35.50L92.70 35.50L93.15 35.35Q93.30 35.65 93.50 35.85Q93.55 35.85 93.55 35.75Q93.70 35.80 93.97 36.02Q94.25 36.25 94.35 36.25Q94.40 36.25 94.50 36.17Q94.60 36.10 94.70 36.05L94.95 36.05Q95.40 36.05 95.95 35.85L96.10 35.95Q96.25 35.80 96.45 35.80Q96.55 35.80 96.55 35.85L96.60 35.85L97.15 35.75Q97.25 35.65 97.50 35.60Q97.75 35.55 98.35 35.55Q98.40 35.55 98.40 35.50Q98.60 35.40 98.82 35.35Q99.05 35.30 99.35 35.25Q99.40 35.20 99.57 35.10Q99.75 35 100.20 34.90Q100.30 34.90 100.40 34.90Q100.50 34.90 100.70 34.85L100.85 34.70Q100.90 34.70 100.90 34.75L100.95 34.75Q100.75 34.75 101.65 34.35Q101.70 34.40 101.70 34.50Q101.70 34.60 101.75 34.75Q101.60 34.75 101.55 34.95Q101.05 35 100.85 35.35L100.10 35.65Q100 35.65 99.88 35.65Q99.75 35.65 99.55 35.70L99.10 35.95Q99.05 35.95 99 35.90Q98.95 35.85 98.90 35.85Q98.95 35.85 98.63 36Q98.30 36.15 98.05 36.15L98 36.15Q98 36.10 97.95 36.10L97.80 36.25Q97.60 36.30 97.27 36.30Q96.95 36.30 96.55 36.35Q96.55 36.40 96.50 36.45Q96.60 36.45 96.47 36.48Q96.35 36.50 96.10 36.55Q95.95 36.55 95.70 36.55Q95.45 36.55 95.10 36.60Q95.05 36.60 94.95 36.70L95.60 37.45L95.60 37.60Q95.60 37.60 95.65 37.65Q95.70 37.70 95.95 38.10Q96.10 38.40 95.95 38.45Q96.10 38.95 96.10 38.80Q96.10 38.85 96.05 39.05Q96 39.25 95.90 39.60Q95.80 39.75 95.70 39.98Q95.60 40.20 95.50 40.50Q95.35 40.70 95.05 41.02Q94.75 41.35 94.25 41.85Q94.25 41.90 94.02 42.02Q93.80 42.15 93.55 42.50Q93.25 42.65 92.82 42.83Q92.40 43 91.85 43.25Q91.65 43.30 91.32 43.38Q91 43.45 90.60 43.50Q90.45 43.55 90.20 43.65Q89.95 43.75 89.55 43.75Q88.70 43.75 88.55 43.70L88 43.80M88.45 43.30Q88.45 43.35 88.47 43.27Q88.50 43.20 88.55 43.20L88.95 43.30Q89.25 43.30 89.32 43.23Q89.40 43.15 89.55 43.15L89.75 43.15Q89.90 43.20 90 43.20Q90.05 43.20 90.15 43.13Q90.25 43.05 90.30 43.05Q90.40 43.05 90.40 43.10L90.55 43L91.20 43Q91.20 43 91.52 42.92Q91.85 42.85 92.15 42.65L92.55 42.40Q92.95 42.15 93.25 42.02Q93.55 41.90 93.70 41.80Q94.45 41.25 94.70 40.60Q94.70 40.45 94.77 40.23Q94.85 40 94.85 39.95Q94.85 39.75 94.65 39.55Q94.65 39.45 94.67 39.25Q94.70 39.05 94.75 38.80L94.65 38.70Q94.55 38.30 94.30 37.90Q94.25 37.90 94.20 37.85Q94.15 37.80 94.10 37.40L93.85 37.20L93.85 36.95L93.30 36.95Q93.25 36.95 93.20 36.90Q93.15 36.85 93.10 36.85L92.85 36.85Q92.30 37.10 92.30 37.15L92.35 37.15Q92.35 37.15 92.30 37.15L91.90 37Q91.90 37 91.65 37.10Q91.40 37.20 91.10 37.20Q91.05 37.20 91 37.13Q90.95 37.05 90.85 37.05Q90.80 37.05 90.65 37.17Q90.50 37.30 90.45 37.30Q90.35 37.30 90.32 37.25Q90.30 37.20 90.25 37.20Q90.20 37.20 90.10 37.25Q90 37.30 89.95 37.30Q89.95 37.30 89.95 37.30L89.95 37.30Q89.95 37.30 89.60 37.10Q89.60 37.50 89.30 37.50Q89.10 37.50 89.10 37.15Q88.90 37.20 88.77 37.27Q88.65 37.35 88.50 37.35L88.35 37.35L88.20 37.20Q88.15 37.35 87.95 37.35Q87.80 37.35 87.75 37.30L87.75 37.15Q87.70 37.20 87.60 37.25Q87.50 37.30 87.40 37.35L87.40 37.40Q87.40 37.65 87.10 37.85Q86.80 38.05 86.25 38.35Q86.25 38.40 86.27 38.48Q86.30 38.55 86.30 38.60Q86.30 39.10 85.85 39.25L85.40 40.60Q85.50 40.60 85.50 40.65L86.05 42.30Q86.10 42.30 86.15 42.25L86.30 42.25Q86.45 42.25 86.55 42.58Q86.65 42.90 86.85 42.90Q86.90 42.90 86.90 42.85L86.95 42.85Q86.90 42.85 87.35 43.05Q87.35 43.05 87.65 43.15L87.75 43.05Q88.45 43.20 88.45 43.30ZM95.85 65.35Q95.85 65.35 95.82 65.35Q95.80 65.35 95.70 65.30L95.55 65.30Q95.25 65.30 94.35 65.05Q94.30 65.05 94.15 65.05Q94 65.05 93.80 65Q93.70 65 93.47 64.88Q93.25 64.75 93.20 64.75Q93.15 64.75 93.15 64.80L93.10 64.80Q93 64.80 92.92 64.72Q92.85 64.65 92.40 64.45Q92.25 64.45 91.95 64.35Q91.65 64.25 91.25 64Q90.85 63.75 90.30 63.40Q90.10 63.20 89.77 62.90Q89.45 62.60 89.15 62.25Q89.10 62.30 89.05 62.30Q89.05 62.15 89.10 62.10Q88.90 62 88.70 61.80Q88.70 61.80 88.20 60.80Q88.15 60.50 88.10 60.08Q88.05 59.65 87.95 59.15Q87.80 58.55 87.75 58.55Q87.80 58.45 87.85 58.27Q87.90 58.10 87.90 58L87.90 57.55Q88 57.15 87.95 57.10Q88.05 56.35 88.45 55.30L88.45 55.10L88.55 54.95L88.90 53.80Q89 53.70 89.10 53.70Q89.15 53.70 89.25 53.80L89.40 53.35Q90 52.45 91.25 51.05Q91.50 50.95 92.40 50.15Q92.65 50.05 93 49.60Q93.25 49.25 94.10 48.90Q94.05 49 94.05 49.10Q94.20 48.95 94.20 48.85Q94.30 48.70 94.47 48.48Q94.65 48.25 94.90 48Q95 47.95 95.07 47.90Q95.15 47.85 95.25 47.80Q95.80 47.65 95.95 47.50Q96.40 47.50 96.90 46.75L96.95 46.75Q96.95 46.80 97 46.80Q97.05 46.80 97.15 46.67Q97.25 46.55 97.30 46.55L97.35 46.55Q97.35 46.60 97.40 46.60Q97.45 46.60 97.65 46.38Q97.85 46.15 97.90 46.15Q98 46.15 98.05 46.23Q98.10 46.30 98.15 46.30Q98.40 46.30 98.60 46Q98.80 46 99.15 45.70Q99.15 45.70 99.15 45.73Q99.15 45.75 99.20 45.80Q99.45 45.55 100.35 45.20Q100.40 45.15 100.45 45.08Q100.50 45 100.85 45L101.05 44.85Q101.10 44.85 101.10 44.90L101.25 44.90Q101.20 44.95 101.50 44.77Q101.80 44.60 101.90 44.60Q101.90 44.60 101.90 44.60L101.90 44.60Q101.85 44.60 101.95 44.70L102.05 44.60L102.10 44.65L102.30 44.45Q102.70 44.35 103.05 44.15L103.15 44.25Q103.40 44 103.50 44Q103.55 44 103.55 44.05L103.60 44.05Q103.85 44.05 104.10 43.80Q104.10 43.90 104.20 43.90Q104.25 43.90 104.27 43.85Q104.30 43.80 104.35 43.80Q104.40 43.80 104.42 43.85Q104.45 43.90 104.50 43.90Q104.55 43.90 104.67 43.80Q104.80 43.70 104.85 43.70Q105.40 43.45 105.90 43.40Q105.95 43.40 106.05 43.30Q106.15 43.20 106.25 43.20Q106.30 43.20 106.30 43.25Q106.30 43.30 106.35 43.30Q106.40 43.30 106.52 43.23Q106.65 43.15 106.70 43.15L107.15 43.05Q107.20 43.05 107.20 43.10L107.30 43.10L108.50 42.75Q108.55 42.75 108.60 42.80L108.65 42.80Q108.80 42.80 108.80 42.75Q108.80 42.80 108.90 42.80L109 42.80Q109 42.75 109.05 42.75Q109.15 42.75 109.13 42.80Q109.10 42.85 109.15 42.85Q109.20 42.85 109.38 42.77Q109.55 42.70 109.60 42.70Q109.60 42.70 109.60 42.70L109.60 42.70Q109.55 42.70 109.70 42.85Q109.90 42.65 109.85 42.65Q109.95 42.65 109.90 42.70L109.95 42.70Q110.15 42.70 110.50 42.50L110.35 42.20Q110.25 42.10 110.25 42Q110.25 41.90 110.32 41.70Q110.40 41.50 110.40 41.45Q110.40 41.35 110.32 41.27Q110.25 41.20 110.25 41.15L110.25 40.75Q110.25 40.55 110.10 40.35Q110.15 40.30 110.15 40.15Q110.10 39.75 110.05 39.42Q110 39.10 109.90 38.85Q109.90 38.55 109.70 38.15Q109.70 37.95 109.67 37.67Q109.65 37.40 109.60 37.05L109.30 36.80L109.20 36.80L109 37.20Q108.65 37.55 108.05 38.30Q107.70 38.50 107.30 39Q107.05 39.20 106.65 39.75Q106.20 40 105.80 40.55Q105.30 40.80 104.90 41.25Q104.85 41.25 104.67 41.45Q104.50 41.65 104.35 41.60L104.15 41.85L102.65 42.60L102.25 42.90Q101.60 43.20 101.47 43.20Q101.35 43.20 100.95 43.50Q100.70 43.55 100.60 43.58Q100.50 43.60 100.55 43.60Q100.30 43.60 100.15 43.45L100.05 43.55L99.90 43.55Q99.60 43.55 99.10 43.10Q98.60 42.65 98.50 42.45Q98.45 42.25 98.42 41.95Q98.40 41.65 98.35 41.05Q98.30 41.10 98.30 40.95Q98.30 40.90 98.60 40.40Q98.70 40.50 98.70 40.55L98.70 40.65Q98.70 40.70 98.70 40.83Q98.70 40.95 98.60 41.15Q98.70 41.25 98.70 41.30Q98.95 41.20 99 40.55Q99 40.55 99 40.58Q99 40.60 99.05 40.65L99.50 40.35L99.50 40.30Q99.50 40.35 99.60 40.45L99.60 40.35Q99.60 40.10 99.50 40.10L99.30 40.15Q99.35 39.95 99.45 39.80Q99.40 39.80 99.30 39.80Q99.30 39.80 99.22 39.75Q99.15 39.70 99.05 39.60L98.95 39.70L98.65 39.50L98.75 39.35L98.60 39.35Q98.80 39.15 98.95 39.15Q98.95 39.10 98.95 39Q98.95 38.90 98.90 38.80Q99 38.70 99.20 38.33Q99.40 37.95 99.30 37.85L99.30 37.55Q99.40 37.55 99.40 37.35Q99.40 37.40 99.45 37.45Q99.75 37.25 99.95 36.75Q99.95 36.65 100.05 36.65Q100.10 36.65 100.10 36.70L100.20 36.70Q100.35 36.70 100.40 36.48Q100.45 36.25 100.70 36.20Q100.80 36.05 101 35.77Q101.20 35.50 101.65 35.10Q101.55 35 101.25 35L99.70 35.10Q99.70 35.10 99.25 35Q98.80 34.90 98.55 34.90Q98.65 34.80 98.40 34.65L98.55 34.55L99 34.65Q99.05 34.65 99.10 34.60L99.25 34.60L99.35 34.50Q99.50 34.65 99.55 34.65L100.30 34.65Q100.65 34.65 100.75 34.67Q100.85 34.70 100.75 34.70Q100.85 34.70 100.95 34.65L101.10 34.65L101.45 34.75Q101.50 34.75 101.65 34.67Q101.80 34.60 101.85 34.60L101.95 34.60Q102 34.65 102.05 34.65Q102.15 34.65 102.38 34.58Q102.60 34.50 102.65 34.50Q102.75 34.50 102.75 34.55Q102.75 34.60 102.80 34.60Q103 34.60 103.38 34.55Q103.75 34.50 103.95 34.50Q104 34.50 104.45 34.23Q104.90 33.95 104.95 33.95Q105 33.95 105.05 34L105.20 33.85Q105.20 33.85 105.50 33.95L105.50 34.10Q105.50 34.25 104.50 34.80L102.95 36.30Q102.85 36.30 102.80 36.35Q102.30 36.90 101.55 38.20Q101.45 38.20 101.35 38.10Q101.40 38.15 101.40 38.35Q101.30 38.45 101.17 38.67Q101.05 38.90 100.85 39.20Q100.70 39.55 100.70 39.95Q100.70 40.55 100.85 41.10Q100.90 41.05 101.05 41.05L101.05 41.40L101.25 41.35L101.35 41.45L101.45 41.45Q101.50 41.50 101.67 41.55Q101.85 41.60 101.90 41.60Q102 41.60 102 41.55L102.05 41.55Q102.15 41.55 102.25 41.52Q102.35 41.50 102.50 41.45Q102.55 41.65 102.65 41.65Q102.70 41.65 102.82 41.52Q102.95 41.40 103 41.40L103.10 41.40Q103.10 41.45 103.15 41.45Q103.30 41.45 103.72 41.15Q104.15 40.85 104.20 40.65Q104.25 40.70 104.30 40.70Q104.20 40.65 104.75 40.42Q105.30 40.20 105.60 39.70L105.95 39.80Q106.10 39.40 106.85 38.75L107.10 38.35Q107.15 38.30 107.25 38.17Q107.35 38.05 107.80 37.75L108 37.40Q108.05 37.35 108.15 37.35Q108.25 37.35 108.40 37.30L108.75 36.80Q108.90 36.70 109.20 36.35Q109.30 36.35 109.35 36.30L109.35 36.05L109.20 35.75Q109 35 108.75 34.35Q108.85 34.15 108.80 34Q108.75 33.95 108.65 33.95L108.70 33.75Q108.70 33.70 108.52 33.27Q108.35 32.85 108.35 32.80Q108.35 32.55 108.55 32.50L108.65 32.50Q108.80 33.45 109.10 34Q109.20 34.35 109.40 34.65Q109.40 34.55 109.45 34.55L109.45 35.25L109.50 35.30L109.55 35.30L109.90 35L109.90 34.80Q109.95 34.75 110.02 34.65Q110.10 34.55 110.30 34.45Q110.35 34.40 110.35 34.15Q110.55 33.95 110.75 33.90Q110.85 33.65 111.02 33.33Q111.20 33 111.45 32.55L111.70 32.40L111.85 32.60Q111.75 32.60 111.40 33.40Q111.40 33.60 111.10 34.30Q111.10 34.20 110.95 34.20Q110.95 34.25 110.50 35.30Q110.40 35.30 109.90 35.95Q109.85 36 109.85 36.10Q109.85 36.30 110 36.45Q110.05 36.80 110.13 37.27Q110.20 37.75 110.40 38.40L110.55 38.85Q110.55 38.90 110.50 38.95Q110.55 39.20 110.63 39.58Q110.70 39.95 110.85 40.45L110.85 40.50Q110.85 40.60 110.92 40.73Q111 40.85 111 40.95L111 41.25L111.20 41.70Q111.30 42.10 111.55 42.65Q111.80 42.65 112.10 42.65Q112.40 42.65 112.80 42.70Q112.90 42.70 113.05 42.75L113.25 42.75L113.30 42.85Q113.40 42.90 113.65 42.80L114.15 42.80Q114.35 43 114.45 43Q114.75 43 114.70 42.95L114.95 42.95L114.45 43.20L114.30 43.10L114.35 43.10Q114.35 43.10 114.02 43.08Q113.70 43.05 113 43Q113 42.90 112.90 42.90L112.30 43L111.90 42.90Q111.75 42.90 111.60 43.05L111.50 43.45Q111.50 43.45 111.65 43.95L111.65 44.10Q111.65 44.30 111.72 44.55Q111.80 44.80 111.85 45.10L111.75 46.55L111.70 48.40Q111.90 48.55 111.90 48.80L111.75 49.30L111.75 49.55Q111.75 49.70 111.75 49.85Q111.75 50 111.80 50.15Q111.80 50.20 111.80 50.33Q111.80 50.45 111.75 50.65Q111.70 50.70 111.63 50.83Q111.55 50.95 111.55 51.25L111.55 52.20Q111.50 52.20 111.45 52.33Q111.40 52.45 111.35 52.85Q111.35 53.10 111.17 53.42Q111 53.75 110.85 54.75Q110.50 55 110.25 55.85Q110.15 56.20 109.97 56.55Q109.80 56.90 109.60 57.15Q109.60 57.50 109.15 58.20Q108.95 58.40 108.70 58.55Q108.30 59.45 107.05 60.55L107.05 60.65Q106.95 60.80 106.60 61.15L104.75 62.60Q104.30 63.10 103.80 63.25Q103.50 63.35 103.15 63.65Q103.15 63.55 103.10 63.55L102.10 64Q101.60 64.20 101.57 64.33Q101.55 64.45 101.40 64.45L101.30 64.45Q101.30 64.40 101.25 64.40Q101.05 64.40 100.65 64.60Q100.15 64.60 99.60 64.90Q98.85 64.90 98.72 64.92Q98.60 64.95 98.25 65.10Q97.90 65.25 97.85 65.25L97.65 65.25Q97.50 65.20 97.40 65.20Q97.35 65.20 97.30 65.28Q97.25 65.35 97.20 65.35Q97.15 65.35 97.07 65.28Q97 65.20 96.95 65.20Q97 65.25 96.85 65.30Q96.60 65.30 96.45 65.33Q96.30 65.35 96.25 65.35Q96.25 65.35 96.25 65.35Q96.15 65.35 96.25 65.35Q96.20 65.35 96.20 65.30Q96.20 65.25 96.15 65.25Q96.10 65.25 96 65.30Q95.90 65.35 95.85 65.35M111.85 32.60L111.85 32.60Q111.80 32.60 111.85 32.60M104.35 40.70L104.35 40.70Q104.35 40.70 104.35 40.70Q104.35 40.70 104.35 40.70M93.60 63.80L93.85 63.80Q93.90 63.80 94.02 63.73Q94.15 63.65 94.25 63.60Q94.25 63.60 94.25 63.60L94.30 63.60Q94.30 63.60 94.25 63.60Q94.30 63.65 94.65 63.80L94.65 63.75L94.70 63.70Q94.75 63.75 94.85 63.75L95 63.65Q95.05 63.70 95.20 63.70Q95.45 63.60 95.65 63.40Q96.05 63.65 96.10 63.65Q96.15 63.65 96.15 63.60L96.25 63.60L96.90 63.75Q97.05 63.75 97.17 63.63Q97.30 63.50 97.55 63.50L97.75 63.50L97.75 63.65L98.10 63.65Q98.25 63.70 98.20 63.75Q98.25 63.75 98.40 63.50Q98.55 63.45 98.63 63.42Q98.70 63.40 98.70 63.40Q98.65 63.35 98.70 63.30Q99.55 62.75 99.60 62.75Q99.80 62.75 99.85 62.80L99.85 63.10Q99.85 63.25 99.55 63.50Q100 63.40 100.05 63.35L100.05 63.15Q100.70 62.90 101 62.75Q101.30 62.60 101.30 62.60L102.20 61.85Q102.30 61.95 102.25 61.95Q102.30 61.95 102.45 61.75L102.45 61.55L102.60 61.65Q102.65 61.60 102.70 61.60Q102.70 61.60 102.80 61.70Q102.80 61.55 102.90 61.55L103 61.55Q103.05 61.60 103.10 61.60Q103.15 61.60 103.27 61.50Q103.40 61.40 103.50 61.40Q103.60 61.40 103.80 61.55Q103.90 61.45 104 61.25Q104.10 61.05 104.20 60.85Q104.45 60.70 104.40 60.70Q104.45 60.70 104.60 60.75Q104.75 60.80 104.85 60.80Q104.90 60.80 105.15 60.55Q105.15 60.30 105.10 60.15L105.25 59.65Q105.25 59.60 105.90 59.15Q106 59 106.22 58.70Q106.45 58.40 107 58.35Q107.10 57.60 107.40 57.45L107.40 57L107.75 56.70Q107.65 56.45 107.75 56Q107.85 56 108.13 55.70Q108.40 55.40 108.55 55.40Q108.75 55.40 108.75 55.05Q108.75 54.95 108.72 54.77Q108.70 54.60 108.65 54.40Q108.65 54.35 108.82 54.17Q109 54 109.15 54Q109.35 53.75 109.25 53.30Q109.55 52.95 109.80 52.05L110 51.65Q110.05 51.70 110.20 51.70L110.20 51.30Q110.20 51.05 110.20 50.85Q110.20 50.65 110.15 50.45Q110.30 50.10 110.25 50Q110.20 50 110.20 49.95Q110.30 49.85 110.35 49.25Q110.35 49.15 110.35 49.02Q110.35 48.90 110.40 48.70L110.55 48.85Q110.55 47.65 110.60 47.80Q110.80 47.75 110.80 46.20Q110.80 45.95 110.80 45.45Q110.80 44.95 110.75 44.25Q110.70 43.65 110.45 42.95Q110.25 43.10 109.85 43.10L109.40 43Q109.40 43.15 109.35 43.15L109.20 43.05Q109.05 43.35 108.55 43.35L107.85 43.45L107.80 43.55Q107.70 43.50 107.40 43.50Q107.35 43.55 107.35 43.60Q107.35 43.65 107.30 43.65L107.10 43.65Q107 43.60 106.90 43.60Q106.85 43.60 106.70 43.70Q106.55 43.80 106.50 43.80L106.30 43.80Q106.20 43.75 106.10 43.75Q106.20 43.90 105.90 44L105.80 43.90Q105.70 44 105.65 44L105.65 43.85Q105.60 43.90 105.47 44Q105.35 44.10 105.30 44.10L105.25 44.10Q105.25 44.05 105.15 44.05Q105.10 44.05 104.75 44.23Q104.40 44.40 104.35 44.40L104.30 44.40Q104.30 44.35 104.25 44.35Q104.30 44.35 104.27 44.38Q104.25 44.40 104.15 44.45L103.90 44.45Q103.25 44.45 102.70 44.85Q101.05 45.90 101.20 45.85Q101.20 45.85 101.20 45.85L101.20 45.85Q101.15 45.75 100.85 45.60Q100.75 45.65 100.65 45.73Q100.55 45.80 100.55 45.80Q100.65 46 100.55 46.10L100.40 46.10Q100.45 46.25 100.25 46.45Q100.15 46.45 100 46.25L99.40 46.20Q99.20 46.20 98.95 47.05Q98.60 47.10 98.10 47.55L98.10 47.70Q98.05 47.75 98 47.80Q97.95 47.85 97.85 47.95L97.70 47.80Q97.65 47.80 97.32 48.02Q97 48.25 96.95 48.25L96.60 48.15Q96.55 48.15 96.13 48.63Q95.70 49.10 95.60 49.10Q95.55 49.10 95.55 49.05L95.50 49.05Q95.45 49.05 95.22 49.25Q95 49.45 94.90 49.55L94.90 49.65Q94.90 49.80 94.65 50.05L94.55 50.05Q94.55 50 94.50 50Q94.45 50 94.35 50.10Q94.25 50.20 94.20 50.20L94.10 50.20L94.10 50.10Q94.10 50 93.95 49.70Q93.65 50 93.65 50.25Q93.70 50.25 93.75 50.30L93.25 50.50Q93.30 50.60 93.20 50.70L93.15 50.70Q93.15 50.65 93.10 50.65L92.95 50.80Q93 50.85 93 50.95Q92.65 51.15 92.30 51.40Q92.35 51.40 92.40 51.45Q92.25 51.60 92.25 51.80L91.85 51.80L91.85 51.95Q91.85 52.50 91.40 52.65Q91.40 52.70 91.42 52.73Q91.45 52.75 91.45 52.75Q91.45 52.95 91.05 53.25L90.50 53.70Q90.50 53.75 90.57 53.80Q90.65 53.85 90.65 53.90Q90.60 53.95 90.55 53.95Q90.50 53.90 90.50 53.85Q90.45 54.10 90.20 54.40Q89.95 54.70 89.75 55.30Q89.65 55.40 89.60 55.45Q89.55 55.50 89.35 55.75Q89.15 56.55 88.75 56.55L88.55 56.50Q88.55 56.50 88.55 56.52Q88.55 56.55 88.50 56.65L88.50 56.85L88.40 57Q88.45 57 88.50 57.05L88.60 56.95L88.70 57.05L88.70 57.35Q88.70 57.50 88.50 57.55Q88.45 57.90 88.45 57.90Q88.45 58.20 88.75 58.35Q88.60 58.40 88.45 58.65Q88.40 58.60 88.35 58.60L88.45 59.05Q88.35 59.15 88.45 59.75Q88.50 59.80 88.55 59.83Q88.60 59.85 88.65 59.95L88.65 60.05Q88.65 60.25 88.60 60.45Q88.70 60.80 89.02 61.17Q89.35 61.55 89.50 61.85L89.70 61.70Q89.85 61.75 90.02 62Q90.20 62.25 90.55 62.50L90.65 62.40Q90.85 62.60 90.97 62.80Q91.10 63 91.20 63.10Q91.45 62.95 91.65 62.95Q91.85 62.95 92 63.10Q92.15 63.25 92.40 63.40Q92.50 63.25 92.60 63.25L92.90 63.25Q93 63.45 93.15 63.65L93.25 63.75Q93.45 63.75 93.60 63.80M87.75 58.60Q87.75 58.50 87.75 58.55Q87.75 58.55 87.75 58.60M98.20 63.75Q98.20 63.75 98.20 63.75Q98.20 63.75 98.20 63.75L98.20 63.75ZM147.50 51.40Q147.50 51.35 147.40 51.23Q147.30 51.10 147.30 51.05Q147.30 51 147.43 50.80Q147.55 50.60 147.60 50.50Q147.65 50.45 147.97 50.13Q148.30 49.80 148.35 49.80Q148.30 49.80 148.35 49.80L148.35 49.80Q148.35 49.85 148.50 50Q148.60 49.85 148.65 49.70Q148.70 49.55 148.75 49.35Q148.95 49.30 149.25 49.05Q149.40 48.85 149.75 48.40Q150.10 47.95 150.90 47Q151.20 46.95 151.55 46.05Q151.55 46 151.55 45.90Q151.55 45.80 151.60 45.65Q151.65 45.70 151.75 46Q152.05 45.90 152.10 45.70Q152.75 45.15 153.50 43.75Q154.05 43.20 154.25 43.15Q154.35 42.55 154.25 42.55Q154.40 42.50 154.50 42.20Q154.70 42.20 155.35 41.30L155.55 41.05Q155.90 40.90 156.45 40.20Q156.55 40.10 156.65 40Q156.75 39.90 156.95 39.80Q157 39.70 156.90 39.50Q157.20 39.50 157.10 39.60L157.15 39.60Q157.45 39.60 157.50 38.90Q157.45 38.90 157.50 38.85L157.50 38.90Q157.50 38.90 157.60 38.90Q157.55 38.90 157.90 38.55Q158 38.45 158.20 38.25Q158.40 38.05 158.45 37.80L158.45 37.60Q158.50 37.50 158.57 37.40Q158.65 37.30 158.70 37.20Q158.95 36.70 159.05 36.70Q159 36.65 158.95 36.55Q158.90 36.45 158.85 36.35Q158.25 37.05 158.25 37.20Q158.25 37.35 158.20 37.50Q158.10 37.50 157.97 37.42Q157.85 37.35 157.75 37.35Q157.10 37.35 157.45 37.80L157.20 37.90Q156.70 38.55 156.25 39.02Q155.80 39.50 155.40 39.90L154.30 40.80Q154.25 40.85 154.25 40.90Q154.25 40.95 153.85 41.20Q153.65 41.40 153.43 41.67Q153.20 41.95 152.95 42.30L151.80 43.55Q151.60 43.75 151.25 44.02Q150.90 44.30 150.45 44.70L150 45.20Q150 45.10 149.90 45Q149.95 44.75 150.22 44.40Q150.50 44.05 151.15 43.35L153.50 40.75L154.70 39.75Q155.20 39.10 156.45 37.70Q156.85 37.50 157.20 37.20L157.30 37Q158.20 36.30 158.80 35.50L159.25 35.25Q159.35 35.10 159.63 34.88Q159.90 34.65 160.50 34.25Q161.80 33 161.75 32.70Q162.35 32.40 162.30 31.65L162.40 32Q162.70 32 162.80 31.65Q162.90 31.30 162.95 31L164.05 29L164.25 28.25Q164.35 28.20 164.40 27.95Q164.45 27.70 164.95 26.95L164.95 26.80Q164.95 26.65 164.97 26.50Q165 26.35 165.05 26.20Q165.15 26.15 165.35 25.85Q165.45 25.75 165.45 25.45L165.35 25.10L165.35 24.85Q165.35 24.85 165.65 24.50Q165.75 24.40 165.65 24.30L166.10 23.50L166.10 23.30Q166.10 23.20 166.10 22.97Q166.10 22.75 166.05 22.45L166.15 22.30L166.15 21.60Q166.30 21.05 166.30 21.25Q166.30 20.75 166.25 20.60L165.50 19.10Q165.30 18.80 164.90 18.80L164.70 18.85Q164.70 18.75 164.75 18.70Q164.60 18.45 164.40 18.45L164.30 18.45Q164.30 18.50 164.25 18.50L164.25 18.50L164.20 18.50Q164.25 18.50 164.25 18.50Q164.25 18.45 163.75 18.30Q163.45 18.20 163.20 18.20Q163.15 18.20 163.20 18.25Q163.20 18.35 163.15 18.35Q163.05 18.35 163.03 18.30Q163 18.25 162.95 18.25Q162.85 18.25 162.78 18.35Q162.70 18.45 162.65 18.45Q162.55 18.45 162.30 18.40Q162.05 18.35 161.95 18.35L160.85 18.50L159.80 18.60Q159.50 18.80 159.38 18.80Q159.25 18.80 158.70 19Q158.25 19.20 158.05 19.20Q157.95 19.20 157.05 19.50L156.90 19.70Q154.05 20.70 151.85 21.95Q151.65 22 151.43 22.13Q151.20 22.25 150.85 22.35L147.40 24Q146.25 24.70 146.45 24.70L146.35 24.70Q146.35 24.65 146.25 24.65Q146.35 24.65 146 24.80Q145.65 24.95 145.20 25.45Q144.70 25.45 144.65 25.65Q144.55 25.65 144.65 25.55Q144.65 25.50 144.60 25.50Q144.55 25.50 144.18 25.88Q143.80 26.25 143.75 26.25Q143.70 26.25 143.65 26.20L143.60 26.20Q143.60 26.20 142.95 26.45Q142.80 26.50 142.80 26.70L141.75 27.30Q141.80 27.30 141.10 27.75L139.85 28.35L138.15 29.25Q138.10 29.25 138.10 29.40Q138.10 29.35 138 29.35Q137.65 29.35 137.25 29.70Q137.15 29.70 137.05 29.75Q136.70 29.95 136.10 30.35Q136.05 30.35 135.40 30.85Q135.30 30.75 135.15 30.75Q135.10 30.75 134.97 30.85Q134.85 30.95 134.80 30.95Q134.70 30.95 134.72 30.90Q134.75 30.85 134.70 30.85Q134.35 30.85 134.05 31.45Q133.65 31.45 133.28 31.73Q132.90 32 132.80 32Q132.75 32 132.35 32.30Q132.15 32.35 131.85 32.45Q131.55 32.55 131.15 32.70Q131.05 32.75 130.75 33Q130.45 33.25 130.35 33.25L130.30 33.25Q130.35 33.20 130.25 33.20Q130.20 33.20 130.13 33.30Q130.05 33.40 130 33.40Q129.90 33.40 129.05 33.65L128.90 33.55Q128.40 33.90 128.35 33.90Q128.30 33.90 128.25 33.85Q128.20 33.80 128.10 33.80Q128 33.80 127.77 33.95Q127.55 34.10 127.45 34.10L127.40 34.10Q127.40 34.05 127.35 34.05Q127.30 34.05 127.32 34.13Q127.35 34.20 127.25 34.20Q127.20 34.20 127.13 34.15Q127.05 34.10 127 34.10Q126.90 34.10 126.92 34.17Q126.95 34.25 126.90 34.25Q126.80 34.25 126.85 34.20L126.80 34.20Q126.50 34.20 126.60 34.25L126.50 34.35Q126.30 34.35 125.97 34.30Q125.65 34.25 125.60 34.25Q125.55 34.25 125.50 34.33Q125.45 34.40 125.40 34.40Q125.30 34.40 124.80 34.25Q124.30 34.10 124.25 34.10Q124.30 34.10 124 34.25L123.15 33.80Q122.90 33.65 122.90 33.60L122.90 33.65L122.85 33.65Q122.70 33.65 121.90 32.55L121.90 32.20Q121.95 32.15 121.95 32.05Q121.95 31.45 122.25 30.40Q122.15 30.25 122.90 29Q123.15 28.80 123.40 28.52Q123.65 28.25 123.90 27.85Q124.45 27.35 124.80 26.90Q124.95 26.75 125.35 26.60L125.45 26.40Q125.70 26.15 126.13 25.82Q126.55 25.50 127.10 25.10Q127.20 25.05 127.40 24.85Q127.60 24.65 127.95 24.55Q128.30 24.05 128.50 24.05L128.55 24.05Q128.55 24.10 128.60 24.10Q128.60 24.10 128.67 24Q128.75 23.90 129 23.90L129.15 23.80Q129.25 23.80 129.25 23.75L129.30 23.75L129.80 23.40L129.80 23.75L128.90 24.40L127.95 24.90L126.70 25.90Q126.45 26.25 125.75 26.65Q125.65 27 124.85 27.60Q124.85 27.65 124.85 27.75Q124.85 27.85 124.80 27.95Q124.80 27.95 124.77 27.95Q124.75 27.95 124.70 27.90Q124.50 28.10 124.40 28.50Q124.30 28.40 124.25 28.40Q124.20 28.50 124.13 28.70Q124.05 28.90 123.85 29.15L123.50 29.30L123.50 29.40Q123.50 29.85 122.95 30.15Q122.95 30.20 122.97 30.20Q123 30.20 123 30.25Q123 30.45 122.80 30.77Q122.60 31.10 122.60 31.20Q122.60 31.25 122.67 31.40Q122.75 31.55 122.75 31.65Q122.75 31.70 122.75 31.80Q122.75 31.90 122.70 32.05Q122.75 32.20 122.90 32.33Q123.05 32.45 123.25 32.55Q123.55 32.70 123.60 32.75Q123.60 32.75 123.65 32.75Q123.70 32.75 123.70 32.85Q123.70 32.95 123.75 32.95Q123.85 32.95 123.90 32.83Q123.95 32.70 124.05 32.70Q124.10 32.70 124.10 32.75L124.20 32.75Q124.30 32.75 124.30 32.60Q124.35 32.65 124.40 32.70Q124.45 32.75 124.55 32.85L124.65 32.85Q124.80 32.85 124.95 32.80Q125.20 32.70 125.40 32.80L126.20 32.95Q126.30 32.95 126.55 32.80Q126.80 32.65 127.10 32.65L127.30 32.65Q127.35 32.70 127.50 32.70L127.60 32.60Q127.75 32.55 128 32.42Q128.25 32.30 128.30 32.30Q128.35 32.30 128.45 32.35Q128.55 32.40 128.60 32.40Q128.45 32.40 128.88 32.23Q129.30 32.05 130.05 31.90Q129.95 31.80 130.10 31.80L130.25 31.80Q130.30 31.85 130.45 31.85Q130.50 31.85 130.50 31.80Q130.50 31.75 130.55 31.75L130.65 31.75Q130.60 31.80 130.70 31.80Q130.75 31.80 130.85 31.67Q130.95 31.55 131 31.55Q131.05 31.55 131.05 31.60L131.15 31.60Q131.20 31.60 131.25 31.52Q131.30 31.45 131.35 31.45L131.45 31.45Q131.50 31.50 131.55 31.50Q131.80 31.40 132.20 31.17Q132.60 30.95 133.15 30.65Q133.25 30.70 133.45 30.65Q133.65 30.50 134 30.35Q134.35 30.20 135.25 29.85Q135.50 29.70 136.05 29.30Q136.60 28.90 136.70 28.90Q136.75 28.90 136.70 28.95Q136.65 29 136.75 29Q137.25 29 137.65 28.45Q137.75 28.40 138 28.20Q138.25 28 138.35 28Q138.40 28 138.42 28.05Q138.45 28.10 138.50 28.10Q138.55 28.10 138.80 27.90Q139.05 27.70 139.10 27.70L139.15 27.70Q139.15 27.75 139.20 27.75Q139.50 27.75 140.30 27Q140.65 26.65 140.60 26.65Q140.70 26.65 140.65 26.70L140.75 26.70Q141 26.70 141.20 26.55Q142.70 25.65 142.65 25.65L142.75 25.65Q142.75 25.70 142.80 25.70Q142.60 25.70 144.15 24.90Q144.35 24.90 144.85 24.50Q144.90 24.50 145 24.45Q145.10 24.40 145.55 24.15Q146.05 23.85 146.05 23.75L146.30 23.75Q146.20 23.75 146.30 23.85Q146.65 23.60 147.18 23.25Q147.70 22.90 148.35 22.50L148.40 22.50Q148.45 22.50 148.85 22.30L149.45 22Q149.60 21.90 149.70 21.60L149.85 21.75Q149.95 21.65 150.25 21.47Q150.55 21.30 151.25 21L151.50 20.75Q151.70 20.70 151.93 20.60Q152.15 20.50 152.40 20.40L153.30 19.70Q153.55 19.65 153.97 19.45Q154.40 19.25 155.25 18.80Q155.45 18.80 155.80 18.65Q156.65 18.15 156.60 18.15Q156.65 18.15 156.65 18.20L156.70 18.20Q156.85 18.20 157.75 17.85Q158.75 17.45 158.85 17.30Q158.95 17.40 159.10 17.40Q159.15 17.40 159.22 17.32Q159.30 17.25 159.35 17.25Q159.40 17.25 159.50 17.35Q159.60 17.35 159.65 17.15Q159.70 17.20 159.90 17.20Q160 17.20 160.32 17.02Q160.65 16.85 160.70 16.85L160.95 16.85Q161.05 16.90 161.15 16.90Q161.95 16.90 162.35 16.50Q162.40 16.55 162.65 16.55Q162.70 16.55 162.93 16.55Q163.15 16.55 163.60 16.60Q164.10 16.65 164.32 16.65Q164.55 16.65 164.60 16.65Q164.45 16.65 164.75 16.55Q164.70 16.60 164.70 16.70Q164.70 16.90 165 17.05Q165.30 16.60 165.50 16.60Q165.80 16.60 167.05 17.15Q167.05 17.15 167.13 17.27Q167.20 17.40 167.30 17.40L167.35 17.40Q167.35 17.35 167.40 17.35Q167.70 17.35 167.90 18.30Q168.10 18.40 168.25 18.40Q168.30 18.50 168.43 18.70Q168.55 18.90 168.75 19.15Q168.75 19.20 168.78 19.32Q168.80 19.45 168.85 19.60Q168.95 19.95 169 20.20Q169.05 20.45 169.10 20.70L169.10 21.25Q169.10 21.30 169.18 21.42Q169.25 21.55 169.25 21.60Q169.25 21.65 169.18 21.77Q169.10 21.90 169.10 21.95Q169.15 22.10 169.15 22.60L169 22.80Q168.95 23.10 168.85 23.50Q168.75 23.90 168.75 24.30Q168.45 24.40 168.40 24.60Q168.30 25.10 168.15 25.13Q168 25.15 168.05 25.85Q167.75 26.15 167.50 26.60Q167.45 27.05 167.05 27.80L167.10 28L166.70 28.30Q166.70 28.30 166.80 28.75Q166.80 28.80 166.95 28.80Q167.15 28.80 167.30 28.40Q167.10 28.40 167.95 28.15Q168.35 28.05 168.32 27.98Q168.30 27.90 168.65 27.75Q169 27.50 169.30 27.27Q169.60 27.05 169.85 26.90Q170 26.90 170.25 26.72Q170.50 26.55 170.95 26.30L171.05 26.20L171.65 25.80Q171.80 25.75 172.03 25.68Q172.25 25.60 172.55 25.45Q173.05 25.05 173.30 24.85Q173.55 24.65 173.55 24.65Q173.60 24.65 173.60 24.70L173.70 24.70Q173.55 24.70 174.55 24.15Q175.20 23.95 176.50 23.15Q176.45 23.30 176.55 23.30Q176.80 23.30 177.50 22.90Q177.90 22.65 178.10 22.75Q178.15 22.75 178.20 22.70Q178.25 22.65 178.45 22.70L179 22.25Q179 22.35 179.10 22.35L179.30 22.35Q179.55 22.35 179.78 22.20Q180 22.05 180.20 22L180.35 22Q180.40 22.05 180.50 22.05L182.05 22.05Q182.10 22.05 182.18 21.97Q182.25 21.90 182.30 21.90Q182.35 21.90 182.32 21.97Q182.30 22.05 182.40 22.05L182.95 21.90Q183.15 21.90 184.30 22.70L184.45 22.60L184.90 23.30Q185.20 23.40 185.25 23.40L185.25 23.75Q185.30 23.90 185.30 24.05Q185.30 23.95 184.95 24.45L184.95 24.80Q184.90 24.85 184.85 24.90Q184.80 24.95 184.75 25.05Q184.75 25.25 184.75 25.50Q184.75 25.75 184.70 26.10L184.15 27.50L182.85 29.55Q182.75 29.65 182.57 29.82Q182.40 30 182.50 30.30Q182.05 30.50 181.65 31.15L181.70 31.70L181.85 31.55Q181.95 31.45 182.18 31.32Q182.40 31.20 182.65 31Q182.70 30.90 182.95 30.65L184.40 29.75Q185.25 29.30 185.05 29.30L185.15 29.30Q185.15 29.35 185.20 29.35Q185.25 29.35 185.38 29.25Q185.50 29.15 185.55 29.15Q185.60 29.15 185.60 29.20L185.70 29.20Q185.75 29.20 185.82 29.15Q185.90 29.10 185.95 29.10Q186 29.10 186.65 28.85Q187.30 28.60 187.35 28.60Q187.40 28.60 187.55 28.67Q187.70 28.75 187.80 28.75Q187.85 28.75 188.10 28.70Q188.35 28.65 188.45 28.65Q188.90 28.65 189.55 29.25Q189.65 29.40 189.88 29.63Q190.10 29.85 190.35 30.10Q190.40 30.30 190.50 30.45Q190.60 30.60 190.70 30.75L191.15 32.60Q191.15 32.65 191.27 32.92Q191.40 33.20 191.40 33.25Q191.40 33.25 191.20 33.60L191.10 33.50L191 33.55L190.90 33.45Q190.65 33.55 190.65 33.80Q190.65 33.85 190.72 34Q190.80 34.15 190.80 34.25L190.80 35.30Q190.90 35.45 191 35.67Q191.10 35.90 191.20 36.25Q191.25 36.45 191.30 36.73Q191.35 37 191.45 37.35Q191.60 37.50 191.82 37.75Q192.05 38 192.30 38.40Q192.55 38.80 192.85 38.95L193 38.95Q193.10 38.95 193.18 38.90Q193.25 38.85 193.35 38.85L193.50 38.95L194.10 38.95Q194.40 38.95 194.40 39.30Q194.40 39.60 194.05 39.80Q193.70 40 193.55 40Q193.50 40 192.95 39.60Q192.45 39.15 192.30 39.15Q192.15 39.15 192.25 39.25Q192.20 39.20 192.20 39Q192.05 38.95 191.25 37.70L190.60 37L190.30 36.10L189.90 35.75Q190 35.65 189.90 35.55Q189.80 35.45 189.65 34.95L189.50 34.50L188.85 33.65L188.30 32.55Q188.30 32.55 188.18 32.17Q188.05 31.80 187.80 31.45Q187.55 31.10 187.25 31.10Q187.15 31.10 187.15 31.15L187.10 31.15Q187.25 31.15 186.60 30.80Q186.55 30.70 186.15 30.65L185.95 30.40L185.80 30.70L185.45 30.55Q185.35 30.55 185.28 30.63Q185.20 30.70 185.15 30.70Q185.10 30.70 185.10 30.65L185.05 30.65Q185 30.65 184.90 30.80Q184.80 30.95 184.70 30.95Q184.55 30.95 184.55 30.85L183.95 31.20L183.75 31.15L182.45 31.95L182.35 31.95Q182.35 31.90 182.30 31.90Q182.40 31.90 181.25 32.90Q180.75 33.15 180.55 33.40Q180.25 33.65 179.80 34.02Q179.35 34.40 178.70 34.90Q178.20 35.30 178.03 35.55Q177.85 35.80 177.60 36.15Q177.55 36.15 177.40 36.40Q177.25 36.65 177.10 36.85Q177.10 36.85 177.10 36.85L177.10 36.85Q177.15 36.80 177 36.80Q177.15 36.80 176.85 36.90L176.30 37.65Q176.20 37.70 176 37.77Q175.80 37.85 175.45 38.05Q175.30 37.90 175 37.90L174.90 37.55Q174.90 36.95 175.25 36.95Q175.30 36.95 175.28 37Q175.25 37.05 175.35 37.05L176.05 36.40L176.55 35.80Q176.65 35.75 176.78 35.65Q176.90 35.55 177.10 35.40Q177.20 35.40 177.25 35.35Q177.45 35.15 177.68 34.85Q177.90 34.55 178.20 34.15Q178.20 34 178.25 33.90Q178.75 33.30 178.85 32.90L179.35 32.30L179.65 31.50L180.25 30.55L180.65 29.75Q180.95 29.05 181.28 28.15Q181.60 27.25 181.95 26.10Q181.95 25.95 182 25.90Q182 25.55 181.95 25.65Q181.95 25.45 181.93 25.32Q181.90 25.20 181.85 25.10L181.85 24.80Q181.80 24.65 181.70 24.45Q181.60 24.25 181.50 24Q181.50 24 181.20 23.90Q181.20 23.90 181.10 23.77Q181 23.65 180.95 23.65L180.85 23.65Q180.85 23.70 180.80 23.70Q180.80 23.70 180.45 23.50Q180.40 23.50 180.10 23.65Q179.80 23.80 179.75 23.80Q179.65 23.80 179.70 23.75L179.60 23.75Q179.55 23.75 179.40 23.85Q179.25 23.95 179.15 23.95L179.05 23.75L178.35 23.90Q178 24 177.85 24.07Q177.70 24.15 177.65 24.15Q177.60 24.15 177.60 24.10L177.55 24.10Q177.45 24.10 177.30 24.25L176.45 24.55Q176.05 24.35 175.85 24.35Q175.75 24.35 175.55 24.55Q175.50 24.70 175.30 24.82Q175.10 24.95 175 25.10Q174.95 25.10 174.85 25.05Q174.75 25 174.65 25Q174.55 25.10 174.60 25.25L174.50 25.25Q174.15 25.25 173.72 25.55Q173.30 25.85 172.30 26.25Q171.95 26.45 171.32 26.90Q170.70 27.35 170.65 27.35Q170.55 27.35 170.55 27.30L170.45 27.30Q170.40 27.30 169.55 28Q169.45 28.05 169.30 28.10Q169.15 28.15 168.90 28.20Q168.75 28.75 167.30 29.15Q167.20 29.45 166.50 29.80Q166.50 29.85 166.40 30.05Q165.75 30.25 165.40 30.75Q165.40 30.95 165.15 31.25Q164.65 31.75 164.55 32.30Q164.05 33.10 164.10 33.05Q164.15 33.10 164.10 33.10L164.10 33.05Q164.05 33.05 163.95 33L163.70 33.30Q163.70 33.40 163.65 33.67Q163.60 33.95 163.60 34.05L163.40 33.90Q163.35 33.90 163.30 33.85L163 34.35Q162.95 34.35 162.85 34.50Q162.40 34.70 162.45 35.20L161.85 35.75Q161.80 35.80 161.75 35.98Q161.70 36.15 161.60 36.45Q161.50 36.50 161.38 36.60Q161.25 36.70 161.05 36.80L160.85 37.35Q160.65 37.35 160.30 37.85Q160.20 37.95 160.07 38.10Q159.95 38.25 159.85 38.55Q158.80 39 158.65 40.05Q158.30 40.10 158.05 40.50Q158.05 40.65 157.90 41.05Q157.70 41.15 157.47 41.33Q157.25 41.50 156.95 41.75L156.50 42.35Q156.40 42.45 156.28 42.58Q156.15 42.70 156.05 42.75Q155.90 42.95 156 43.05Q155.90 43.10 155.75 43.15Q155.60 43.20 155.40 43.30L155.25 43.80Q155.25 43.95 154.95 44.05Q154.65 44.65 154.45 44.65Q154.35 44.65 154.30 44.60Q154.05 45.10 153.55 45.75Q153.50 45.80 153.50 45.90Q153.25 45.90 153.10 46.08Q152.95 46.25 152.85 46.25L152.80 46.25Q152.80 46.20 152.75 46.20Q152.75 46.20 152.65 46.35Q152.55 46.50 152.35 46.85L152.10 47.25Q151.80 47.35 151.75 47.55Q151.45 47.65 151.28 47.95Q151.10 48.25 151.05 48.25L150.95 48.25Q150.90 48.20 150.85 48.20Q150.65 48.20 150.50 48.60Q150.15 48.75 150.05 49L149.15 49.75Q148.60 50 148.40 50.30L148.40 50.35Q148.40 50.50 148.28 50.75Q148.15 51 147.50 51.40M129.60 24.35L129.40 24.15L129.45 24.05L129.65 24.25L129.60 24.35M123.55 32.80L123.60 32.80Q123.60 32.80 123.60 32.80Q123.60 32.80 123.55 32.80M191.40 33.25L191.40 33.25Q191.40 33.25 191.40 33.25M146.50 52.05L146.65 51.55Q146.75 51.50 146.90 51.50Q147.15 51.50 147.15 51.95Q146.60 52.15 146.50 52.05ZM199.75 43.80Q199.75 43.80 199.40 43.60Q199.25 43.60 198.95 43.55Q198.65 43.50 198.05 43.20Q197.95 43.15 197.78 43.08Q197.60 43 197.40 42.85Q197.35 42.60 196.95 42.10L196.85 42.10L196.70 42.20Q196.65 41.95 196.40 41.75Q196.40 41.55 196.20 41.30Q196.30 40.90 196.20 40.40Q196.10 40.10 195.80 39.80L195.95 39.60Q196.05 39.40 196.15 39.13Q196.25 38.85 196.35 38.50Q196.40 38.30 196.45 38.05Q196.50 37.80 196.60 37.45Q196.55 37.40 196.13 37.05Q195.70 36.70 195.40 36.85Q195.45 36.75 195.45 36.67Q195.45 36.60 195.45 36.60Q195.45 36.55 195.35 36.48Q195.25 36.40 195.25 36.30Q195.25 36.30 195.40 36.13Q195.55 35.95 195.60 35.95Q195.70 35.95 195.92 36.05Q196.15 36.15 196.25 36.15Q196.30 36.15 196.40 36.10Q196.50 36.05 196.55 36.05L197.40 36.25Q197.50 36.25 197.70 36.15L198.95 34.90Q199.10 34.90 199.13 34.83Q199.15 34.75 199.65 34.30Q199.70 34.30 199.82 34.25Q199.95 34.20 200.20 33.95L200.35 33.70Q201.80 32.70 202.90 32.70L203.25 32.70Q203.15 32.80 203.35 32.80Q203.40 32.80 203.50 32.75Q203.60 32.70 203.65 32.70L203.95 32.90L204.25 32.90Q204.45 33.10 204.45 33.10Q204.50 33.10 204.50 33.05L204.55 33.05Q204.45 33.05 204.75 33.35Q204.75 33.35 204.50 34.15Q204.35 34.25 204.07 34.55Q203.80 34.85 203.70 34.85Q203.65 34.85 203.47 34.75Q203.30 34.65 203.20 34.65Q203.15 34.65 202.90 34.75Q202.65 34.85 202.55 34.95Q202.50 35 202.32 35.08Q202.15 35.15 201.15 35.50Q201.20 35.85 201 35.90Q200.65 35.95 200.55 36.15L200.55 36.20Q200.80 36.45 201.70 36.45Q201.75 36.45 201.82 36.40Q201.90 36.35 202 36.35Q202.05 36.35 202.10 36.40L202.20 36.40Q202.25 36.40 202.35 36.33Q202.45 36.25 202.50 36.25Q202.60 36.25 203.10 36.40Q203.60 36.55 203.65 36.55Q203.85 36.55 203.95 36.30L204.15 36.45L204.40 36.45Q204.45 36.45 204.60 36.30L204.60 36.20Q204.20 35.95 204 35.95L204 35.55L204.25 35.45Q204.30 35.45 204.35 35.50L204.45 35.50L204.90 35.35Q205.05 35.65 205.25 35.85Q205.30 35.85 205.30 35.75Q205.45 35.80 205.72 36.02Q206 36.25 206.10 36.25Q206.15 36.25 206.25 36.17Q206.35 36.10 206.45 36.05L206.70 36.05Q207.15 36.05 207.70 35.85L207.85 35.95Q208 35.80 208.20 35.80Q208.30 35.80 208.30 35.85L208.35 35.85L208.90 35.75Q209 35.65 209.25 35.60Q209.50 35.55 210.10 35.55Q210.15 35.55 210.15 35.50Q210.35 35.40 210.57 35.35Q210.80 35.30 211.10 35.25Q211.15 35.20 211.32 35.10Q211.50 35 211.95 34.90Q212.05 34.90 212.15 34.90Q212.25 34.90 212.45 34.85L212.60 34.70Q212.65 34.70 212.65 34.75L212.70 34.75Q212.50 34.75 213.40 34.35Q213.45 34.40 213.45 34.50Q213.45 34.60 213.50 34.75Q213.35 34.75 213.30 34.95Q212.80 35 212.60 35.35L211.85 35.65Q211.75 35.65 211.63 35.65Q211.50 35.65 211.30 35.70L210.85 35.95Q210.80 35.95 210.75 35.90Q210.70 35.85 210.65 35.85Q210.70 35.85 210.38 36Q210.05 36.15 209.80 36.15L209.75 36.15Q209.75 36.10 209.70 36.10L209.55 36.25Q209.35 36.30 209.03 36.30Q208.70 36.30 208.30 36.35Q208.30 36.40 208.25 36.45Q208.35 36.45 208.22 36.48Q208.10 36.50 207.85 36.55Q207.70 36.55 207.45 36.55Q207.20 36.55 206.85 36.60Q206.80 36.60 206.70 36.70L207.35 37.45L207.35 37.60Q207.35 37.60 207.40 37.65Q207.45 37.70 207.70 38.10Q207.85 38.40 207.70 38.45Q207.85 38.95 207.85 38.80Q207.85 38.85 207.80 39.05Q207.75 39.25 207.65 39.60Q207.55 39.75 207.45 39.98Q207.35 40.20 207.25 40.50Q207.10 40.70 206.80 41.02Q206.50 41.35 206 41.85Q206 41.90 205.78 42.02Q205.55 42.15 205.30 42.50Q205 42.65 204.57 42.83Q204.15 43 203.60 43.25Q203.40 43.30 203.07 43.38Q202.75 43.45 202.35 43.50Q202.20 43.55 201.95 43.65Q201.70 43.75 201.30 43.75Q200.45 43.75 200.30 43.70L199.75 43.80M200.20 43.30Q200.20 43.35 200.22 43.27Q200.25 43.20 200.30 43.20L200.70 43.30Q201 43.30 201.07 43.23Q201.15 43.15 201.30 43.15L201.50 43.15Q201.65 43.20 201.75 43.20Q201.80 43.20 201.90 43.13Q202 43.05 202.05 43.05Q202.15 43.05 202.15 43.10L202.30 43L202.95 43Q202.95 43 203.28 42.92Q203.60 42.85 203.90 42.65L204.30 42.40Q204.70 42.15 205 42.02Q205.30 41.90 205.45 41.80Q206.20 41.25 206.45 40.60Q206.45 40.45 206.53 40.23Q206.60 40 206.60 39.95Q206.60 39.75 206.40 39.55Q206.40 39.45 206.42 39.25Q206.45 39.05 206.50 38.80L206.40 38.70Q206.30 38.30 206.05 37.90Q206 37.90 205.95 37.85Q205.90 37.80 205.85 37.40L205.60 37.20L205.60 36.95L205.05 36.95Q205 36.95 204.95 36.90Q204.90 36.85 204.85 36.85L204.60 36.85Q204.05 37.10 204.05 37.15L204.10 37.15Q204.10 37.15 204.05 37.15L203.65 37Q203.65 37 203.40 37.10Q203.15 37.20 202.85 37.20Q202.80 37.20 202.75 37.13Q202.70 37.05 202.60 37.05Q202.55 37.05 202.40 37.17Q202.25 37.30 202.20 37.30Q202.10 37.30 202.07 37.25Q202.05 37.20 202 37.20Q201.95 37.20 201.85 37.25Q201.75 37.30 201.70 37.30Q201.70 37.30 201.70 37.30L201.70 37.30Q201.70 37.30 201.35 37.10Q201.35 37.50 201.05 37.50Q200.85 37.50 200.85 37.15Q200.65 37.20 200.53 37.27Q200.40 37.35 200.25 37.35L200.10 37.35L199.95 37.20Q199.90 37.35 199.70 37.35Q199.55 37.35 199.50 37.30L199.50 37.15Q199.45 37.20 199.35 37.25Q199.25 37.30 199.15 37.35L199.15 37.40Q199.15 37.65 198.85 37.85Q198.55 38.05 198 38.35Q198 38.40 198.03 38.48Q198.05 38.55 198.05 38.60Q198.05 39.10 197.60 39.25L197.15 40.60Q197.25 40.60 197.25 40.65L197.80 42.30Q197.85 42.30 197.90 42.25L198.05 42.25Q198.20 42.25 198.30 42.58Q198.40 42.90 198.60 42.90Q198.65 42.90 198.65 42.85L198.70 42.85Q198.65 42.85 199.10 43.05Q199.10 43.05 199.40 43.15L199.50 43.05Q200.20 43.20 200.20 43.30ZM209.90 44.35Q209.85 44.30 209.85 44.20Q209.85 44 210 43.80Q210.15 43.60 210.15 43.60L210.20 42.70Q210.30 42.55 210.60 42.30Q210.60 42.15 210.70 41.85Q210.65 41.90 210.65 41.40Q210.75 41.30 210.80 41.20Q210.75 41.15 210.75 40.30Q210.75 40.35 210.90 40.05Q210.85 39.85 210.90 39.55Q211 39.35 211.05 39.13Q211.10 38.90 211.05 38.70L210.95 37.60Q210.90 36.90 210.95 36.85Q210.85 36.60 211 36.40Q210.85 35.55 209.90 34.90L209.90 34.65Q209.95 34.65 210.05 34.60Q210.15 34.55 210.20 34.55Q210.25 34.55 210.42 34.65Q210.60 34.75 210.65 34.75L211.30 34.75Q211.25 34.80 211.63 35.27Q212 35.75 212.15 36.30Q212.15 36.45 212.22 36.65Q212.30 36.85 212.45 36.90Q212.60 37.35 212.60 37.85Q212.60 38.05 212.57 38.27Q212.55 38.50 212.50 38.75L212.65 38.90Q212.80 39.25 212.80 39.65L212.95 39.70L214 38.15Q214 38.10 214.30 37.90Q214.40 37.70 214.60 37.50Q214.85 37.50 214.85 37.33Q214.85 37.15 215.35 36.75Q215.50 36.05 216.15 36L216.15 35.95Q216.15 35.65 216.40 35.63Q216.65 35.60 216.70 35.25L217.15 34.95Q217.20 34.85 217.25 34.75Q217.30 34.65 217.40 34.50Q217.45 34.45 217.80 34.35Q218.70 33.75 218.72 33.70Q218.75 33.65 218.90 33.55Q219 33.50 219.10 33.45Q219.20 33.40 219.35 33.35Q219.35 33.35 219.45 33.17Q219.55 33 219.65 33Q219.70 33 219.70 33.05L219.75 33.05Q219.65 33.05 220.30 32.70Q220.45 32.60 220.63 32.55Q220.80 32.50 221 32.45Q221.30 31.95 221.85 31.95Q221.90 31.95 221.92 32Q221.95 32.05 222.05 32.05Q222.10 32.05 222.17 32Q222.25 31.95 222.30 31.95Q222.80 31.95 223.05 32.50Q223.45 33.40 223.45 34.40L223.45 35.70Q223.45 35.75 223.55 35.85Q223.55 35.95 223.50 36.05L223.75 37.75L224.05 39.30Q224.15 39.50 224.30 39.73Q224.45 39.95 224.55 40.25L224.70 40.35Q224.95 40.45 224.95 40.85L225.55 41.10Q225.80 41.35 225.75 41.30L226.35 41Q226.45 41.05 226.50 41.08Q226.55 41.10 226.55 41.10Q226.65 41.10 226.97 40.75Q227.30 40.40 227.35 40.25Q227.45 40.25 227.50 40.30Q227.55 40.40 227.57 40.45Q227.60 40.50 227.60 40.50Q227.60 40.65 226.60 41.65Q226.55 41.65 226.50 41.73Q226.45 41.80 226.40 41.80Q226.30 41.80 226.35 41.75L226.30 41.75Q226.20 41.75 226.10 42.05L225.45 42.50L225.45 42.70Q224.90 42.90 224.65 43Q224.40 43.10 224.45 43.10Q224.25 43.10 224.20 43Q224.15 42.90 224.10 42.90L224.05 42.90Q224.05 42.95 224 42.95Q223.70 42.95 223.60 42.65L223.55 42.70Q223.35 42.70 223.05 42.33Q222.75 41.95 222.65 41.85L222.75 41.75Q222.75 41.65 222.55 41.60Q222.40 41 222.30 41.10Q222.20 41.20 222.15 40.55Q222.20 40.45 222.20 40.27Q222.20 40.10 222.25 39.90Q222 39.45 221.70 39.60Q221.70 39.50 221.60 39.20Q221.65 39.10 221.65 39.08Q221.65 39.05 221.65 39.05Q221.50 38.80 221.60 38.40L221.70 37.95L221.55 37.75L221.55 37.30Q221.35 37.20 221.25 37.08Q221.15 36.95 221.05 36.90L221.05 36.05Q221.15 35.80 221.20 35.75L220.95 35.40L220.95 35.30Q220.95 35.15 220.85 34.92Q220.75 34.70 220.60 34.35Q220.30 34.05 220 34.05Q219.95 34.05 219.92 34.10Q219.90 34.15 219.80 34.15Q219.80 34.15 219.80 34.15L219.80 34.15Q219.90 34.15 219.65 34.05Q219.55 34.15 219.55 34.25Q219.20 34.25 219.05 34.40Q218.90 34.55 218.90 34.55Q218.85 34.55 218.85 34.50Q218.90 34.45 218.85 34.45Q218.85 34.45 218.15 35.05Q218.05 35.05 218 35.10Q217.75 35.25 217.75 35.40Q217.10 35.60 216.25 36.75Q216.20 36.75 216 36.85Q215.65 37.25 215.10 37.83Q214.55 38.40 213.85 39.15Q213.70 39.30 213.60 39.45Q213.50 39.60 213.05 40.20Q213 40.25 212.90 40.35Q212.80 40.45 212.70 40.55Q212.70 40.70 212.53 41.02Q212.35 41.35 212.35 41.90Q212.35 42 212.10 42.35Q211.85 42.70 211.85 42.90Q211.85 43 211.90 43.05Q211.75 43.10 211.47 43.25Q211.20 43.40 211.15 43.40Q211.10 43.40 211.07 43.35Q211.05 43.30 211 43.30Q210.90 43.30 210.70 43.50L210.70 43.60Q210.70 43.75 210.55 44.05Q210.20 44.05 210.20 44.35Q210 44.40 209.90 44.35ZM230.60 43.75Q230.45 43.75 229.55 43.40L229.50 43.40Q229.50 43.45 229.45 43.45Q228.25 43.35 228.20 41.60Q228.10 41.50 228.10 41.40Q228.10 41.30 228.17 41.10Q228.25 40.90 228.35 40.55L228.25 40.45Q228.50 40.25 228.60 39.90Q228.60 39.80 228.50 39.70Q228.90 39.60 228.80 39.20Q228.85 39.15 229.10 39.15Q229.10 39.05 229.10 38.95Q229.10 38.85 229.15 38.70L229.25 38.70Q229.70 38.70 229.80 38.15Q230.10 38.05 230.15 37.85L230.40 37.80Q230.50 37.50 231 36.90L231.25 36.90Q231.85 36.40 231.95 36.38Q232.05 36.35 232.05 36.25Q232.30 36.15 232.50 35.85Q232.55 35.80 232.70 35.80L232.70 35.65Q232.50 35.60 232.25 35Q232.05 34.70 231.77 34.17Q231.50 33.65 231.15 32.95Q231.10 32.80 230.95 32.42Q230.80 32.05 230.80 32.10Q230.80 32.05 230.82 31.98Q230.85 31.90 230.85 31.80L230.85 31.75L230.55 31.15L230.55 30.80L230.20 30.30Q230.15 29.90 230.07 29.38Q230 28.85 229.85 28.25L229.90 28.15Q229.90 27.85 229.75 27.10L229.75 26.85L229.70 26.90Q229.65 26.85 229.65 26.80L229.75 25.10Q229.85 25 229.85 24.90L229.80 24.75Q229.80 24.55 230.05 23.95L230 23.80L230.20 23.50Q230.10 23.40 230.10 23.25L230.10 23.20L230.25 23L230.25 22.85Q230.50 22.45 230.65 22.02Q230.80 21.60 231.25 21Q231.35 21 231.40 20.95Q231.40 20.70 232.45 19.60Q232.65 19.50 232.90 19.38Q233.15 19.25 233.45 19.05Q233.70 19.05 234.65 18.60L234.75 18.75Q234.95 18.55 236.45 18.50L236.55 18.60Q238.05 18.70 238.60 19.30L238.95 19.30Q239.20 19.60 239.95 20Q240.15 20.35 240.50 20.35Q240.50 20.80 240.90 20.90L240.85 21Q240.85 21.05 241.25 21.45Q241.30 21.50 241.40 21.80Q241.45 21.85 241.55 21.85Q241.60 22.10 241.95 22.60Q242.15 23.15 242.27 23.65Q242.40 24.15 242.50 24.65L242.50 25.60Q242.50 25.70 242.57 26Q242.65 26.30 242.65 26.45L242.60 28.30L242.50 28.35Q242.40 28.65 242.32 29.20Q242.25 29.75 242.05 30.80L241.75 31.65Q241.75 32.05 241.55 32.40Q241.50 32.45 241.47 32.67Q241.45 32.90 241.35 33.25Q241.25 33.35 241.20 33.65Q241.15 33.95 240.85 34.10Q240.80 34.45 240.77 34.60Q240.75 34.75 240.75 34.70Q240.75 34.70 240.35 35.60Q240.15 35.70 239.95 35.90Q239.95 36.35 239.52 36.88Q239.10 37.40 238.70 37.85Q238.40 38.10 237.95 38.95Q237.90 39 237.85 39.05Q237.80 39.10 237.75 39.20L237.85 39.55L237.55 39.55L237.50 39.60L237.50 39.70Q237.70 39.85 238.02 40Q238.35 40.15 238.75 40.35L238.65 40.45Q238.85 40.60 239.20 40.85L239.25 40.85Q239.25 40.80 239.30 40.80Q239.35 40.80 239.40 40.92Q239.45 41.05 239.50 41.05Q239.55 41.05 239.55 41L239.60 41L239.90 41.25Q240 41.25 240.10 41.30L240.30 41.30Q240.45 41.30 240.40 41.20L240.40 41.20Q240.40 41.20 240.40 41.20Q240.40 41.20 240.40 41.20Q240.55 41.45 240.75 41.45Q240.80 41.40 240.90 41.40Q241 41.40 241.10 41.35L241.50 41.55Q241.60 41.55 241.85 41.42Q242.10 41.30 242.15 41.30L242.30 41.40Q242.45 41.40 242.55 41.30L242.60 41.30Q242.70 41.30 242.80 41.20Q242.75 41.25 243.05 41.25Q243.45 41.25 243.90 40.65Q243.95 40.70 244 40.70Q244.10 40.70 244.15 40.65L244.35 40.65L244.35 40.90Q243.95 41.15 243.85 41.40L243.65 41.45Q242.55 42.30 241.25 42.25Q241.25 42.25 240.95 42.15L240.30 42.30Q240.10 42.30 239.70 42.08Q239.30 41.85 239 41.90Q239 41.75 238.75 41.65Q238.55 41.45 238.38 41.30Q238.20 41.15 238.05 41.05Q238 41 237.70 40.90L236.85 40.25Q237.05 40.30 235.05 41.85Q234.75 41.90 234.30 42.35Q234.20 42.35 232.90 43.30Q232.80 43.30 232.38 43.40Q231.95 43.50 231.75 43.50L231.65 43.50L231.60 43.45Q231.45 43.60 230.60 43.75M237.05 39.25L237.65 38.75Q237.65 38.65 237.65 38.52Q237.65 38.40 237.70 38.20Q237.80 37.65 238.75 36.60Q238.80 36.50 238.85 36.38Q238.90 36.25 239 36.10Q239 36.10 238.90 35.50L239.65 34.80Q239.65 34.70 239.50 34.50Q239.60 34.35 239.75 34.17Q239.90 34 240.10 33.80L240.35 32.85Q240.30 32.80 240.30 32.70Q240.30 32.60 240.25 32.45L240.35 32.25L240.35 32.15Q240.50 31.75 240.65 30.95Q240.65 30.95 240.55 30.65Q240.60 30.50 240.65 30.27Q240.70 30.05 240.75 29.80L240.75 28.80Q240.70 28.70 240.70 28.52Q240.70 28.35 240.65 28.15L240.75 27.60Q240.75 27.40 240.63 26.93Q240.50 26.45 240.45 26.25Q240.40 26.20 240.35 26.20L240.35 26.05Q240.35 25.95 240.35 25.85Q240.35 25.75 240.30 25.60Q240.30 25.55 240.40 25.45L240.40 25.30Q240.40 24.90 240 24.20L239.75 23.75L239.75 23.70Q239.75 23.55 239.45 23.10Q239.45 22.70 239.20 22.30Q238.75 20.80 238.25 20.80Q238.15 20.80 238.15 20.85L238.35 21.40Q238.30 21.45 238.20 21.45Q237.85 21.15 237.47 20.80Q237.10 20.45 236.70 20.05L236.05 19.70Q235.95 19.70 235.85 19.80Q235.80 19.65 235.65 19.50L235.65 19.55Q235.65 19.60 235.55 19.60Q235.45 19.60 235.30 19.50Q235.15 19.40 235.05 19.40Q235.05 19.35 234.90 19.45L234.70 19.45Q234.30 19.45 234.20 19.25Q234.05 19.30 233.82 19.42Q233.60 19.55 233.30 19.65Q233.30 19.75 232.90 19.90L231.80 20.95Q231.55 21.70 231.10 21.90Q231.15 21.95 231.15 22.10Q231 22.15 230.85 22.50L230.95 22.60Q230.60 22.95 230.65 23.20Q230.30 24.10 230.27 24.30Q230.25 24.50 230.15 24.60L230.10 25.95Q230.15 25.95 230.25 26.05Q230.20 26.20 230.20 26.60L230.20 27.05Q230.20 27.30 230.20 27.55Q230.20 27.80 230.25 28.05Q230.25 28.10 230.50 28.60Q230.75 29.10 230.75 29.40Q230.70 29.50 230.70 29.65Q230.70 29.80 230.65 30.05Q230.75 30.25 230.80 30.48Q230.85 30.70 230.90 30.95Q230.90 30.85 231.05 30.85Q231.35 30.90 231.40 31.25L231.55 31.45Q231.60 31.95 231.92 32.35Q232.25 32.75 232.55 33.15L232.55 33.20Q232.55 33.35 232.60 33.63Q232.65 33.90 232.85 34.25Q232.90 34.20 233 34.20Q233.10 34.20 233.05 34.25L233.05 34.30L233 34.35Q233 34.45 233.10 34.55L233.05 34.65Q233.15 34.75 233.27 34.98Q233.40 35.20 233.55 35.45L233.75 35.50L233.90 35.40Q233.90 35.45 234 35.45Q234.20 35.35 234.60 35.20Q235 35.05 235.65 35.05L236.05 35.05Q236.05 35.05 236.15 35.15Q236.30 35.15 236.30 35.05L236.60 35.05Q236.70 35.05 236.85 35.30L236.90 35.15Q237.55 36.10 237.55 36.30L237.25 37.10L237.05 37.10Q236.90 36.95 236.25 36.85Q235.80 36.85 235.50 36.85Q235.20 36.85 235 36.90L234.95 36.85L234.95 37.15L235.10 37.05Q235.20 37.15 235.15 37.35Q235.35 37.60 235.67 37.88Q236 38.15 236.40 38.45L236.45 38.70Q236.65 38.95 237.05 39.05L237.05 39.25M230.45 43.20Q230.50 43.20 230.65 43.10Q230.80 43 230.90 43Q230.95 43 231.07 43.08Q231.20 43.15 231.25 43.15Q231.35 43 231.70 42.85Q231.75 42.90 231.85 42.90Q231.95 42.90 232.05 42.95Q232.15 42.95 232.25 42.83Q232.35 42.70 232.40 42.70Q232.40 42.75 232.55 42.75Q232.65 42.75 232.80 42.60Q233.15 42.50 233.75 42.08Q234.35 41.65 234.85 41.55Q235 41.25 235.50 40.75L235.65 40.85Q235.75 40.55 236.35 40.15L236.35 39.85Q235.95 39.60 235.70 39.55Q235.65 39.50 235.65 39.40Q235.65 39.30 235.60 39.20Q235.50 39.15 235.35 39.05Q235.20 38.95 235 38.85Q234.55 38.15 233.50 37.20Q233.35 37.40 233.30 37.40Q233.25 37.40 233.25 37.35L233.20 37.35Q233.10 37.35 232.95 37.42Q232.80 37.50 232.75 37.50Q232.70 37.65 232.55 37.65Q232.20 37.75 231.70 38.10Q231.55 38.25 231.17 38.55Q230.80 38.85 229.95 39.45L229.80 39.95L229.65 40.05Q229.50 40.10 229.40 40.30Q229.30 40.50 229.10 40.75L228.90 40.60L228.90 40.80Q228.65 40.95 228.75 41.50Q228.75 41.60 228.70 41.65L229.10 42.80L229.30 42.80Q229.45 42.80 229.60 42.85L229.90 42.85Q230.10 43.05 230.45 43.20ZM246.45 44.20Q246.40 44.15 246.32 44.05Q246.25 43.95 246.20 43.95L246.15 43.95Q246.15 44 246.10 44Q246 44 245.90 43.55Q245.85 43.50 245.55 43.40Q245.40 42.85 245.20 42.80L245.20 41.45L245.60 41Q245.65 40.95 245.55 40.65Q245.60 40.55 245.65 40.45Q245.70 40.35 245.80 40.25Q245.80 40.10 245.75 39.90Q245.85 39.60 246.05 39.45Q246.05 39.15 246.25 38.90Q246.35 38.90 246.80 38.30L247.30 37.55Q247.45 37.45 247.90 37L247.90 36.80Q248.05 36.70 248.20 36.50Q248.55 36.45 248.70 36.20Q248.70 36.15 248.70 36.05Q248.70 35.95 248.75 35.85Q248.85 35.80 248.95 35.80Q249.05 35.80 249.20 35.75Q249.30 35.45 249.45 35.35Q250.10 35.30 250.40 34.65Q250.45 34.65 250.63 34.52Q250.80 34.40 250.85 34.40Q250.85 34.40 250.85 34.40L250.85 34.40Q250.80 34.45 251 34.50Q251.10 34.40 251.10 34.35Q251.35 34.20 251.55 34.20Q251.80 33.90 251.80 33.90Q251.85 33.90 251.88 33.95Q251.90 34 251.95 34Q252.05 34 252.32 33.88Q252.60 33.75 252.70 33.75L252.75 33.75Q252.70 33.80 252.80 33.80Q252.85 33.80 252.92 33.73Q253 33.65 253.05 33.65Q253.15 33.65 253.25 33.73Q253.35 33.80 253.40 33.80Q253.45 33.80 253.47 33.75Q253.50 33.70 253.60 33.70Q253.60 33.70 253.60 33.70L253.60 33.70Q253.50 33.70 253.75 33.80Q253.80 33.60 254 33.60Q254.10 33.60 254.13 33.67Q254.15 33.75 254.25 33.75Q254.30 33.75 254.30 33.70L254.40 33.70Q254.50 33.70 254.80 34.10Q254.90 34 254.90 34Q255.25 34.25 255.30 34.40L255.30 34.90L255.20 34.80Q254.90 34.90 254.60 34.90Q254.55 34.90 254.52 34.85Q254.50 34.80 254.40 34.80Q254.35 34.80 254.27 34.85Q254.20 34.90 254.15 34.90Q254.05 34.90 253.97 34.85Q253.90 34.80 253.85 34.80Q253.80 34.80 253.80 34.85Q253.80 34.90 253.70 34.90L253.65 34.90Q253.70 34.85 253.60 34.85Q253.55 34.85 253.02 35.10Q252.50 35.35 252.45 35.35Q252.40 35.35 252.30 35.20L251.30 35.65L250.95 35.55Q250.90 35.55 250.70 35.75Q250.50 35.95 250.40 35.95Q250.35 35.95 250.35 35.90L250.30 35.90Q250.10 35.90 249.92 36.13Q249.75 36.35 249.40 36.45Q249.35 36.50 249.40 36.65Q249.15 37.20 248.75 37.35Q248.70 37.40 248.70 37.55L248.35 37.55Q248.30 37.60 248.30 37.90Q248.30 37.90 248.22 37.90Q248.15 37.90 248.05 37.85Q247.90 38.10 248 38.35L247.50 38.35Q247.40 38.55 247.25 38.83Q247.10 39.10 246.95 39.50Q246.90 39.65 246.77 39.88Q246.65 40.10 246.55 40.40Q246.25 40.75 246.05 41.25L246.05 41.70Q246.05 41.75 246 41.90Q245.95 42.05 245.95 42.15Q246.20 42.40 246.45 42.40Q246.60 42.40 246.82 42.33Q247.05 42.25 247.25 41.85L247.40 41.95Q247.80 41.80 248.30 41.40Q248.35 41.35 248.55 41.30Q248.75 41.25 248.75 41.05Q248.80 41.05 248.85 41.10L249.05 40.75Q249.60 40.65 249.65 40.15Q249.75 40.15 249.80 40.20L250.15 39.90Q250.15 39.80 250.20 39.70Q250.25 39.70 250.30 39.67Q250.35 39.65 250.45 39.60L250.75 39.05Q250.90 38.90 251.25 38.85Q251.40 38.75 251.52 38.60Q251.65 38.45 251.75 38.35Q251.70 38.25 251.65 38.15Q251.60 38.05 251.50 37.95Q251.40 37.80 251.60 37.70Q251.50 37.75 251.50 37.60L251.50 37.30Q251.65 37.20 251.88 37.10Q252.10 37 252.35 36.80Q252.55 36.70 252.60 36.70Q252.60 36.70 252.60 36.70L252.60 36.70Q252.45 36.70 252.70 36.80Q252.80 36.55 252.95 36.25Q253.10 35.95 253.25 35.55L253.65 35.35Q253.65 35.35 253.75 35.65Q253.35 36.20 253.35 36.50Q253.35 36.65 253.85 36.80Q253.85 36.80 253.85 36.83Q253.85 36.85 253.80 36.90Q254 37.05 254.13 37.20Q254.25 37.35 254.30 37.45Q253.95 37.95 253.95 38.40L254.05 38.50Q254 38.55 254 38.90Q254.05 39.20 254.13 39.52Q254.20 39.85 254.30 40.25L254.65 40.75L254.65 40.90Q254.65 41.60 255.15 42.10L255.30 42L255.30 42.15Q255.60 42.25 255.95 42.60L256.50 42.60Q256.65 42.80 256.80 42.80Q257.60 42.80 257.60 42.40Q257.60 42.40 257.70 42.50Q258.25 42.25 259.35 40.85Q260.10 39.95 260.20 40L260.40 40.05L260.40 40.25L260.45 40.30Q260.45 40.30 260.05 40.85Q260.05 41.05 259.65 41.35Q259.75 41.40 259.65 41.50L259.35 41.70L259.45 41.85Q258.95 42 258.65 42.25Q258.35 42.50 258.40 42.60Q258.30 42.60 258.05 42.90Q257.85 42.90 257.85 43.10Q257.75 43 257.75 43L257.60 43.10Q257.60 43.10 257.52 43.15Q257.45 43.20 257.35 43.30Q257.30 43.30 257.20 43.30Q257.10 43.30 257 43.35L256.90 43.50L256.65 43.50Q256.60 43.45 256.55 43.45Q256.10 43.45 255.85 43.70L255.85 43.50L255.20 43.50L255.20 43.30Q255.10 43.40 255.05 43.40Q254.95 43.40 254.77 43.23Q254.60 43.05 254.40 43.10Q254.15 42.70 253.82 42.27Q253.50 41.85 253.40 41.95Q253.40 41.90 253.45 41.85Q253.30 41.70 253.25 41.40Q252.90 41 251.90 38.95Q251.70 39.15 251.40 39.50Q251.10 39.85 250.70 40.25Q250.65 40.35 250.60 40.48Q250.55 40.60 250.50 40.80L250.15 41Q250.15 41.10 250.13 41.23Q250.10 41.35 250.05 41.55Q250 41.55 249.77 41.75Q249.55 41.95 249.35 41.95Q249.30 41.95 249.20 41.85Q249.10 41.95 248.95 42.13Q248.80 42.30 248.60 42.55Q248.65 42.60 248.90 42.60L248.90 42.80Q248.90 42.85 248.60 43.15L248.70 43.25Q248.55 43.35 248.05 43.85Q248 43.85 247.88 43.85Q247.75 43.85 247.60 43.90Q246.95 44.15 247.20 44.15Q247.05 44.15 246.85 44.10L246.55 44.10Q246.45 44.10 246.45 44.20ZM265.90 44.25Q265.65 44 265.40 44L265 44.10Q264.95 44.10 264.80 44Q264.65 43.90 264.60 43.90Q264.45 43.90 264.45 44Q264.15 43.70 263.95 43.70L263.90 43.70Q263.90 43.75 263.80 43.75Q263.65 43.75 263.50 43.50L263.30 43.25Q263.25 43.25 263 42.95Q262.75 42.65 262.85 42L262.85 41.85Q262.80 41.75 262.55 41.85Q262.50 41.75 262.45 41.63Q262.40 41.50 262.30 41.35Q262.25 41.35 261.85 41.75L261.55 41.90L261.25 42.35Q260.90 42.55 260.80 42.65Q260.70 42.75 260.65 42.75L260.50 42.75Q260.30 42.70 260.30 42.55Q260.30 42.45 260.52 42.20Q260.75 41.95 260.85 41.95Q260.85 41.95 260.85 41.95L260.85 41.95Q260.95 42 261 42L261.05 41.80Q261.55 41.60 261.55 41.25L261.90 40.95Q262.10 40.95 262.25 40.65L262.45 40.50L262.65 39.50Q262.75 39.50 262.80 39.40Q262.85 39.30 263.05 38.80Q263.10 38.75 263.05 38.45Q263.05 38.45 263.02 38.45Q263 38.45 262.95 38.40Q263.10 38.20 262.95 37.85Q263 37.65 263.35 37.55Q263.40 37.45 263.70 37.15Q263.75 37.20 263.90 36.20Q263.90 36.10 264.15 36Q264.20 35.45 264.32 35.17Q264.45 34.90 264.75 34.45Q264.85 33.80 265 33.65Q265.55 32.95 265.60 32.60Q265.95 32.55 266.30 31.90Q266.30 31.90 266.27 31.90Q266.25 31.90 266.25 31.85Q266.25 31.45 266.95 30.60Q267.65 29.80 268.55 28.55Q268.70 28.50 269.30 27.90Q269.60 27.80 269.65 27.75L269.65 27.75Q269.65 27.75 269.65 27.75Q269.65 27.75 269.65 27.75Q269.70 27.85 269.70 27.88Q269.70 27.90 269.70 27.90Q269.70 28.20 269.40 28.30Q268.85 29.15 268.85 29.05Q268.85 29.15 268.95 29.15Q269 29.15 269 29.10L269.05 29.10Q269.15 29.10 269.40 29.35Q269.50 29.25 269.65 29.20Q269.65 29.20 269.65 29.13Q269.65 29.05 269.70 28.95Q269.75 28.90 269.90 28.82Q270.05 28.75 270.25 28.55Q270.30 28.35 270.48 28.02Q270.65 27.70 271 27.50Q270.95 27.45 271 27.25Q271.15 27.30 271.32 27.10Q271.50 26.90 271.65 26.95Q271.75 26.65 271.85 26.50L272.15 26.35Q272.25 25.60 272.65 25.60Q272.65 25.60 272.65 25.60L272.65 25.60Q272.75 25.65 272.80 25.65L272.85 25.45Q272.90 25.40 273 25.35Q273.10 25.30 273.20 25.20L273.20 25.10Q273.20 24.60 273.80 24.55Q273.85 24.45 273.85 24.10L274.10 24.10Q274.25 23.95 274.30 23.85Q274.35 23.75 274.55 23.65Q274.50 23.10 275.25 21.95Q275.05 22.10 274.90 22.10Q274.85 22.10 274.85 22.05Q274.85 21.95 274.85 21.85Q274.85 21.75 274.90 21.55Q275 21.45 275.18 21.30Q275.35 21.15 275.55 21Q275.65 20.90 275.77 20.77Q275.90 20.65 276.10 20.45Q276.25 20.40 276.60 19.90Q276.70 19.80 276.85 19.63Q277 19.45 277.10 19.25Q277.50 19.15 277.65 18.75Q277.80 18.35 278.60 18.05Q278.80 17.80 279.35 17.50Q279.35 17.50 279.45 17.20Q279.75 17.10 280.25 16.45Q280.30 16.35 280.82 15.97Q281.35 15.60 281.40 15.60L281.60 15.60Q281.60 15.60 281.95 15.77Q282.30 15.95 282.80 16.25L282.90 16.85L282.75 17.15L283.10 17.30Q283.15 17.30 283.15 17.45Q283.15 17.70 283 18.25Q282.95 18.55 282.93 18.82Q282.90 19.10 282.95 19.35L281.95 20.75L281.60 21.25Q281.55 21.25 281.35 21.35Q280.80 21.85 280.10 23.15Q280.05 23.15 280.05 23.13Q280.05 23.10 280 23.10Q279.75 23.25 279.55 23.75L279.10 23.95Q279 24.15 278.80 24.35L278.70 24.25L278.55 24.75Q278.30 24.95 278.27 25.13Q278.25 25.30 278.10 25.50L277.50 26Q277.45 26.05 276.93 26.40Q276.40 26.75 276.40 26.90Q276.10 27.25 275.63 27.77Q275.15 28.30 274.50 29.05Q274.30 29.30 273.98 29.63Q273.65 29.95 273.15 30.35Q273.05 30.45 272.80 30.73Q272.55 31 272.20 31.40Q271.95 31.55 271.60 31.80Q271.25 32.05 270.85 32.40Q270.85 32.45 270.70 32.55Q270.55 32.65 270.25 33.10L270.10 33.10Q269.95 33.30 269.73 33.55Q269.50 33.80 269.25 34.20Q269.15 34.20 269.10 34.25Q268.75 34.75 268.35 35Q268.35 35.05 268.27 35.15Q268.20 35.25 267.95 35.40Q267.95 35.50 267.85 35.70Q267.75 35.90 267.45 36.05Q267.40 36.10 267.40 36.25L267.25 36.25Q267.10 36.40 267 36.65Q266.50 36.80 266.55 37.15L266.10 37.55Q265.65 37.90 265.20 38.50Q265.15 38.65 264.90 39.80Q265 39.90 264.90 40.35Q264.75 40.85 264.75 41Q264.75 41.15 264.75 41.20Q264.75 41.45 265.02 41.80Q265.30 42.15 265.30 42.35Q265.45 42.45 265.70 42.35Q265.70 42.45 265.90 42.50Q266.05 42.85 266.50 42.90L266.65 42.70L266.80 42.70Q266.85 42.90 267.05 42.90Q267.15 42.90 267.32 42.80Q267.50 42.70 267.55 42.70Q267.55 42.70 267.55 42.70L267.55 42.70Q267.50 42.75 267.70 42.80Q267.75 42.75 267.75 42.55L268.15 42.55Q269.15 42.55 269.40 42.15Q269.60 42.10 269.85 42Q270.10 41.90 270.45 41.80Q270.65 41.70 270.70 41.50Q270.65 41.50 270.65 41.45L271.20 41.45L271.20 41.20Q271.30 41.15 271.75 41.15L271.95 40.85L272.50 40.55Q272.55 40.55 272.73 40.50Q272.90 40.45 273.20 40.10Q273.30 40.10 273.40 40.05Q273.70 39.85 274.35 39.15L275.30 38.65L275.40 38.55L275.85 38.55Q275.80 38.75 275.55 39.05L274.90 39.50Q274.25 39.95 274.30 39.95L274.25 39.95Q274.25 39.90 274.20 39.90Q273.80 40.10 273.70 40.40Q273.55 40.40 273.50 40.60Q273.40 40.60 273.25 40.65Q273.25 40.65 273.25 40.67Q273.25 40.70 273.20 40.80L272.55 41.25Q272.55 41.50 272.15 41.60Q272 41.60 271.80 41.40L271.50 41.60L271.50 41.65Q271.50 41.90 271.25 42.05Q271 42.20 270.85 42.10Q270.90 42.15 270.90 42.30Q270.90 42.35 270.65 42.70L269.45 43.30L269.40 43.30Q269.40 43.25 269.30 43.25Q269 43.25 268.70 43.55Q268.55 43.60 268.10 43.75Q267.65 43.90 267.60 43.90L267.45 43.80L266.80 43.80Q266.60 43.80 266.55 43.95Q266.50 44.10 266.40 44.10Q266.35 44.10 266.35 44.05L266.25 44.05Q265.95 44.05 265.90 44.25M266.15 36.85L266.35 36.75Q266.60 36.50 266.88 36.15Q267.15 35.80 267.45 35.40Q267.45 35.40 267.60 35.25Q267.75 35.10 267.75 34.95Q268 34.70 268.30 34.42Q268.60 34.15 269 33.80L269.20 33.45Q269.25 33.40 269.35 33.35Q269.45 33.30 269.55 33.20L270.65 32.10Q270.70 32.05 270.70 31.90Q271.05 31.65 271.10 31.45Q271.20 31.40 271.45 31.15Q271.70 30.90 272.05 30.50Q272.25 30.50 272.55 30.05Q272.65 30 272.90 29.75Q273.55 28.65 273.55 28.60L273.70 28.60L274.45 27.80Q274.65 27.60 274.65 27.25Q275.50 26.85 275.60 26.25L275.95 26Q275.95 25.85 276.30 25.50Q276.30 25.50 276.35 25.50Q276.40 25.50 276.45 25.45Q276.55 25.30 276.68 25.07Q276.80 24.85 277 24.50L277.25 24.50L277.40 24.15Q277.50 23.95 277.73 23.72Q277.95 23.50 278.20 23.15L278.20 22.95Q278.35 22.95 278.55 22.80Q278.60 22.70 278.65 22.57Q278.70 22.45 278.80 22.25Q279 21.90 279.32 21.45Q279.65 21 280.05 20.40Q280.05 20.05 280.45 19.55L280.45 19.40Q280.50 19.35 280.40 19.35Q280.30 19.35 280.20 19.45Q278.95 20.40 278.18 21.05Q277.40 21.70 277.15 22Q277 22.05 276.85 22.30Q276.85 22.30 276.73 22.45Q276.60 22.60 276.35 22.85Q276.20 23.05 275.90 23Q275.85 23.40 275.32 23.77Q274.80 24.15 274.75 24.45Q274.25 24.70 273.50 25.65Q272.85 26.30 271.70 27.75Q271.40 27.90 270.95 28.70L270.60 29Q270.60 29.20 270.15 29.45Q270.15 29.60 269.95 29.80Q269.75 30 269.75 30.10Q269.60 30.30 269.25 30.60Q269.25 30.60 269.15 30.90Q269.05 31.10 268.90 31.23Q268.75 31.35 268.65 31.45Q268.60 31.65 268.60 31.75Q268.60 31.85 268.60 31.90Q268.35 32.15 268.07 32.60Q267.80 33.05 267.50 33.60Q267.25 33.60 267.10 34.05Q266.95 34.50 266.85 34.55Q266.75 34.65 266.60 34.70L266.60 34.90L266.80 35.05Q266.60 35.50 266.30 35.55Q266.30 35.75 266.20 35.95Q266.20 36 266.30 36Q266.20 36.25 266.15 36.30Q266.10 36.35 266 36.45L266.15 36.85M278.50 36.05Q278.50 35.85 278.90 35.45L278.95 35.45Q278.95 35.50 279 35.50Q279.05 35.50 279.35 35.08Q279.65 34.65 279.70 34.65Q279.85 34.65 280.05 34.80L280.05 35.25Q279.95 35.30 279.80 35.48Q279.65 35.65 279.60 35.65Q279.45 35.65 279.30 35.50Q279.25 35.50 279.10 35.80L278.65 36.05L278.50 36.05M276.50 38Q276.50 37.90 276.30 37.85Q276.65 37.65 277.35 36.85Q277.55 36.90 277.70 36.55Q277.85 36.20 278.05 36.15L278.30 36.15L278.40 36.25Q278.35 36.40 278.25 36.60Q278.15 36.80 278 37.05L277.95 37.05Q277.80 37.05 277.63 37.23Q277.45 37.40 277.45 37.50Q277.45 37.55 277.25 37.63Q277.05 37.70 276.70 38L276.50 38M275.90 38.50L275.90 38.05Q276 38.10 276.05 38.13Q276.10 38.15 276.10 38.15Q276.20 38.15 276.20 38.05Q276.30 38.15 276.50 38.15Q276.20 38.50 275.90 38.50Z"/></g></g></g></svg>